<?xml version="1.0" encoding="UTF-8" standalone="no"?>
<!DOCTYPE svg  PUBLIC '-//W3C//DTD SVG 1.1//EN'  'http://www.w3.org/Graphics/SVG/1.1/DTD/svg11.dtd'>
<svg version="1.1" xmlns="http://www.w3.org/2000/svg">
<defs>
<font id="SocialGothic-Bold" horiz-adv-x="560">
<font-face panose-1="2 0 5 6 0 0 0 2 0 4" cap-height="828" units-per-em="1000" underline-position="-150" descent="-200" x-height="828" bbox="-67 -350 1492 1049" ascent="800" underline-thickness="50" unicode-range="U+0020-FB02" font-family="SocialGothic" font-weight="700"/>
<missing-glyph d="M505 117v558h-309v-558h309zM626 0h-551v792h551v-792z" horiz-adv-x="701"/>
<glyph glyph-name=".notdef" d="M505 117v558h-309v-558h309zM626 0h-551v792h551v-792z" horiz-adv-x="701"/>
<glyph glyph-name=".null" horiz-adv-x="0"/>
<glyph glyph-name="nonmarkingreturn" horiz-adv-x="333"/>
<glyph glyph-name="space" unicode=" " horiz-adv-x="182"/>
<glyph glyph-name="exclam" d="M216 0h-167v172h167v-172zM204 230h-144l-17 598h178z" unicode="!" horiz-adv-x="264"/>
<glyph glyph-name="quotedbl" d="M333 551h-107l-20 277h147zM159 551h-107l-20 277h147z" unicode='&quot;' horiz-adv-x="385"/>
<glyph glyph-name="numbersign" d="M447 357l29 142h-113l-29 -142h113zM513 0h-137l44 219h-113l-44 -219h-137l44 219h-152l30 138h149l29 142h-152l30 138h149l39 191h137l-39 -191h113l39 191h137l-39 -191h145l-30 -138h-142l-29 -142h145l-30 -138h-142z" unicode="#" horiz-adv-x="803"/>
<glyph glyph-name="dollar" d="M330 -76h-123v63q-82 10 -126.5 49.5t-44.5 106.5v158h167v-120q0 -27 17.5 -43.5t47.5 -16.5q31 0 49 17t18 44v68q0 37 -31 63.5t-74.5 45.5t-87.5 41.5t-75 64.5t-31 101v108q0 68 45 111.5t126 55.5v58h123v-59q80 -12 126 -55.5t46 -110.5v-121h-167v93q0 27 -18 44 t-49 17q-30 0 -47.5 -16.5t-17.5 -43.5v-49q0 -40 31 -65t74.5 -41t87.5 -36.5t75 -66t31 -115.5v-131q0 -67 -45.5 -106.5t-126.5 -49.5v-63z" unicode="$" horiz-adv-x="538"/>
<glyph glyph-name="percent" d="M265 504v135q0 31 -9 46t-38 15q-28 0 -36.5 -14.5t-8.5 -45.5v-135q0 -31 9 -46t37 -15q29 0 37.5 14.5t8.5 45.5zM412 667v-201q0 -83 -44 -121.5t-149 -38.5q-104 0 -148.5 39t-44.5 121v201q0 84 44.5 127.5t147.5 43.5t148.5 -43.5t45.5 -127.5zM894 188v135 q0 31 -9 46t-38 15q-28 0 -36.5 -14.5t-8.5 -45.5v-135q0 -31 9 -46t37 -15q29 0 37.5 14.5t8.5 45.5zM1041 351v-201q0 -83 -44 -121.5t-149 -38.5q-104 0 -148.5 39t-44.5 121v201q0 84 44.5 127.5t147.5 43.5t148.5 -43.5t45.5 -127.5zM409 0h-117l366 828h117z" unicode="%" horiz-adv-x="1067"/>
<glyph glyph-name="ampersand" d="M624 357l-116 -68v-146q0 -79 -62 -119.5t-171 -40.5q-110 0 -171.5 40.5t-61.5 119.5v156q0 101 103 139q-103 38 -103 140v96q0 80 63 125.5t171 45.5q107 0 169.5 -45.5t62.5 -125.5v-136h-167v109q0 27 -17.5 43.5t-47.5 16.5q-31 0 -49 -17t-18 -44v-82 q0 -26 17.5 -43t48.5 -17h57v-136h-56q-31 0 -49 -17.5t-18 -43.5v-126q0 -27 17.5 -43.5t48.5 -16.5q30 0 48 17t18 44v169l214 125z" unicode="&amp;" horiz-adv-x="621"/>
<glyph glyph-name="quotesingle" d="M159 551h-107l-20 277h147z" unicode="&apos;" horiz-adv-x="211"/>
<glyph glyph-name="parenleft" d="M258 101v-118q-213 0 -213 160v531q0 82 53.5 126.5t158.5 44.5v-118q-30 0 -47.5 -16.5t-17.5 -43.5v-505q0 -27 18 -44t48 -17z" unicode="(" horiz-adv-x="288"/>
<glyph glyph-name="parenright" d="M30 -17v118q30 0 48 17t18 44v505q0 27 -17.5 43.5t-47.5 16.5v118q105 0 158.5 -44.5t53.5 -126.5v-531q0 -160 -213 -160z" unicode=")" horiz-adv-x="288"/>
<glyph glyph-name="asterisk" d="M288 599l-57 -44l-60 78l-56 -78l-61 44l54 79l-88 33l26 68l89 -29v95h73v-95l86 29l26 -68l-86 -35z" unicode="*" horiz-adv-x="342"/>
<glyph glyph-name="plus" d="M327 181h-138v164h-164v138h164v164h138v-164h164v-138h-164v-164z" unicode="+" horiz-adv-x="516"/>
<glyph glyph-name="comma" d="M204 0l-167 -120l73 120h-73v172h167v-172z" unicode="," horiz-adv-x="241"/>
<glyph glyph-name="hyphen" d="M378 345h-331v138h331v-138z" unicode="-" horiz-adv-x="425"/>
<glyph glyph-name="period" d="M204 0h-167v172h167v-172z" unicode="." horiz-adv-x="241"/>
<glyph glyph-name="slash" d="M133 0h-117l166 828h117z" unicode="/" horiz-adv-x="315"/>
<glyph glyph-name="zero" d="M344 181v465q0 27 -18 44t-49 17q-30 0 -47.5 -16.5t-17.5 -43.5v-465q0 -27 18 -44t48 -17q31 0 48.5 16.5t17.5 43.5zM45 143v531q0 80 62.5 125.5t169.5 45.5q108 0 171 -45.5t63 -125.5v-531q0 -79 -61.5 -119.5t-171.5 -40.5q-109 0 -171 40.5t-62 119.5z" unicode="0" horiz-adv-x="556"/>
<glyph glyph-name="one" d="M235 0h-167v690h-41v44l54 94h154v-828z" unicode="1" horiz-adv-x="284"/>
<glyph glyph-name="two" d="M494 0h-452v194q0 59 21.5 102t53 65t69 41.5t69 33t53 38.5t21.5 59v114q0 60 -60 60q-30 0 -45 -16.5t-15 -44.5v-153h-167v181q0 80 60 125.5t167 45.5t167 -45.5t60 -125.5v-173q0 -59 -29.5 -102.5t-72 -68.5t-84.5 -46t-71.5 -49t-29.5 -65v-32h285v-138z" unicode="2" horiz-adv-x="535"/>
<glyph glyph-name="three" d="M506 289v-146q0 -79 -61.5 -119.5t-171.5 -40.5q-109 0 -171 40.5t-62 119.5v168h167v-129q0 -27 18 -44t48 -17q31 0 48.5 16.5t17.5 43.5v116q0 26 -18 43.5t-49 17.5h-65v136h66q31 0 48.5 17t17.5 43v92q0 27 -18 44t-49 17q-30 0 -47.5 -16.5t-17.5 -43.5v-109h-167 v136q0 80 62.5 125.5t169.5 45.5q108 0 171 -45.5t63 -125.5v-106q0 -102 -103 -140q103 -38 103 -139z" unicode="3" horiz-adv-x="548"/>
<glyph glyph-name="four" d="M307 309v406l-151 -406h151zM475 0h-168v171h-287v176l180 481h275v-519h61v-138h-61v-171z" unicode="4" horiz-adv-x="561"/>
<glyph glyph-name="five" d="M344 181v199q0 27 -18 44t-48 17q-29 0 -47.5 -15.5t-18.5 -39.5v-17h-167v459h460v-138h-293v-142q50 42 139 42q67 0 113.5 -46.5t46.5 -132.5v-257q0 -80 -62.5 -125.5t-169.5 -45.5q-108 0 -171 45.5t-63 125.5v137h167v-109q0 -27 18 -44t49 -17q30 0 47.5 16.5 t17.5 43.5z" unicode="5" horiz-adv-x="552"/>
<glyph glyph-name="six" d="M344 181v129q0 27 -18 44t-48 17q-29 0 -46.5 -15t-19.5 -40v-134q0 -27 18 -44t49 -17q30 0 47.5 16.5t17.5 43.5zM511 341v-187q0 -80 -62.5 -125.5t-169.5 -45.5q-108 0 -171 45.5t-63 125.5v531q0 79 61.5 119.5t171.5 40.5q109 0 171 -40.5t62 -119.5v-118h-167v79 q0 27 -18 44t-48 17q-31 0 -48.5 -16.5t-17.5 -43.5v-169q50 42 139 42q67 0 113.5 -46.5t46.5 -132.5z" unicode="6" horiz-adv-x="553"/>
<glyph glyph-name="seven" d="M236 0h-180l214 690h-255v138h422v-176z" unicode="7" horiz-adv-x="454"/>
<glyph glyph-name="eight" d="M341 554v92q0 27 -18 44t-49 17q-30 0 -47.5 -16.5t-17.5 -43.5v-92q0 -26 18 -43.5t48 -17.5q31 0 48.5 17t17.5 43zM341 181v116q0 26 -18 43.5t-49 17.5q-30 0 -47.5 -17t-17.5 -43v-116q0 -27 18 -44t48 -17q31 0 48.5 16.5t17.5 43.5zM508 289v-146 q0 -79 -61.5 -119.5t-171.5 -40.5q-109 0 -171 40.5t-62 119.5v146q0 101 102 139q-102 38 -102 140v106q0 80 62.5 125.5t169.5 45.5q108 0 171 -45.5t63 -125.5v-106q0 -102 -103 -140q103 -38 103 -139z" unicode="8" horiz-adv-x="550"/>
<glyph glyph-name="nine" d="M341 512v134q0 27 -18 44t-49 17q-30 0 -47.5 -16.5t-17.5 -43.5v-129q0 -27 18 -44t48 -17q29 0 46.5 15t19.5 40zM341 181v169q-50 -42 -139 -42q-67 0 -113.5 46.5t-46.5 132.5v187q0 80 62.5 125.5t169.5 45.5q108 0 171 -45.5t63 -125.5v-531q0 -79 -61.5 -119.5 t-171.5 -40.5q-109 0 -171 40.5t-62 119.5v118h167v-79q0 -27 18 -44t48 -17q31 0 48.5 16.5t17.5 43.5z" unicode="9" horiz-adv-x="553"/>
<glyph glyph-name="colon" d="M217 302h-167v173h167v-173zM217 0h-167v172h167v-172z" unicode=":" horiz-adv-x="267"/>
<glyph glyph-name="semicolon" d="M216 0l-167 -120l73 120h-73v172h167v-172zM216 302h-167v173h167v-173z" unicode=";" horiz-adv-x="266"/>
<glyph glyph-name="less" d="M324 162h-170l-137 252l137 238h170l-137 -238z" unicode="&lt;" horiz-adv-x="365"/>
<glyph glyph-name="equal" d="M516 224h-466v138h466v-138zM516 467h-466v138h466v-138z" unicode="=" horiz-adv-x="566"/>
<glyph glyph-name="greater" d="M211 162h-170l137 252l-137 238h170l137 -238z" unicode="&gt;" horiz-adv-x="365"/>
<glyph glyph-name="question" d="M251 223h-167v85q0 51 12.5 86t33 51.5t45 26.5t49 16t45 13.5t33 25.5t12.5 48v73q0 59 -60 59q-30 0 -45.5 -16.5t-15.5 -43.5v-128h-167v155q0 80 60.5 125.5t167.5 45.5t167 -45.5t60 -125.5v-143q0 -50 -17 -83t-42.5 -46t-55.5 -23.5t-55.5 -17.5t-42.5 -26 t-17 -51v-61zM251 0h-167v172h167v-172z" unicode="?" horiz-adv-x="503"/>
<glyph glyph-name="at" d="M495 293v85q-57 -9 -74.5 -21t-17.5 -53v-5q0 -31 9 -46t37 -15q19 0 29 8t13 18t4 29zM642 137h-147v49q-30 -33 -53.5 -45t-65.5 -12q-57 0 -88.5 43t-31.5 131v34q0 34 5 58t17.5 39.5t25 25t37 15t43 8t53 6t58.5 7.5v28q0 31 -8.5 45.5t-37.5 14.5q-28 0 -37 -15 t-9 -46v-13h-147v41q0 84 45 127.5t148 43.5t148 -43.5t45 -127.5v-414zM813 413q0 102 -52 187t-132.5 130t-167.5 45q-162 0 -266 -106.5t-104 -255.5t105 -254.5t254 -105.5t256 106t107 254zM883 413q0 -179 -126.5 -304.5t-306.5 -125.5q-178 0 -304 125.5t-126 304.5 q0 123 62.5 224t157.5 154.5t199 53.5q192 0 318 -127t126 -305z" unicode="@" horiz-adv-x="903"/>
<glyph glyph-name="A" d="M315 306l-50 408l-50 -408h100zM519 0h-166l-21 168h-134l-20 -168h-167l109 828h290z" unicode="A" horiz-adv-x="530"/>
<glyph glyph-name="B" d="M347 568v50q0 36 -12.5 54t-42.5 18h-72v-194h72q30 0 42.5 18t12.5 54zM352 210v75q0 36 -12.5 54.5t-42.5 18.5h-77v-220h77q30 0 42.5 18t12.5 54zM378 0h-325v828h320q40 0 67.5 -12t41.5 -27.5t21.5 -43.5t9 -48t1.5 -53v-24q0 -32 -1 -51.5t-8.5 -48.5t-21 -46 t-40 -31.5t-64.5 -18.5q39 -3 67 -16t42 -29t21 -43t8.5 -45.5t1.5 -49.5v-57q0 -33 -1.5 -53t-9 -48t-21.5 -43.5t-41.5 -27.5t-67.5 -12z" unicode="B" horiz-adv-x="557"/>
<glyph glyph-name="C" d="M346 181v178h167v-216q0 -79 -61.5 -119.5t-171.5 -40.5q-109 0 -171 40.5t-62 119.5v531q0 80 62.5 125.5t169.5 45.5q108 0 171 -45.5t63 -125.5v-178h-167v150q0 27 -18 44t-49 17q-30 0 -47.5 -16.5t-17.5 -43.5v-465q0 -27 18 -44t48 -17q31 0 48.5 16.5t17.5 43.5z " unicode="C" horiz-adv-x="554"/>
<glyph glyph-name="D" d="M352 210v408q0 36 -12.5 54t-42.5 18h-77v-552h77q30 0 42.5 18t12.5 54zM378 0h-325v828h325q40 0 67.5 -12t41.5 -27.5t21.5 -43.5t9 -48t1.5 -53v-460q0 -33 -1.5 -53t-9 -48t-21.5 -43.5t-41.5 -27.5t-67.5 -12z" unicode="D" horiz-adv-x="567"/>
<glyph glyph-name="E" d="M423 0h-370v828h370v-138h-203v-194h197v-138h-197v-220h203v-138z" unicode="E" horiz-adv-x="463"/>
<glyph glyph-name="F" d="M220 0h-167v828h335v-138h-168v-194h162v-138h-162v-358z" unicode="F" horiz-adv-x="419"/>
<glyph glyph-name="G" d="M513 0h-69l-11 61q-45 -78 -167 -78q-97 0 -158 45t-61 135v511q0 80 62.5 125.5t169.5 45.5q108 0 171 -45.5t63 -125.5v-144h-167v116q0 27 -18 44t-49 17q-30 0 -47.5 -16.5t-17.5 -43.5v-445q0 -81 67 -81q30 0 47.5 16.5t17.5 43.5v149h-67v138h234v-468z" unicode="G" horiz-adv-x="559"/>
<glyph glyph-name="H" d="M519 0h-167v358h-132v-358h-167v828h167v-332h132v332h167v-828z" unicode="H" horiz-adv-x="572"/>
<glyph glyph-name="I" d="M220 0h-167v828h167v-828z" unicode="I" horiz-adv-x="273"/>
<glyph glyph-name="J" d="M281 181v647h167v-685q0 -160 -211 -160q-212 0 -212 160v215h167v-176q0 -31 8.5 -46t36.5 -15t36 14.5t8 45.5z" unicode="J" horiz-adv-x="499"/>
<glyph glyph-name="K" d="M548 0h-167l-161 307v-307h-167v828h167v-305l131 305h167l-184 -414z" unicode="K" horiz-adv-x="534"/>
<glyph glyph-name="L" d="M400 0h-347v828h167v-690h180v-138z" unicode="L" horiz-adv-x="409"/>
<glyph glyph-name="M" d="M717 0h-149v649l-76 -649h-213l-76 649v-649h-150v828h262l70 -614l71 614h261v-828z" unicode="M" horiz-adv-x="770"/>
<glyph glyph-name="N" d="M530 0h-247l-80 649v-649h-150v828h251l76 -615v615h150v-828z" unicode="N" horiz-adv-x="583"/>
<glyph glyph-name="O" d="M346 181v465q0 27 -18 44t-49 17q-30 0 -47.5 -16.5t-17.5 -43.5v-465q0 -27 18 -44t48 -17q31 0 48.5 16.5t17.5 43.5zM47 143v531q0 80 62.5 125.5t169.5 45.5q108 0 171 -45.5t63 -125.5v-531q0 -79 -61.5 -119.5t-171.5 -40.5q-109 0 -171 40.5t-62 119.5z" unicode="O"/>
<glyph glyph-name="P" d="M352 519v99q0 36 -12.5 54t-42.5 18h-77v-244h77q30 0 42.5 18.5t12.5 54.5zM220 0h-167v828h325q40 0 67.5 -12t41.5 -27.5t21.5 -43.5t9 -48t1.5 -53v-152q0 -33 -1.5 -53t-9 -48t-21.5 -43.5t-41.5 -27.5t-67.5 -12h-158v-308z" unicode="P" horiz-adv-x="550"/>
<glyph glyph-name="Q" d="M346 198v448q0 27 -18 44t-49 17q-30 0 -47.5 -16.5t-17.5 -43.5v-448q0 -27 18 -44t49 -17q30 0 47.5 16.5t17.5 43.5zM530 0h-273q-210 0 -210 171v503q0 80 62.5 125.5t169.5 45.5q108 0 171 -45.5t63 -125.5v-494q0 -74 -62 -105l79 -15v-60z" unicode="Q"/>
<glyph glyph-name="R" d="M352 568v50q0 36 -12.5 54t-42.5 18h-77v-194h77q30 0 42.5 18t12.5 54zM528 0h-165q-11 26 -11 151v134q0 36 -12.5 54.5t-42.5 18.5h-77v-358h-167v828h325q40 0 67.5 -12t41.5 -27.5t21.5 -43.5t9 -48t1.5 -53v-24q0 -26 -1 -42.5t-5 -41.5t-13 -40.5t-23.5 -32.5 t-39.5 -26.5t-58 -12.5q39 -3 67 -16t42 -29t21 -43t8.5 -45.5t1.5 -49.5v-124q0 -93 9 -117z" unicode="R" horiz-adv-x="559"/>
<glyph glyph-name="S" d="M503 274v-131q0 -79 -62 -119.5t-172 -40.5q-109 0 -170.5 40.5t-61.5 119.5v158h167v-120q0 -27 17.5 -43.5t47.5 -16.5q31 0 49 17t18 44v68q0 37 -31 63.5t-75 45.5t-87.5 41.5t-74.5 64.5t-31 101v108q0 80 62.5 125.5t169.5 45.5q108 0 171 -45.5t63 -125.5v-121 h-167v93q0 27 -18 44t-49 17q-30 0 -47.5 -16.5t-17.5 -43.5v-49q0 -34 22 -57.5t55.5 -35.5t72 -29.5t72 -38t55.5 -62.5t22 -101z" unicode="S" horiz-adv-x="540"/>
<glyph glyph-name="T" d="M291 0h-167v690h-112v138h392v-138h-113v-690z" unicode="T" horiz-adv-x="416"/>
<glyph glyph-name="U" d="M350 181v647h167v-685q0 -79 -61.5 -119.5t-171.5 -40.5q-109 0 -171 40.5t-62 119.5v685h167v-646q0 -27 18 -44t48 -17q31 0 48.5 16.5t17.5 43.5z" unicode="U" horiz-adv-x="568"/>
<glyph glyph-name="V" d="M402 0h-290l-98 828h178l65 -691l64 691h178z" unicode="V" horiz-adv-x="513"/>
<glyph glyph-name="W" d="M693 0h-247l-50 616l-48 -616h-247l-75 828h178l42 -691l53 691h196l53 -691l41 691h179z" unicode="W" horiz-adv-x="794"/>
<glyph glyph-name="X" d="M499 0h-167l-81 203l-80 -203h-167l164 414l-164 414h167l80 -203l81 203h167l-164 -414z" unicode="X" horiz-adv-x="503"/>
<glyph glyph-name="Y" d="M318 0h-166v258l-158 570h159l81 -360l82 360h160l-158 -577v-251z" unicode="Y" horiz-adv-x="471"/>
<glyph glyph-name="Z" d="M449 0h-419v138l250 552h-247v138h419v-138l-250 -552h247v-138z" unicode="Z" horiz-adv-x="482"/>
<glyph glyph-name="bracketleft" d="M269 0h-220v828h220v-118h-73v-592h73v-118z" unicode="[" horiz-adv-x="297"/>
<glyph glyph-name="backslash" d="M299 0h-117l-166 828h117z" unicode="\" horiz-adv-x="315"/>
<glyph glyph-name="bracketright" d="M248 0h-220v118h73v592h-73v118h220v-828z" unicode="]" horiz-adv-x="297"/>
<glyph glyph-name="underscore" d="M506 -69h-506v138h506v-138z" unicode="_" horiz-adv-x="506"/>
<glyph glyph-name="grave" d="M189 877h-87l-82 169h135z" unicode="`" horiz-adv-x="209"/>
<glyph glyph-name="a" d="M340 173v208q-7 -1 -28.5 -4t-28.5 -4.5t-23 -5.5t-22 -8.5t-15 -11.5t-12 -17t-3 -23v-125q0 -27 18 -44t48 -17q29 0 46.5 14t19.5 38zM516 0h-165q-5 11 -9 47q-27 -28 -66 -44t-75 -16q-67 0 -113.5 46.5t-46.5 132.5v194q0 39 13 66t31.5 41.5t52 24t60 12t71 7 t71.5 8.5v128q0 27 -17.5 43.5t-48.5 16.5q-30 0 -48 -17t-18 -44v-93h-167v121q0 80 63 125.5t170 45.5q108 0 170.5 -45.5t62.5 -125.5v-589q0 -61 9 -85z" unicode="a" horiz-adv-x="556"/>
<glyph glyph-name="b" d="M347 568v50q0 36 -12.5 54t-42.5 18h-72v-194h72q30 0 42.5 18t12.5 54zM352 210v75q0 36 -12.5 54.5t-42.5 18.5h-77v-220h77q30 0 42.5 18t12.5 54zM378 0h-325v828h320q40 0 67.5 -12t41.5 -27.5t21.5 -43.5t9 -48t1.5 -53v-24q0 -32 -1 -51.5t-8.5 -48.5t-21 -46 t-40 -31.5t-64.5 -18.5q39 -3 67 -16t42 -29t21 -43t8.5 -45.5t1.5 -49.5v-57q0 -33 -1.5 -53t-9 -48t-21.5 -43.5t-41.5 -27.5t-67.5 -12z" unicode="b" horiz-adv-x="557"/>
<glyph glyph-name="c" d="M346 181v178h167v-216q0 -79 -61.5 -119.5t-171.5 -40.5q-109 0 -171 40.5t-62 119.5v531q0 80 62.5 125.5t169.5 45.5q108 0 171 -45.5t63 -125.5v-178h-167v150q0 27 -18 44t-49 17q-30 0 -47.5 -16.5t-17.5 -43.5v-465q0 -27 18 -44t48 -17q31 0 48.5 16.5t17.5 43.5z " unicode="c" horiz-adv-x="554"/>
<glyph glyph-name="d" d="M352 210v408q0 36 -12.5 54t-42.5 18h-77v-552h77q30 0 42.5 18t12.5 54zM378 0h-325v828h325q40 0 67.5 -12t41.5 -27.5t21.5 -43.5t9 -48t1.5 -53v-460q0 -33 -1.5 -53t-9 -48t-21.5 -43.5t-41.5 -27.5t-67.5 -12z" unicode="d" horiz-adv-x="567"/>
<glyph glyph-name="e" d="M346 496v150q0 27 -18 44t-49 17q-30 0 -47.5 -16.5t-17.5 -43.5v-151h132zM513 301v-158q0 -79 -61.5 -119.5t-171.5 -40.5q-109 0 -171 40.5t-62 119.5v531q0 80 62.5 125.5t169.5 45.5q108 0 171 -45.5t63 -125.5v-316h-299v-176q0 -27 18 -44t48 -17q31 0 48.5 16.5 t17.5 43.5v120h167z" unicode="e" horiz-adv-x="557"/>
<glyph glyph-name="f" d="M220 0h-167v828h335v-138h-168v-194h162v-138h-162v-358z" unicode="f" horiz-adv-x="419"/>
<glyph glyph-name="g" d="M513 0h-69l-11 61q-20 -37 -62 -57.5t-91 -20.5q-109 0 -171 40.5t-62 119.5v531q0 80 62.5 125.5t169.5 45.5q108 0 171 -45.5t63 -125.5v-144h-167v116q0 27 -18 44t-49 17q-30 0 -47.5 -16.5t-17.5 -43.5v-465q0 -27 18 -44t48 -17q31 0 48.5 16.5t17.5 43.5v149h-67 v138h234v-468z" unicode="g" horiz-adv-x="559"/>
<glyph glyph-name="h" d="M519 0h-167v358h-132v-358h-167v828h167v-332h132v332h167v-828z" unicode="h" horiz-adv-x="572"/>
<glyph glyph-name="i" d="M220 0h-167v828h167v-828z" unicode="i" horiz-adv-x="273"/>
<glyph glyph-name="j" d="M281 181v647h167v-685q0 -160 -211 -160q-212 0 -212 160v215h167v-176q0 -31 8.5 -46t36.5 -15t36 14.5t8 45.5z" unicode="j" horiz-adv-x="499"/>
<glyph glyph-name="k" d="M529 0h-164q-11 32 -11 151v146q0 26 -18.5 43.5t-48.5 17.5h-67v-358h-167v828h167v-334h68q30 0 48 17t18 43v274h166v-260q0 -102 -102 -140q102 -38 102 -139v-172q0 -93 9 -117z" unicode="k" horiz-adv-x="565"/>
<glyph glyph-name="l" d="M400 0h-347v828h167v-690h180v-138z" unicode="l" horiz-adv-x="409"/>
<glyph glyph-name="m" d="M761 0h-167v649q0 58 -53 58q-24 0 -37.5 -13.5t-13.5 -36.5v-657h-166v649q0 26 -13.5 42t-39.5 16q-25 0 -38 -15t-13 -40v-652h-167v828h157l10 -49q56 62 124 62q83 0 123 -72q58 72 148 72q65 0 105.5 -46t40.5 -133v-662z" unicode="m" horiz-adv-x="812"/>
<glyph glyph-name="n" d="M53 828h157l10 -49q56 62 139 62q67 0 113.5 -46.5t46.5 -132.5v-662h-167v646q0 27 -18 44t-48 17q-29 0 -46.5 -15t-19.5 -40v-652h-167v828z" unicode="n" horiz-adv-x="570"/>
<glyph glyph-name="o" d="M346 181v465q0 27 -18 44t-49 17q-30 0 -47.5 -16.5t-17.5 -43.5v-465q0 -27 18 -44t48 -17q31 0 48.5 16.5t17.5 43.5zM47 143v531q0 80 62.5 125.5t169.5 45.5q108 0 171 -45.5t63 -125.5v-531q0 -79 -61.5 -119.5t-171.5 -40.5q-109 0 -171 40.5t-62 119.5z" unicode="o"/>
<glyph glyph-name="p" d="M352 519v99q0 36 -12.5 54t-42.5 18h-77v-244h77q30 0 42.5 18.5t12.5 54.5zM220 0h-167v828h325q40 0 67.5 -12t41.5 -27.5t21.5 -43.5t9 -48t1.5 -53v-152q0 -33 -1.5 -53t-9 -48t-21.5 -43.5t-41.5 -27.5t-67.5 -12h-158v-308z" unicode="p" horiz-adv-x="550"/>
<glyph glyph-name="q" d="M346 181v465q0 27 -18 44t-49 17q-30 0 -47.5 -16.5t-17.5 -43.5v-465q0 -27 18 -44t48 -17q31 0 48.5 16.5t17.5 43.5zM341 -125h-123v111q-82 11 -126.5 50.5t-44.5 106.5v531q0 80 62.5 125.5t169.5 45.5q108 0 171 -45.5t63 -125.5v-531q0 -67 -45 -106.5t-127 -50.5 v-111z" unicode="q"/>
<glyph glyph-name="r" d="M352 568v50q0 36 -12.5 54t-42.5 18h-77v-194h77q30 0 42.5 18t12.5 54zM528 0h-165q-11 26 -11 151v134q0 36 -12.5 54.5t-42.5 18.5h-77v-358h-167v828h325q40 0 67.5 -12t41.5 -27.5t21.5 -43.5t9 -48t1.5 -53v-24q0 -26 -1 -42.5t-5 -41.5t-13 -40.5t-23.5 -32.5 t-39.5 -26.5t-58 -12.5q39 -3 67 -16t42 -29t21 -43t8.5 -45.5t1.5 -49.5v-124q0 -93 9 -117z" unicode="r" horiz-adv-x="559"/>
<glyph glyph-name="s" d="M503 274v-131q0 -79 -62 -119.5t-172 -40.5q-109 0 -170.5 40.5t-61.5 119.5v158h167v-120q0 -27 17.5 -43.5t47.5 -16.5q31 0 49 17t18 44v68q0 37 -31 63.5t-75 45.5t-87.5 41.5t-74.5 64.5t-31 101v108q0 80 62.5 125.5t169.5 45.5q108 0 171 -45.5t63 -125.5v-121 h-167v93q0 27 -18 44t-49 17q-30 0 -47.5 -16.5t-17.5 -43.5v-49q0 -34 22 -57.5t55.5 -35.5t72 -29.5t72 -38t55.5 -62.5t22 -101z" unicode="s" horiz-adv-x="540"/>
<glyph glyph-name="t" d="M291 0h-167v690h-112v138h392v-138h-113v-690z" unicode="t" horiz-adv-x="416"/>
<glyph glyph-name="u" d="M517 0h-157l-10 49q-56 -62 -139 -62q-67 0 -113.5 46.5t-46.5 132.5v662h167v-646q0 -27 18 -44t48 -17q29 0 46.5 15t19.5 40v652h167v-828z" unicode="u" horiz-adv-x="570"/>
<glyph glyph-name="v" d="M402 0h-290l-98 828h178l65 -691l64 691h178z" unicode="v" horiz-adv-x="513"/>
<glyph glyph-name="w" d="M693 0h-247l-50 616l-48 -616h-247l-75 828h178l42 -691l53 691h196l53 -691l41 691h179z" unicode="w" horiz-adv-x="794"/>
<glyph glyph-name="x" d="M511 0h-167v297q0 26 -18 43.5t-49 17.5q-30 0 -47.5 -17t-17.5 -43v-298h-167v289q0 101 102 139q-102 38 -102 140v260h167v-273q0 -26 18 -43.5t48 -17.5q31 0 48.5 17t17.5 43v274h167v-260q0 -102 -103 -140q103 -38 103 -139v-289z" unicode="x" horiz-adv-x="556"/>
<glyph glyph-name="y" d="M344 181v188q-50 -42 -139 -42q-67 0 -113.5 46.5t-46.5 132.5v205q0 93 -9 117h165q11 -26 11 -151v-140q0 -27 18 -44t48 -17q29 0 46.5 15t19.5 40v297h167v-685q0 -79 -61.5 -119.5t-171.5 -40.5q-109 0 -171 40.5t-62 119.5v157h167v-118q0 -27 18 -44t48 -17 q31 0 48.5 16.5t17.5 43.5z" unicode="y" horiz-adv-x="562"/>
<glyph glyph-name="z" d="M449 0h-419v138l250 552h-247v138h419v-138l-250 -552h247v-138z" unicode="z" horiz-adv-x="482"/>
<glyph glyph-name="braceleft" d="M292 101v-118q-213 0 -213 160v159q0 26 -18.5 43.5t-49.5 17.5v96q32 0 50 17t18 43v155q0 82 53.5 126.5t158.5 44.5v-118q-30 0 -47.5 -16.5t-17.5 -43.5v-134q0 -52 -17 -77t-66 -43q49 -18 66 -42.5t17 -76.5v-132q0 -27 18 -44t48 -17z" unicode="{" horiz-adv-x="318"/>
<glyph glyph-name="bar" d="M216 -17h-167v862h167v-862z" unicode="|" horiz-adv-x="265"/>
<glyph glyph-name="braceright" d="M26 -17v118q30 0 48 17t18 44v134q0 52 17 76.5t66 42.5q-49 18 -66 43t-17 77v132q0 27 -17.5 43.5t-47.5 16.5v118q105 0 158.5 -44.5t53.5 -126.5v-153q0 -26 18 -43t50 -17v-96q-31 0 -49.5 -17.5t-18.5 -43.5v-161q0 -160 -213 -160z" unicode="}" horiz-adv-x="318"/>
<glyph glyph-name="nbspace" unicode=" " horiz-adv-x="182"/>
<glyph glyph-name="exclamdown" d="M215 656h-167v172h167v-172zM221 0h-178l17 598h144z" unicode="¡" horiz-adv-x="264"/>
<glyph glyph-name="cent" d="M312 75h-123v84q-151 21 -151 156v201q0 68 38 111t113 55v84h123v-84q75 -12 113.5 -55t38.5 -111v-36h-167v8q0 31 -9 46t-38 15q-28 0 -36.5 -14.5t-8.5 -45.5v-135q0 -31 9 -46t37 -15q29 0 37.5 14.5t8.5 45.5v31h167v-69q0 -136 -152 -157v-83z" unicode="¢" horiz-adv-x="494"/>
<glyph glyph-name="sterling" d="M496 0h-452v122q113 82 132 150h-122v118h93q-9 13 -33.5 45t-37.5 51.5t-25.5 51.5t-12.5 63v73q0 80 60 125.5t167 45.5t167 -45.5t60 -125.5v-151h-167v123q0 28 -15 44.5t-45 16.5q-60 0 -60 -60v-34q0 -34 46.5 -110.5t59.5 -112.5h175v-118h-170q-21 -69 -104 -134 h284v-138z" unicode="£" horiz-adv-x="535"/>
<glyph glyph-name="currency" d="M539 266v-123q0 -79 -61.5 -119.5t-171.5 -40.5q-109 0 -171 40.5t-62 119.5v171h-41v77h41v59h-41v78h41v146q0 80 62.5 125.5t169.5 45.5q108 0 171 -45.5t63 -125.5v-98h-167v70q0 27 -18 44t-49 17q-30 0 -47.5 -16.5t-17.5 -43.5v-119h291v-78h-291v-59h291v-77 h-291v-132q0 -27 18 -44t48 -17q31 0 48.5 16.5t17.5 43.5v85h167z" unicode="¤" horiz-adv-x="579"/>
<glyph glyph-name="yen" d="M347 0h-166v185h-151v138h133l-140 505h159l81 -360l82 360h160l-139 -505h130v-138h-149v-185z" unicode="¥" horiz-adv-x="527"/>
<glyph glyph-name="brokenbar" d="M221 500h-167v345h167v-345zM221 -17h-167v346h167v-346z" unicode="¦" horiz-adv-x="275"/>
<glyph glyph-name="section" d="M244 545q-21 -5 -34 -18t-13 -31q0 -30 22 -51t56.5 -34.5t71 -27.5t72.5 -39t55 -61q44 13 44 48q0 28 -21 49.5t-55 37.5t-70 31.5t-72 40t-56 55.5zM686 344v-21q0 -72 -51.5 -120.5t-138.5 -57.5q-4 -162 -248 -162q-102 0 -160 41.5t-58 118.5v68h167v-30 q0 -29 18.5 -44t50.5 -15q24 0 43 12t19 37q0 33 -30.5 58t-74.5 43.5t-88 41t-74.5 63.5t-30.5 99v18q0 73 52 126t138 63q6 83 75 123t161 40q54 0 104 -16t88 -57t38 -99v-51h-167v23q0 27 -18.5 43.5t-47.5 16.5q-27 0 -46.5 -11.5t-19.5 -38.5q0 -30 22.5 -52t55.5 -33 t72 -28.5t72 -38t55 -62t22 -98.5z" unicode="§" horiz-adv-x="715"/>
<glyph glyph-name="dieresis" d="M321 878h-115v114h115v-114zM128 878h-113v114h113v-114z" unicode="¨" horiz-adv-x="336"/>
<glyph glyph-name="copyright" d="M666 375v-69q0 -160 -213 -160t-213 160v201q0 82 53.5 126.5t158.5 44.5q106 0 160 -44.5t54 -126.5v-36h-167v8q0 31 -9 46t-38 15q-28 0 -36.5 -14.5t-8.5 -45.5v-135q0 -31 9 -46t37 -15q29 0 37.5 14.5t8.5 45.5v31h167zM813 413q0 102 -52 187t-132.5 130 t-167.5 45q-162 0 -266 -106.5t-104 -255.5t105 -254.5t254 -105.5t256 106t107 254zM883 413q0 -179 -126.5 -304.5t-306.5 -125.5q-178 0 -304 125.5t-126 304.5q0 123 62.5 224t157.5 154.5t199 53.5q192 0 318 -127t126 -305z" unicode="©" horiz-adv-x="903"/>
<glyph glyph-name="ordfeminine" d="M293 388v73q-53 -8 -71.5 -18t-18.5 -39q0 -33 24 -33q33 0 66 17zM469 261h-165q-4 5 -7 25q-62 -35 -118 -35q-60 0 -102.5 37.5t-42.5 114.5q0 26 7.5 47.5t18.5 36.5t32.5 27t38.5 19.5t49.5 15t53 11t59.5 9.5v7q0 62 -46 62t-46 -42v-13h-167v21q0 89 60.5 130.5 t161.5 41.5q90 0 147 -43t57 -129v-258q0 -61 9 -85z" unicode="ª" horiz-adv-x="506"/>
<glyph glyph-name="guillemotleft" d="M564 162h-170l-137 252l137 238h170l-137 -238zM324 162h-170l-137 252l137 238h170l-137 -238z" unicode="«" horiz-adv-x="603"/>
<glyph glyph-name="logicalnot" d="M503 181h-138v164h-328v138h466v-302z" unicode="¬" horiz-adv-x="553"/>
<glyph glyph-name="uni00AD" d="M378 345h-331v138h331v-138z" unicode="­" horiz-adv-x="425"/>
<glyph glyph-name="registered" d="M533 490v8q0 36 -12.5 54t-42.5 18h-57v-152h57q30 0 42.5 18t12.5 54zM591 82h-58v145q0 36 -12.5 54.5t-42.5 18.5h-57v-218h-112q66 -29 141 -29t141 29zM680 183v-48q62 51 97.5 123.5t35.5 154.5q0 102 -52 187t-132.5 130t-167.5 45q-162 0 -266 -106.5 t-104 -255.5q0 -100 49.5 -183.5t133.5 -130.5v589h265q46 0 75.5 -11t43 -33.5t18 -45t4.5 -56.5q0 -31 -1 -50t-7.5 -46t-18.5 -43t-35.5 -29.5t-57.5 -17.5q34 -3 57.5 -15t35.5 -26.5t18.5 -39.5t7.5 -43t1 -49zM883 413q0 -179 -126.5 -304.5t-306.5 -125.5 q-178 0 -304 125.5t-126 304.5q0 123 62.5 224t157.5 154.5t199 53.5q192 0 318 -127t126 -305z" unicode="®" horiz-adv-x="903"/>
<glyph glyph-name="macron" d="M436 885h-366v118h366v-118z" unicode="¯" horiz-adv-x="506"/>
<glyph glyph-name="degree" d="M288 614v5q0 27 -18 44t-49 17q-30 0 -47.5 -16.5t-17.5 -43.5v-5q0 -27 18 -44t48 -17q31 0 48.5 16.5t17.5 43.5zM415 627v-31q0 -83 -44 -121.5t-149 -38.5q-104 0 -148.5 39t-44.5 121v31q0 84 44.5 127.5t147.5 43.5t148.5 -43.5t45.5 -127.5z" unicode="°" horiz-adv-x="444"/>
<glyph glyph-name="plusminus" d="M508 92h-466v138h466v-138zM344 271h-138v164h-164v138h164v164h138v-164h164v-138h-164v-164z" unicode="±" horiz-adv-x="550"/>
<glyph glyph-name="twosuperior" d="M1352 535l-433 -10l-15 85l441 -10zM1080 401h-152l-3 82l158 9zM976 107l-230 94l8 63l257 -60zM1034 256l-273 43l5 60h304zM877 99l-329 23l-107 134l-381 -32l5 360l477 -33l92 119l226 -47l26 -207l-120 -6v118l-23 16l-118 -111l13 -19l71 60l-22 -296z" unicode="²" horiz-adv-x="1392"/>
<glyph glyph-name="threesuperior" d="M1332 224l-381 32l-107 -134l-329 -23l190 79l-22 296l71 -60l13 19l-118 111l-23 -16v-118l-120 6l26 207l226 47l92 -119l477 33zM631 299l-273 -43l-36 103h304zM646 201l-230 -94l-35 97l257 60zM464 401h-152l-3 91l158 -9zM473 525l-433 10l7 65l441 10z" unicode="³" horiz-adv-x="1392"/>
<glyph glyph-name="acute" d="M107 877h-87l34 169h135z" unicode="´" horiz-adv-x="209"/>
<glyph glyph-name="paragraph" d="M474 0h-80v726h-57v-726h-118v316q-117 0 -153 22.5t-36 99.5v260q0 69 29 99.5t92 30.5h323v-828z" unicode="¶" horiz-adv-x="523"/>
<glyph glyph-name="periodcentered" d="M214 328h-167v173h167v-173z" unicode="·" horiz-adv-x="261"/>
<glyph glyph-name="cedilla" d="M125 -84h-11v89h52v-55q29 -1 46 -17t17 -41q0 -33 -27 -57.5t-66 -24.5q-30 0 -54 18t-33 51h65q9 -18 24 -18q25 0 25 26q0 29 -38 29z" unicode="¸" horiz-adv-x="300"/>
<glyph glyph-name="onesuperior" d="M556 653l-85 15l7 161l65 -7zM429 674l-82 3v152l91 3zM210 504l-63 -9l-94 230l97 35zM314 513l-69 -3l-43 273l103 36zM525 -156h-352l29 346l-134 107l-23 329l79 -180l296 22l-60 -81l19 -13l111 118l-16 23h-125l13 120l207 -26l47 -226l-119 -92z" unicode="¹" horiz-adv-x="653"/>
<glyph glyph-name="ordmasculine" d="M296 442v135q0 31 -9 46t-38 15q-28 0 -36.5 -14.5t-8.5 -45.5v-135q0 -31 9 -46t37 -15q29 0 37.5 14.5t8.5 45.5zM463 605v-201q0 -160 -213 -160t-213 160v201q0 82 53.5 126.5t158.5 44.5q106 0 160 -44.5t54 -126.5z" unicode="º" horiz-adv-x="500"/>
<glyph glyph-name="guillemotright" d="M449 162h-170l137 252l-137 238h170l137 -238zM209 162h-170l137 252l-137 238h170l137 -238z" unicode="»" horiz-adv-x="603"/>
<glyph glyph-name="questiondown" d="M478 320v-166q0 -80 -60.5 -125.5t-167.5 -45.5t-167 45.5t-60 125.5v154q0 50 17 83t42.5 46t55.5 23.5t55.5 17.5t42.5 26t17 51v61h167v-85q0 -51 -12.5 -86t-33 -51.5t-45 -26.5t-49 -16t-45 -13.5t-33 -25.5t-12.5 -48v-84q0 -59 60 -59q30 0 45.5 16.5t15.5 43.5 v139h167zM420 667h-167v172h167v-172z" unicode="¿" horiz-adv-x="504"/>
<glyph glyph-name="Agrave" d="M320 877h-87l-82 169h135zM315 306l-50 408l-50 -408h100zM519 0h-166l-21 168h-134l-20 -168h-167l109 828h290z" unicode="À" horiz-adv-x="530"/>
<glyph glyph-name="Aacute" d="M305 877h-87l34 169h135zM315 306l-50 408l-50 -408h100zM519 0h-166l-21 168h-134l-20 -168h-167l109 828h290z" unicode="Á" horiz-adv-x="530"/>
<glyph glyph-name="Acircumflex" d="M396 877h-99l-29 57l-31 -57h-104l84 124h103zM315 306l-50 408l-50 -408h100zM519 0h-166l-21 168h-134l-20 -168h-167l109 828h290z" unicode="Â" horiz-adv-x="530"/>
<glyph glyph-name="Atilde" d="M354 984l66 -48q-38 -76 -98 -76q-26 0 -55.5 20t-41.5 20q-32 0 -51 -42l-65 43q24 41 48.5 61t56.5 20q25 0 51.5 -17.5t42.5 -17.5q34 0 46 37zM315 306l-50 408l-50 -408h100zM519 0h-166l-21 168h-134l-20 -168h-167l109 828h290z" unicode="Ã" horiz-adv-x="530"/>
<glyph glyph-name="Adieresis" d="M418 878h-115v114h115v-114zM225 878h-113v114h113v-114zM315 306l-50 408l-50 -408h100zM519 0h-166l-21 168h-134l-20 -168h-167l109 828h290z" unicode="Ä" horiz-adv-x="530"/>
<glyph glyph-name="Aring" d="M309 940q0 18 -12 29.5t-33 11.5q-20 0 -31.5 -11t-11.5 -29q0 -20 12 -32t32 -12q21 0 32.5 11.5t11.5 31.5zM361 944v-16q0 -41 -21.5 -60t-74.5 -19q-52 0 -74 19t-22 60v16q0 42 22 63.5t73 21.5q97 0 97 -85zM315 306l-50 408l-50 -408h100zM519 0h-166l-21 168 h-134l-20 -168h-167l109 828h290z" unicode="Å" horiz-adv-x="530"/>
<glyph glyph-name="AE" d="M337 306v408l-100 -408h100zM707 0h-370v168h-136l-39 -168h-168l209 828h504v-138h-203v-194h197v-138h-197v-220h203v-138z" unicode="Æ" horiz-adv-x="747"/>
<glyph glyph-name="Ccedilla" d="M266 -84h-11v68q-98 5 -153 45t-55 114v531q0 80 62.5 125.5t169.5 45.5q108 0 171 -45.5t63 -125.5v-178h-167v150q0 27 -18 44t-49 17q-30 0 -47.5 -16.5t-17.5 -43.5v-465q0 -27 18 -44t48 -17q31 0 48.5 16.5t17.5 43.5v178h167v-216q0 -73 -54 -113.5t-152 -45.5 v-34q29 -1 46 -17t17 -41q0 -33 -27 -57.5t-66 -24.5q-30 0 -54 18t-33 51h65q9 -18 24 -18q25 0 25 26q0 29 -38 29z" unicode="Ç" horiz-adv-x="554"/>
<glyph glyph-name="Egrave" d="M290 877h-87l-82 169h135zM423 0h-370v828h370v-138h-203v-194h197v-138h-197v-220h203v-138z" unicode="È" horiz-adv-x="463"/>
<glyph glyph-name="Eacute" d="M276 877h-87l34 169h135zM423 0h-370v828h370v-138h-203v-194h197v-138h-197v-220h203v-138z" unicode="É" horiz-adv-x="463"/>
<glyph glyph-name="Ecircumflex" d="M374 877h-99l-29 57l-31 -57h-104l84 124h103zM423 0h-370v828h370v-138h-203v-194h197v-138h-197v-220h203v-138z" unicode="Ê" horiz-adv-x="463"/>
<glyph glyph-name="Edieresis" d="M388 878h-115v114h115v-114zM195 878h-113v114h113v-114zM423 0h-370v828h370v-138h-203v-194h197v-138h-197v-220h203v-138z" unicode="Ë" horiz-adv-x="463"/>
<glyph glyph-name="Igrave" d="M184 877h-87l-82 169h135zM220 0h-167v828h167v-828z" unicode="Ì" horiz-adv-x="273"/>
<glyph glyph-name="Iacute" d="M178 877h-87l34 169h135zM220 0h-167v828h167v-828z" unicode="Í" horiz-adv-x="273"/>
<glyph glyph-name="Icircumflex" d="M268 877h-99l-29 57l-31 -57h-104l84 124h103zM220 0h-167v828h167v-828z" unicode="Î" horiz-adv-x="273"/>
<glyph glyph-name="Idieresis" d="M290 878h-115v114h115v-114zM97 878h-113v114h113v-114zM220 0h-167v828h167v-828z" unicode="Ï" horiz-adv-x="273"/>
<glyph glyph-name="Eth" d="M361 210v408q0 36 -12.5 54t-42.5 18h-77v-207h74v-138h-74v-207h77q30 0 42.5 18t12.5 54zM387 0h-325v345h-55v138h55v345h325q40 0 67.5 -12t41.5 -27.5t21.5 -43.5t9 -48t1.5 -53v-460q0 -33 -1.5 -53t-9 -48t-21.5 -43.5t-41.5 -27.5t-67.5 -12z" unicode="Ð" horiz-adv-x="576"/>
<glyph glyph-name="Ntilde" d="M387 994l66 -48q-38 -76 -98 -76q-26 0 -55.5 20t-41.5 20q-32 0 -51 -42l-65 43q24 41 48.5 61t56.5 20q25 0 51.5 -17.5t42.5 -17.5q34 0 46 37zM530 0h-247l-80 649v-649h-150v828h251l76 -615v615h150v-828z" unicode="Ñ" horiz-adv-x="583"/>
<glyph glyph-name="Ograve" d="M337 877h-87l-82 169h135zM346 181v465q0 27 -18 44t-49 17q-30 0 -47.5 -16.5t-17.5 -43.5v-465q0 -27 18 -44t48 -17q31 0 48.5 16.5t17.5 43.5zM47 143v531q0 80 62.5 125.5t169.5 45.5q108 0 171 -45.5t63 -125.5v-531q0 -79 -61.5 -119.5t-171.5 -40.5 q-109 0 -171 40.5t-62 119.5z" unicode="Ò"/>
<glyph glyph-name="Oacute" d="M325 877h-87l34 169h135zM346 181v465q0 27 -18 44t-49 17q-30 0 -47.5 -16.5t-17.5 -43.5v-465q0 -27 18 -44t48 -17q31 0 48.5 16.5t17.5 43.5zM47 143v531q0 80 62.5 125.5t169.5 45.5q108 0 171 -45.5t63 -125.5v-531q0 -79 -61.5 -119.5t-171.5 -40.5 q-109 0 -171 40.5t-62 119.5z" unicode="Ó"/>
<glyph glyph-name="Ocircumflex" d="M411 877h-99l-29 57l-31 -57h-104l84 124h103zM346 181v465q0 27 -18 44t-49 17q-30 0 -47.5 -16.5t-17.5 -43.5v-465q0 -27 18 -44t48 -17q31 0 48.5 16.5t17.5 43.5zM47 143v531q0 80 62.5 125.5t169.5 45.5q108 0 171 -45.5t63 -125.5v-531q0 -79 -61.5 -119.5 t-171.5 -40.5q-109 0 -171 40.5t-62 119.5z" unicode="Ô"/>
<glyph glyph-name="Otilde" d="M369 994l66 -48q-38 -76 -98 -76q-26 0 -55.5 20t-41.5 20q-32 0 -51 -42l-65 43q24 41 48.5 61t56.5 20q25 0 51.5 -17.5t42.5 -17.5q34 0 46 37zM346 181v465q0 27 -18 44t-49 17q-30 0 -47.5 -16.5t-17.5 -43.5v-465q0 -27 18 -44t48 -17q31 0 48.5 16.5t17.5 43.5z M47 143v531q0 80 62.5 125.5t169.5 45.5q108 0 171 -45.5t63 -125.5v-531q0 -79 -61.5 -119.5t-171.5 -40.5q-109 0 -171 40.5t-62 119.5z" unicode="Õ"/>
<glyph glyph-name="Odieresis" d="M433 878h-115v114h115v-114zM240 878h-113v114h113v-114zM346 181v465q0 27 -18 44t-49 17q-30 0 -47.5 -16.5t-17.5 -43.5v-465q0 -27 18 -44t48 -17q31 0 48.5 16.5t17.5 43.5zM47 143v531q0 80 62.5 125.5t169.5 45.5q108 0 171 -45.5t63 -125.5v-531 q0 -79 -61.5 -119.5t-171.5 -40.5q-109 0 -171 40.5t-62 119.5z" unicode="Ö"/>
<glyph glyph-name="multiply" d="M359 200l-116 116l-116 -116l-98 98l116 116l-116 116l98 98l116 -116l116 116l98 -98l-116 -116l116 -116z" unicode="×" horiz-adv-x="486"/>
<glyph glyph-name="Oslash" d="M214 244l118 441q-17 22 -53 22q-30 0 -47.5 -16.5t-17.5 -43.5v-403zM346 181v455l-128 -477q13 -38 62 -38q31 0 48.5 16.5t17.5 43.5zM162 -50h-27l14 53q-102 40 -102 140v531q0 80 62.5 125.5t169.5 45.5q49 0 93 -11l12 44h27l-14 -52q55 -20 85.5 -59t30.5 -93 v-531q0 -79 -61.5 -119.5t-171.5 -40.5q-61 0 -106 13z" unicode="Ø"/>
<glyph glyph-name="Ugrave" d="M329 877h-87l-82 169h135zM350 181v647h167v-685q0 -79 -61.5 -119.5t-171.5 -40.5q-109 0 -171 40.5t-62 119.5v685h167v-646q0 -27 18 -44t48 -17q31 0 48.5 16.5t17.5 43.5z" unicode="Ù" horiz-adv-x="568"/>
<glyph glyph-name="Uacute" d="M324 877h-87l34 169h135zM350 181v647h167v-685q0 -79 -61.5 -119.5t-171.5 -40.5q-109 0 -171 40.5t-62 119.5v685h167v-646q0 -27 18 -44t48 -17q31 0 48.5 16.5t17.5 43.5z" unicode="Ú" horiz-adv-x="568"/>
<glyph glyph-name="Ucircumflex" d="M415 877h-99l-29 57l-31 -57h-104l84 124h103zM350 181v647h167v-685q0 -79 -61.5 -119.5t-171.5 -40.5q-109 0 -171 40.5t-62 119.5v685h167v-646q0 -27 18 -44t48 -17q31 0 48.5 16.5t17.5 43.5z" unicode="Û" horiz-adv-x="568"/>
<glyph glyph-name="Udieresis" d="M437 878h-115v114h115v-114zM244 878h-113v114h113v-114zM350 181v647h167v-685q0 -79 -61.5 -119.5t-171.5 -40.5q-109 0 -171 40.5t-62 119.5v685h167v-646q0 -27 18 -44t48 -17q31 0 48.5 16.5t17.5 43.5z" unicode="Ü" horiz-adv-x="568"/>
<glyph glyph-name="Yacute" d="M275 877h-87l34 169h135zM318 0h-166v258l-158 570h159l81 -360l82 360h160l-158 -577v-251z" unicode="Ý" horiz-adv-x="471"/>
<glyph glyph-name="Thorn" d="M352 366v99q0 36 -12.5 54t-42.5 18h-77v-244h77q30 0 42.5 18.5t12.5 54.5zM378 155h-158v-155h-167v828h167v-153h158q40 0 67.5 -12t41.5 -27.5t21.5 -43.5t9 -48t1.5 -53v-152q0 -33 -1.5 -53t-9 -48t-21.5 -43.5t-41.5 -27.5t-67.5 -12z" unicode="Þ" horiz-adv-x="547"/>
<glyph glyph-name="germandbls" d="M1043 274v-131q0 -79 -62 -119.5t-172 -40.5q-109 0 -170.5 40.5t-61.5 119.5v158h167v-120q0 -27 17.5 -43.5t47.5 -16.5q31 0 49 17t18 44v68q0 37 -31 63.5t-75 45.5t-87.5 41.5t-74.5 64.5t-31 101v108q0 80 62.5 125.5t169.5 45.5q108 0 171 -45.5t63 -125.5v-121 h-167v93q0 27 -18 44t-49 17q-30 0 -47.5 -16.5t-17.5 -43.5v-49q0 -34 22 -57.5t55.5 -35.5t72 -29.5t72 -38t55.5 -62.5t22 -101zM503 274v-131q0 -79 -62 -119.5t-172 -40.5q-109 0 -170.5 40.5t-61.5 119.5v158h167v-120q0 -27 17.5 -43.5t47.5 -16.5q31 0 49 17t18 44 v68q0 37 -31 63.5t-75 45.5t-87.5 41.5t-74.5 64.5t-31 101v108q0 80 62.5 125.5t169.5 45.5q108 0 171 -45.5t63 -125.5v-121h-167v93q0 27 -18 44t-49 17q-30 0 -47.5 -16.5t-17.5 -43.5v-49q0 -34 22 -57.5t55.5 -35.5t72 -29.5t72 -38t55.5 -62.5t22 -101z" unicode="ß" horiz-adv-x="1080"/>
<glyph glyph-name="agrave" d="M340 173v208q-7 -1 -28.5 -4t-28.5 -4.5t-23 -5.5t-22 -8.5t-15 -11.5t-12 -17t-3 -23v-125q0 -27 18 -44t48 -17q29 0 46.5 14t19.5 38zM516 0h-165q-5 11 -9 47q-27 -28 -66 -44t-75 -16q-67 0 -113.5 46.5t-46.5 132.5v194q0 39 13 66t31.5 41.5t52 24t60 12t71 7 t71.5 8.5v128q0 27 -17.5 43.5t-48.5 16.5q-30 0 -48 -17t-18 -44v-93h-167v121q0 80 63 125.5t170 45.5q108 0 170.5 -45.5t62.5 -125.5v-589q0 -61 9 -85zM332 877h-87l-82 169h135z" unicode="à" horiz-adv-x="555"/>
<glyph glyph-name="aacute" d="M340 173v208q-7 -1 -28.5 -4t-28.5 -4.5t-23 -5.5t-22 -8.5t-15 -11.5t-12 -17t-3 -23v-125q0 -27 18 -44t48 -17q29 0 46.5 14t19.5 38zM516 0h-165q-5 11 -9 47q-27 -28 -66 -44t-75 -16q-67 0 -113.5 46.5t-46.5 132.5v194q0 39 13 66t31.5 41.5t52 24t60 12t71 7 t71.5 8.5v128q0 27 -17.5 43.5t-48.5 16.5q-30 0 -48 -17t-18 -44v-93h-167v121q0 80 63 125.5t170 45.5q108 0 170.5 -45.5t62.5 -125.5v-589q0 -61 9 -85zM314 877h-87l34 169h135z" unicode="á" horiz-adv-x="555"/>
<glyph glyph-name="acircumflex" d="M340 173v208q-7 -1 -28.5 -4t-28.5 -4.5t-23 -5.5t-22 -8.5t-15 -11.5t-12 -17t-3 -23v-125q0 -27 18 -44t48 -17q29 0 46.5 14t19.5 38zM516 0h-165q-5 11 -9 47q-27 -28 -66 -44t-75 -16q-67 0 -113.5 46.5t-46.5 132.5v194q0 39 13 66t31.5 41.5t52 24t60 12t71 7 t71.5 8.5v128q0 27 -17.5 43.5t-48.5 16.5q-30 0 -48 -17t-18 -44v-93h-167v121q0 80 63 125.5t170 45.5q108 0 170.5 -45.5t62.5 -125.5v-589q0 -61 9 -85zM405 877h-99l-29 57l-31 -57h-104l84 124h103z" unicode="â" horiz-adv-x="555"/>
<glyph glyph-name="atilde" d="M340 173v208q-7 -1 -28.5 -4t-28.5 -4.5t-23 -5.5t-22 -8.5t-15 -11.5t-12 -17t-3 -23v-125q0 -27 18 -44t48 -17q29 0 46.5 14t19.5 38zM516 0h-165q-5 11 -9 47q-27 -28 -66 -44t-75 -16q-67 0 -113.5 46.5t-46.5 132.5v194q0 39 13 66t31.5 41.5t52 24t60 12t71 7 t71.5 8.5v128q0 27 -17.5 43.5t-48.5 16.5q-30 0 -48 -17t-18 -44v-93h-167v121q0 80 63 125.5t170 45.5q108 0 170.5 -45.5t62.5 -125.5v-589q0 -61 9 -85zM361 994l66 -48q-38 -76 -98 -76q-26 0 -55.5 20t-41.5 20q-32 0 -51 -42l-65 43q24 41 48.5 61t56.5 20 q25 0 51.5 -17.5t42.5 -17.5q34 0 46 37z" unicode="ã" horiz-adv-x="555"/>
<glyph glyph-name="adieresis" d="M340 173v208q-7 -1 -28.5 -4t-28.5 -4.5t-23 -5.5t-22 -8.5t-15 -11.5t-12 -17t-3 -23v-125q0 -27 18 -44t48 -17q29 0 46.5 14t19.5 38zM516 0h-165q-5 11 -9 47q-27 -28 -66 -44t-75 -16q-67 0 -113.5 46.5t-46.5 132.5v194q0 39 13 66t31.5 41.5t52 24t60 12t71 7 t71.5 8.5v128q0 27 -17.5 43.5t-48.5 16.5q-30 0 -48 -17t-18 -44v-93h-167v121q0 80 63 125.5t170 45.5q108 0 170.5 -45.5t62.5 -125.5v-589q0 -61 9 -85zM426 878h-115v114h115v-114zM233 878h-113v114h113v-114z" unicode="ä" horiz-adv-x="555"/>
<glyph glyph-name="aring" d="M340 173v208q-7 -1 -28.5 -4t-28.5 -4.5t-23 -5.5t-22 -8.5t-15 -11.5t-12 -17t-3 -23v-125q0 -27 18 -44t48 -17q29 0 46.5 14t19.5 38zM516 0h-165q-5 11 -9 47q-27 -28 -66 -44t-75 -16q-67 0 -113.5 46.5t-46.5 132.5v194q0 39 13 66t31.5 41.5t52 24t60 12t71 7 t71.5 8.5v128q0 27 -17.5 43.5t-48.5 16.5q-30 0 -48 -17t-18 -44v-93h-167v121q0 80 63 125.5t170 45.5q108 0 170.5 -45.5t62.5 -125.5v-589q0 -61 9 -85zM317 960q0 18 -12 29.5t-33 11.5q-20 0 -31.5 -11t-11.5 -29q0 -20 12 -32t32 -12q21 0 32.5 11.5t11.5 31.5z M369 964v-16q0 -41 -21.5 -60t-74.5 -19q-52 0 -74 19t-22 60v16q0 42 22 63.5t73 21.5q97 0 97 -85z" unicode="å" horiz-adv-x="555"/>
<glyph glyph-name="ae" d="M639 496v150q0 27 -18 44t-49 17q-29 0 -46 -15t-19 -40v-156h132zM340 176v205q-7 -1 -28.5 -4t-28.5 -4.5t-23 -5.5t-22 -8.5t-15 -11.5t-12 -17t-3 -23v-125q0 -27 18 -44t48 -17q29 0 46.5 15t19.5 40zM806 301v-158q0 -79 -61.5 -119.5t-171.5 -40.5q-165 0 -215 87 q-11 -25 -31 -42.5t-43 -25.5t-43 -11.5t-40 -3.5q-67 0 -113.5 46.5t-46.5 132.5v194q0 39 13 66t31.5 41.5t52 24t60 12t71 7t71.5 8.5v128q0 27 -17.5 43.5t-48.5 16.5q-30 0 -48 -17t-18 -44v-93h-167v121q0 80 63 125.5t170 45.5q89 0 149 -33q61 33 149 33 q108 0 171 -45.5t63 -125.5v-316h-299v-181q2 -25 19.5 -40.5t46.5 -15.5q31 0 48.5 16.5t17.5 43.5v120h167z" unicode="æ" horiz-adv-x="850"/>
<glyph glyph-name="ccedilla" d="M266 -84h-11v68q-98 5 -153 45t-55 114v531q0 80 62.5 125.5t169.5 45.5q108 0 171 -45.5t63 -125.5v-178h-167v150q0 27 -18 44t-49 17q-30 0 -47.5 -16.5t-17.5 -43.5v-465q0 -27 18 -44t48 -17q31 0 48.5 16.5t17.5 43.5v178h167v-216q0 -73 -54 -113.5t-152 -45.5 v-34q29 -1 46 -17t17 -41q0 -33 -27 -57.5t-66 -24.5q-30 0 -54 18t-33 51h65q9 -18 24 -18q25 0 25 26q0 29 -38 29z" unicode="ç" horiz-adv-x="554"/>
<glyph glyph-name="egrave" d="M340 877h-87l-82 169h135zM346 496v150q0 27 -18 44t-49 17q-30 0 -47.5 -16.5t-17.5 -43.5v-151h132zM513 301v-158q0 -79 -61.5 -119.5t-171.5 -40.5q-109 0 -171 40.5t-62 119.5v531q0 80 62.5 125.5t169.5 45.5q108 0 171 -45.5t63 -125.5v-316h-299v-176 q0 -27 18 -44t48 -17q31 0 48.5 16.5t17.5 43.5v120h167z" unicode="è" horiz-adv-x="557"/>
<glyph glyph-name="eacute" d="M323 877h-87l34 169h135zM346 496v150q0 27 -18 44t-49 17q-30 0 -47.5 -16.5t-17.5 -43.5v-151h132zM513 301v-158q0 -79 -61.5 -119.5t-171.5 -40.5q-109 0 -171 40.5t-62 119.5v531q0 80 62.5 125.5t169.5 45.5q108 0 171 -45.5t63 -125.5v-316h-299v-176 q0 -27 18 -44t48 -17q31 0 48.5 16.5t17.5 43.5v120h167z" unicode="é" horiz-adv-x="557"/>
<glyph glyph-name="ecircumflex" d="M411 877h-99l-29 57l-31 -57h-104l84 124h103zM346 496v150q0 27 -18 44t-49 17q-30 0 -47.5 -16.5t-17.5 -43.5v-151h132zM513 301v-158q0 -79 -61.5 -119.5t-171.5 -40.5q-109 0 -171 40.5t-62 119.5v531q0 80 62.5 125.5t169.5 45.5q108 0 171 -45.5t63 -125.5v-316 h-299v-176q0 -27 18 -44t48 -17q31 0 48.5 16.5t17.5 43.5v120h167z" unicode="ê" horiz-adv-x="557"/>
<glyph glyph-name="edieresis" d="M433 878h-115v114h115v-114zM240 878h-113v114h113v-114zM346 496v150q0 27 -18 44t-49 17q-30 0 -47.5 -16.5t-17.5 -43.5v-151h132zM513 301v-158q0 -79 -61.5 -119.5t-171.5 -40.5q-109 0 -171 40.5t-62 119.5v531q0 80 62.5 125.5t169.5 45.5q108 0 171 -45.5 t63 -125.5v-316h-299v-176q0 -27 18 -44t48 -17q31 0 48.5 16.5t17.5 43.5v120h167z" unicode="ë" horiz-adv-x="557"/>
<glyph glyph-name="igrave" d="M184 877h-87l-82 169h135zM220 0h-167v828h167v-828z" unicode="ì" horiz-adv-x="273"/>
<glyph glyph-name="iacute" d="M178 877h-87l34 169h135zM220 0h-167v828h167v-828z" unicode="í" horiz-adv-x="273"/>
<glyph glyph-name="icircumflex" d="M268 877h-99l-29 57l-31 -57h-104l84 124h103zM220 0h-167v828h167v-828z" unicode="î" horiz-adv-x="273"/>
<glyph glyph-name="idieresis" d="M290 878h-115v114h115v-114zM97 878h-113v114h113v-114zM220 0h-167v828h167v-828z" unicode="ï" horiz-adv-x="273"/>
<glyph glyph-name="eth" d="M361 210v408q0 36 -12.5 54t-42.5 18h-77v-207h74v-138h-74v-207h77q30 0 42.5 18t12.5 54zM387 0h-325v345h-55v138h55v345h325q40 0 67.5 -12t41.5 -27.5t21.5 -43.5t9 -48t1.5 -53v-460q0 -33 -1.5 -53t-9 -48t-21.5 -43.5t-41.5 -27.5t-67.5 -12z" unicode="ð" horiz-adv-x="576"/>
<glyph glyph-name="ntilde" d="M53 828h157l10 -49q56 62 139 62q67 0 113.5 -46.5t46.5 -132.5v-662h-167v646q0 27 -18 44t-48 17q-29 0 -46.5 -15t-19.5 -40v-652h-167v828zM373 994l66 -48q-38 -76 -98 -76q-26 0 -55.5 20t-41.5 20q-32 0 -51 -42l-65 43q24 41 48.5 61t56.5 20q25 0 51.5 -17.5 t42.5 -17.5q34 0 46 37z" unicode="ñ" horiz-adv-x="570"/>
<glyph glyph-name="ograve" d="M337 877h-87l-82 169h135zM346 181v465q0 27 -18 44t-49 17q-30 0 -47.5 -16.5t-17.5 -43.5v-465q0 -27 18 -44t48 -17q31 0 48.5 16.5t17.5 43.5zM47 143v531q0 80 62.5 125.5t169.5 45.5q108 0 171 -45.5t63 -125.5v-531q0 -79 -61.5 -119.5t-171.5 -40.5 q-109 0 -171 40.5t-62 119.5z" unicode="ò"/>
<glyph glyph-name="oacute" d="M325 877h-87l34 169h135zM346 181v465q0 27 -18 44t-49 17q-30 0 -47.5 -16.5t-17.5 -43.5v-465q0 -27 18 -44t48 -17q31 0 48.5 16.5t17.5 43.5zM47 143v531q0 80 62.5 125.5t169.5 45.5q108 0 171 -45.5t63 -125.5v-531q0 -79 -61.5 -119.5t-171.5 -40.5 q-109 0 -171 40.5t-62 119.5z" unicode="ó"/>
<glyph glyph-name="ocircumflex" d="M411 877h-99l-29 57l-31 -57h-104l84 124h103zM346 181v465q0 27 -18 44t-49 17q-30 0 -47.5 -16.5t-17.5 -43.5v-465q0 -27 18 -44t48 -17q31 0 48.5 16.5t17.5 43.5zM47 143v531q0 80 62.5 125.5t169.5 45.5q108 0 171 -45.5t63 -125.5v-531q0 -79 -61.5 -119.5 t-171.5 -40.5q-109 0 -171 40.5t-62 119.5z" unicode="ô"/>
<glyph glyph-name="otilde" d="M369 994l66 -48q-38 -76 -98 -76q-26 0 -55.5 20t-41.5 20q-32 0 -51 -42l-65 43q24 41 48.5 61t56.5 20q25 0 51.5 -17.5t42.5 -17.5q34 0 46 37zM346 181v465q0 27 -18 44t-49 17q-30 0 -47.5 -16.5t-17.5 -43.5v-465q0 -27 18 -44t48 -17q31 0 48.5 16.5t17.5 43.5z M47 143v531q0 80 62.5 125.5t169.5 45.5q108 0 171 -45.5t63 -125.5v-531q0 -79 -61.5 -119.5t-171.5 -40.5q-109 0 -171 40.5t-62 119.5z" unicode="õ"/>
<glyph glyph-name="odieresis" d="M433 878h-115v114h115v-114zM240 878h-113v114h113v-114zM346 181v465q0 27 -18 44t-49 17q-30 0 -47.5 -16.5t-17.5 -43.5v-465q0 -27 18 -44t48 -17q31 0 48.5 16.5t17.5 43.5zM47 143v531q0 80 62.5 125.5t169.5 45.5q108 0 171 -45.5t63 -125.5v-531 q0 -79 -61.5 -119.5t-171.5 -40.5q-109 0 -171 40.5t-62 119.5z" unicode="ö"/>
<glyph glyph-name="divide" d="M491 345h-466v138h466v-138zM341 549h-167v173h167v-173zM341 107h-167v172h167v-172z" unicode="÷" horiz-adv-x="516"/>
<glyph glyph-name="oslash" d="M214 244l118 441q-17 22 -53 22q-30 0 -47.5 -16.5t-17.5 -43.5v-403zM346 181v455l-128 -477q13 -38 62 -38q31 0 48.5 16.5t17.5 43.5zM162 -50h-27l14 53q-102 40 -102 140v531q0 80 62.5 125.5t169.5 45.5q49 0 93 -11l12 44h27l-14 -52q55 -20 85.5 -59t30.5 -93 v-531q0 -79 -61.5 -119.5t-171.5 -40.5q-61 0 -106 13z" unicode="ø"/>
<glyph glyph-name="ugrave" d="M517 0h-157l-10 49q-56 -62 -139 -62q-67 0 -113.5 46.5t-46.5 132.5v662h167v-646q0 -27 18 -44t48 -17q29 0 46.5 15t19.5 40v652h167v-828zM331 877h-87l-82 169h135z" unicode="ù" horiz-adv-x="570"/>
<glyph glyph-name="uacute" d="M517 0h-157l-10 49q-56 -62 -139 -62q-67 0 -113.5 46.5t-46.5 132.5v662h167v-646q0 -27 18 -44t48 -17q29 0 46.5 15t19.5 40v652h167v-828zM324 877h-87l34 169h135z" unicode="ú" horiz-adv-x="570"/>
<glyph glyph-name="ucircumflex" d="M517 0h-157l-10 49q-56 -62 -139 -62q-67 0 -113.5 46.5t-46.5 132.5v662h167v-646q0 -27 18 -44t48 -17q29 0 46.5 15t19.5 40v652h167v-828zM418 877h-99l-29 57l-31 -57h-104l84 124h103z" unicode="û" horiz-adv-x="570"/>
<glyph glyph-name="udieresis" d="M517 0h-157l-10 49q-56 -62 -139 -62q-67 0 -113.5 46.5t-46.5 132.5v662h167v-646q0 -27 18 -44t48 -17q29 0 46.5 15t19.5 40v652h167v-828zM439 878h-115v114h115v-114zM246 878h-113v114h113v-114z" unicode="ü" horiz-adv-x="570"/>
<glyph glyph-name="yacute" d="M344 181v188q-50 -42 -139 -42q-67 0 -113.5 46.5t-46.5 132.5v205q0 93 -9 117h165q11 -26 11 -151v-140q0 -27 18 -44t48 -17q29 0 46.5 15t19.5 40v297h167v-685q0 -79 -61.5 -119.5t-171.5 -40.5q-109 0 -171 40.5t-62 119.5v157h167v-118q0 -27 18 -44t48 -17 q31 0 48.5 16.5t17.5 43.5zM323 877h-87l34 169h135z" unicode="ý" horiz-adv-x="562"/>
<glyph glyph-name="thorn" d="M352 366v99q0 36 -12.5 54t-42.5 18h-77v-244h77q30 0 42.5 18.5t12.5 54.5zM378 155h-158v-155h-167v828h167v-153h158q40 0 67.5 -12t41.5 -27.5t21.5 -43.5t9 -48t1.5 -53v-152q0 -33 -1.5 -53t-9 -48t-21.5 -43.5t-41.5 -27.5t-67.5 -12z" unicode="þ" horiz-adv-x="547"/>
<glyph glyph-name="ydieresis" d="M344 181v188q-50 -42 -139 -42q-67 0 -113.5 46.5t-46.5 132.5v205q0 93 -9 117h165q11 -26 11 -151v-140q0 -27 18 -44t48 -17q29 0 46.5 15t19.5 40v297h167v-685q0 -79 -61.5 -119.5t-171.5 -40.5q-109 0 -171 40.5t-62 119.5v157h167v-118q0 -27 18 -44t48 -17 q31 0 48.5 16.5t17.5 43.5zM431 878h-115v114h115v-114zM238 878h-113v114h113v-114z" unicode="ÿ" horiz-adv-x="562"/>
<glyph glyph-name="Amacron" d="M442 885h-366v118h366v-118zM315 306l-50 408l-50 -408h100zM519 0h-166l-21 168h-134l-20 -168h-167l109 828h290z" unicode="Ā" horiz-adv-x="530"/>
<glyph glyph-name="amacron" d="M340 173v208q-7 -1 -28.5 -4t-28.5 -4.5t-23 -5.5t-22 -8.5t-15 -11.5t-12 -17t-3 -23v-125q0 -27 18 -44t48 -17q29 0 46.5 14t19.5 38zM516 0h-165q-5 11 -9 47q-27 -28 -66 -44t-75 -16q-67 0 -113.5 46.5t-46.5 132.5v194q0 39 13 66t31.5 41.5t52 24t60 12t71 7 t71.5 8.5v128q0 27 -17.5 43.5t-48.5 16.5q-30 0 -48 -17t-18 -44v-93h-167v121q0 80 63 125.5t170 45.5q108 0 170.5 -45.5t62.5 -125.5v-589q0 -61 9 -85zM462 885h-366v118h366v-118z" unicode="ā" horiz-adv-x="555"/>
<glyph glyph-name="Abreve" d="M341 1017h87q0 -140 -163 -140q-82 0 -122.5 36.5t-40.5 103.5h87q0 -28 19.5 -45t56.5 -17q76 0 76 62zM315 306l-50 408l-50 -408h100zM519 0h-166l-21 168h-134l-20 -168h-167l109 828h290z" unicode="Ă" horiz-adv-x="530"/>
<glyph glyph-name="abreve" d="M340 173v208q-7 -1 -28.5 -4t-28.5 -4.5t-23 -5.5t-22 -8.5t-15 -11.5t-12 -17t-3 -23v-125q0 -27 18 -44t48 -17q29 0 46.5 14t19.5 38zM516 0h-165q-5 11 -9 47q-27 -28 -66 -44t-75 -16q-67 0 -113.5 46.5t-46.5 132.5v194q0 39 13 66t31.5 41.5t52 24t60 12t71 7 t71.5 8.5v128q0 27 -17.5 43.5t-48.5 16.5q-30 0 -48 -17t-18 -44v-93h-167v121q0 80 63 125.5t170 45.5q108 0 170.5 -45.5t62.5 -125.5v-589q0 -61 9 -85zM355 1017h87q0 -140 -163 -140q-82 0 -122.5 36.5t-40.5 103.5h87q0 -28 19.5 -45t56.5 -17q76 0 76 62z" unicode="ă" horiz-adv-x="555"/>
<glyph glyph-name="Aogonek" d="M315 306l-50 408l-50 -408h100zM456 -82l18 -44q-45 -20 -76 -20q-41 0 -64.5 19t-23.5 50q0 37 43 77l-21 168h-134l-20 -168h-167l109 828h290l109 -828q-52 0 -87 -13t-46.5 -26.5t-11.5 -25.5q0 -28 32 -28q21 0 50 11z" unicode="Ą" horiz-adv-x="530"/>
<glyph glyph-name="aogonek" d="M340 173v208q-7 -1 -28.5 -4t-28.5 -4.5t-23 -5.5t-22 -8.5t-15 -11.5t-12 -17t-3 -23v-125q0 -27 18 -44t48 -17q29 0 46.5 14t19.5 38zM454 -82l18 -44q-45 -20 -76 -20q-41 0 -64.5 19t-23.5 50q0 37 43 77q-5 11 -9 47q-27 -28 -66 -44t-75 -16q-67 0 -113.5 46.5 t-46.5 132.5v194q0 39 13 66t31.5 41.5t52 24t60 12t71 7t71.5 8.5v128q0 27 -17.5 43.5t-48.5 16.5q-30 0 -48 -17t-18 -44v-93h-167v121q0 80 63 125.5t170 45.5q108 0 170.5 -45.5t62.5 -125.5v-589q0 -61 9 -85q-48 0 -83 -13t-48 -27t-13 -25q0 -28 32 -28q21 0 50 11z " unicode="ą" horiz-adv-x="557"/>
<glyph glyph-name="Cacute" d="M318 877h-87l34 169h135zM346 181v178h167v-216q0 -79 -61.5 -119.5t-171.5 -40.5q-109 0 -171 40.5t-62 119.5v531q0 80 62.5 125.5t169.5 45.5q108 0 171 -45.5t63 -125.5v-178h-167v150q0 27 -18 44t-49 17q-30 0 -47.5 -16.5t-17.5 -43.5v-465q0 -27 18 -44t48 -17 q31 0 48.5 16.5t17.5 43.5z" unicode="Ć" horiz-adv-x="554"/>
<glyph glyph-name="cacute" d="M312 877h-87l34 169h135zM346 181v178h167v-216q0 -79 -61.5 -119.5t-171.5 -40.5q-109 0 -171 40.5t-62 119.5v531q0 80 62.5 125.5t169.5 45.5q108 0 171 -45.5t63 -125.5v-178h-167v150q0 27 -18 44t-49 17q-30 0 -47.5 -16.5t-17.5 -43.5v-465q0 -27 18 -44t48 -17 q31 0 48.5 16.5t17.5 43.5z" unicode="ć" horiz-adv-x="554"/>
<glyph glyph-name="Ccircumflex" d="M411 877h-99l-29 57l-31 -57h-104l84 124h103zM346 181v178h167v-216q0 -79 -61.5 -119.5t-171.5 -40.5q-109 0 -171 40.5t-62 119.5v531q0 80 62.5 125.5t169.5 45.5q108 0 171 -45.5t63 -125.5v-178h-167v150q0 27 -18 44t-49 17q-30 0 -47.5 -16.5t-17.5 -43.5v-465 q0 -27 18 -44t48 -17q31 0 48.5 16.5t17.5 43.5z" unicode="Ĉ" horiz-adv-x="554"/>
<glyph glyph-name="ccircumflex" d="M411 877h-99l-29 57l-31 -57h-104l84 124h103zM346 181v178h167v-216q0 -79 -61.5 -119.5t-171.5 -40.5q-109 0 -171 40.5t-62 119.5v531q0 80 62.5 125.5t169.5 45.5q108 0 171 -45.5t63 -125.5v-178h-167v150q0 27 -18 44t-49 17q-30 0 -47.5 -16.5t-17.5 -43.5v-465 q0 -27 18 -44t48 -17q31 0 48.5 16.5t17.5 43.5z" unicode="ĉ" horiz-adv-x="554"/>
<glyph glyph-name="Cdotaccent" d="M337 878h-115v114h115v-114zM346 181v178h167v-216q0 -79 -61.5 -119.5t-171.5 -40.5q-109 0 -171 40.5t-62 119.5v531q0 80 62.5 125.5t169.5 45.5q108 0 171 -45.5t63 -125.5v-178h-167v150q0 27 -18 44t-49 17q-30 0 -47.5 -16.5t-17.5 -43.5v-465q0 -27 18 -44 t48 -17q31 0 48.5 16.5t17.5 43.5z" unicode="Ċ" horiz-adv-x="554"/>
<glyph glyph-name="cdotaccent" d="M337 878h-115v114h115v-114zM346 181v178h167v-216q0 -79 -61.5 -119.5t-171.5 -40.5q-109 0 -171 40.5t-62 119.5v531q0 80 62.5 125.5t169.5 45.5q108 0 171 -45.5t63 -125.5v-178h-167v150q0 27 -18 44t-49 17q-30 0 -47.5 -16.5t-17.5 -43.5v-465q0 -27 18 -44 t48 -17q31 0 48.5 16.5t17.5 43.5z" unicode="ċ" horiz-adv-x="554"/>
<glyph glyph-name="Ccaron" d="M335 877h-103l-84 124h104l31 -57l29 57h99zM346 181v178h167v-216q0 -79 -61.5 -119.5t-171.5 -40.5q-109 0 -171 40.5t-62 119.5v531q0 80 62.5 125.5t169.5 45.5q108 0 171 -45.5t63 -125.5v-178h-167v150q0 27 -18 44t-49 17q-30 0 -47.5 -16.5t-17.5 -43.5v-465 q0 -27 18 -44t48 -17q31 0 48.5 16.5t17.5 43.5z" unicode="Č" horiz-adv-x="554"/>
<glyph glyph-name="ccaron" d="M335 877h-103l-84 124h104l31 -57l29 57h99zM346 181v178h167v-216q0 -79 -61.5 -119.5t-171.5 -40.5q-109 0 -171 40.5t-62 119.5v531q0 80 62.5 125.5t169.5 45.5q108 0 171 -45.5t63 -125.5v-178h-167v150q0 27 -18 44t-49 17q-30 0 -47.5 -16.5t-17.5 -43.5v-465 q0 -27 18 -44t48 -17q31 0 48.5 16.5t17.5 43.5z" unicode="č" horiz-adv-x="554"/>
<glyph glyph-name="Dcaron" d="M332 877h-103l-84 124h104l31 -57l29 57h99zM352 210v408q0 36 -12.5 54t-42.5 18h-77v-552h77q30 0 42.5 18t12.5 54zM378 0h-325v828h325q40 0 67.5 -12t41.5 -27.5t21.5 -43.5t9 -48t1.5 -53v-460q0 -33 -1.5 -53t-9 -48t-21.5 -43.5t-41.5 -27.5t-67.5 -12z" unicode="Ď" horiz-adv-x="567"/>
<glyph glyph-name="dcaron" d="M332 877h-103l-84 124h104l31 -57l29 57h99zM352 210v408q0 36 -12.5 54t-42.5 18h-77v-552h77q30 0 42.5 18t12.5 54zM378 0h-325v828h325q40 0 67.5 -12t41.5 -27.5t21.5 -43.5t9 -48t1.5 -53v-460q0 -33 -1.5 -53t-9 -48t-21.5 -43.5t-41.5 -27.5t-67.5 -12z" unicode="ď" horiz-adv-x="567"/>
<glyph glyph-name="Dcroat" d="M361 210v408q0 36 -12.5 54t-42.5 18h-77v-207h74v-138h-74v-207h77q30 0 42.5 18t12.5 54zM387 0h-325v345h-55v138h55v345h325q40 0 67.5 -12t41.5 -27.5t21.5 -43.5t9 -48t1.5 -53v-460q0 -33 -1.5 -53t-9 -48t-21.5 -43.5t-41.5 -27.5t-67.5 -12z" unicode="Đ" horiz-adv-x="576"/>
<glyph glyph-name="dcroat" d="M361 210v408q0 36 -12.5 54t-42.5 18h-77v-207h74v-138h-74v-207h77q30 0 42.5 18t12.5 54zM387 0h-325v345h-55v138h55v345h325q40 0 67.5 -12t41.5 -27.5t21.5 -43.5t9 -48t1.5 -53v-460q0 -33 -1.5 -53t-9 -48t-21.5 -43.5t-41.5 -27.5t-67.5 -12z" unicode="đ" horiz-adv-x="576"/>
<glyph glyph-name="Emacron" d="M419 885h-366v118h366v-118zM423 0h-370v828h370v-138h-203v-194h197v-138h-197v-220h203v-138z" unicode="Ē" horiz-adv-x="463"/>
<glyph glyph-name="emacron" d="M463 885h-366v118h366v-118zM346 496v150q0 27 -18 44t-49 17q-30 0 -47.5 -16.5t-17.5 -43.5v-151h132zM513 301v-158q0 -79 -61.5 -119.5t-171.5 -40.5q-109 0 -171 40.5t-62 119.5v531q0 80 62.5 125.5t169.5 45.5q108 0 171 -45.5t63 -125.5v-316h-299v-176 q0 -27 18 -44t48 -17q31 0 48.5 16.5t17.5 43.5v120h167z" unicode="ē" horiz-adv-x="557"/>
<glyph glyph-name="Ebreve" d="M423 0h-370v828h370v-138h-203v-194h197v-138h-197v-220h203v-138zM311 1017h87q0 -140 -163 -140q-82 0 -122.5 36.5t-40.5 103.5h87q0 -28 19.5 -45t56.5 -17q76 0 76 62z" unicode="Ĕ" horiz-adv-x="463"/>
<glyph glyph-name="ebreve" d="M356 1017h87q0 -140 -163 -140q-82 0 -122.5 36.5t-40.5 103.5h87q0 -28 19.5 -45t56.5 -17q76 0 76 62zM346 496v150q0 27 -18 44t-49 17q-30 0 -47.5 -16.5t-17.5 -43.5v-151h132zM513 301v-158q0 -79 -61.5 -119.5t-171.5 -40.5q-109 0 -171 40.5t-62 119.5v531 q0 80 62.5 125.5t169.5 45.5q108 0 171 -45.5t63 -125.5v-316h-299v-176q0 -27 18 -44t48 -17q31 0 48.5 16.5t17.5 43.5v120h167z" unicode="ĕ" horiz-adv-x="557"/>
<glyph glyph-name="Edotaccent" d="M311 878h-115v114h115v-114zM423 0h-370v828h370v-138h-203v-194h197v-138h-197v-220h203v-138z" unicode="Ė" horiz-adv-x="463"/>
<glyph glyph-name="edotaccent" d="M337 878h-115v114h115v-114zM346 496v150q0 27 -18 44t-49 17q-30 0 -47.5 -16.5t-17.5 -43.5v-151h132zM513 301v-158q0 -79 -61.5 -119.5t-171.5 -40.5q-109 0 -171 40.5t-62 119.5v531q0 80 62.5 125.5t169.5 45.5q108 0 171 -45.5t63 -125.5v-316h-299v-176 q0 -27 18 -44t48 -17q31 0 48.5 16.5t17.5 43.5v120h167z" unicode="ė" horiz-adv-x="557"/>
<glyph glyph-name="Eogonek" d="M375 -82l18 -44q-45 -20 -76 -20q-41 0 -64.5 19t-23.5 50q0 37 43 77h-219v828h370v-138h-203v-194h197v-138h-197v-220h203v-138h-86q-44 -41 -44 -65q0 -28 32 -28q21 0 50 11z" unicode="Ę" horiz-adv-x="463"/>
<glyph glyph-name="eogonek" d="M346 496v150q0 27 -18 44t-49 17q-30 0 -47.5 -16.5t-17.5 -43.5v-151h132zM389 -92l18 -44q-45 -20 -76 -20q-41 0 -64.5 19t-23.5 50q0 37 36 70q-109 1 -170.5 41.5t-61.5 118.5v531q0 80 62.5 125.5t169.5 45.5q108 0 171 -45.5t63 -125.5v-316h-299v-176 q0 -27 18 -44t48 -17q31 0 48.5 16.5t17.5 43.5v120h167v-158q0 -66 -43 -105t-122 -50q-41 -41 -41 -63q0 -28 32 -28q21 0 50 11z" unicode="ę" horiz-adv-x="557"/>
<glyph glyph-name="Ecaron" d="M304 877h-103l-84 124h104l31 -57l29 57h99zM423 0h-370v828h370v-138h-203v-194h197v-138h-197v-220h203v-138z" unicode="Ě" horiz-adv-x="463"/>
<glyph glyph-name="ecaron" d="M335 877h-103l-84 124h104l31 -57l29 57h99zM346 496v150q0 27 -18 44t-49 17q-30 0 -47.5 -16.5t-17.5 -43.5v-151h132zM513 301v-158q0 -79 -61.5 -119.5t-171.5 -40.5q-109 0 -171 40.5t-62 119.5v531q0 80 62.5 125.5t169.5 45.5q108 0 171 -45.5t63 -125.5v-316 h-299v-176q0 -27 18 -44t48 -17q31 0 48.5 16.5t17.5 43.5v120h167z" unicode="ě" horiz-adv-x="557"/>
<glyph glyph-name="Gcircumflex" d="M513 0h-69l-11 61q-45 -78 -167 -78q-97 0 -158 45t-61 135v511q0 80 62.5 125.5t169.5 45.5q108 0 171 -45.5t63 -125.5v-144h-167v116q0 27 -18 44t-49 17q-30 0 -47.5 -16.5t-17.5 -43.5v-445q0 -81 67 -81q30 0 47.5 16.5t17.5 43.5v149h-67v138h234v-468zM411 877 h-99l-29 57l-31 -57h-104l84 124h103z" unicode="Ĝ" horiz-adv-x="559"/>
<glyph glyph-name="gcircumflex" d="M513 0h-69l-11 61q-45 -78 -167 -78q-97 0 -158 45t-61 135v511q0 80 62.5 125.5t169.5 45.5q108 0 171 -45.5t63 -125.5v-144h-167v116q0 27 -18 44t-49 17q-30 0 -47.5 -16.5t-17.5 -43.5v-445q0 -81 67 -81q30 0 47.5 16.5t17.5 43.5v149h-67v138h234v-468zM411 877 h-99l-29 57l-31 -57h-104l84 124h103z" unicode="ĝ" horiz-adv-x="559"/>
<glyph glyph-name="Gbreve" d="M513 0h-69l-11 61q-45 -78 -167 -78q-97 0 -158 45t-61 135v511q0 80 62.5 125.5t169.5 45.5q108 0 171 -45.5t63 -125.5v-144h-167v116q0 27 -18 44t-49 17q-30 0 -47.5 -16.5t-17.5 -43.5v-445q0 -81 67 -81q30 0 47.5 16.5t17.5 43.5v149h-67v138h234v-468zM356 1017 h87q0 -140 -163 -140q-82 0 -122.5 36.5t-40.5 103.5h87q0 -28 19.5 -45t56.5 -17q76 0 76 62z" unicode="Ğ" horiz-adv-x="559"/>
<glyph glyph-name="gbreve" d="M513 0h-69l-11 61q-45 -78 -167 -78q-97 0 -158 45t-61 135v511q0 80 62.5 125.5t169.5 45.5q108 0 171 -45.5t63 -125.5v-144h-167v116q0 27 -18 44t-49 17q-30 0 -47.5 -16.5t-17.5 -43.5v-445q0 -81 67 -81q30 0 47.5 16.5t17.5 43.5v149h-67v138h234v-468zM356 1017 h87q0 -140 -163 -140q-82 0 -122.5 36.5t-40.5 103.5h87q0 -28 19.5 -45t56.5 -17q76 0 76 62z" unicode="ğ" horiz-adv-x="559"/>
<glyph glyph-name="Gdotaccent" d="M513 0h-69l-11 61q-45 -78 -167 -78q-97 0 -158 45t-61 135v511q0 80 62.5 125.5t169.5 45.5q108 0 171 -45.5t63 -125.5v-144h-167v116q0 27 -18 44t-49 17q-30 0 -47.5 -16.5t-17.5 -43.5v-445q0 -81 67 -81q30 0 47.5 16.5t17.5 43.5v149h-67v138h234v-468zM337 878 h-115v114h115v-114z" unicode="Ġ" horiz-adv-x="559"/>
<glyph glyph-name="gdotaccent" d="M513 0h-69l-11 61q-45 -78 -167 -78q-97 0 -158 45t-61 135v511q0 80 62.5 125.5t169.5 45.5q108 0 171 -45.5t63 -125.5v-144h-167v116q0 27 -18 44t-49 17q-30 0 -47.5 -16.5t-17.5 -43.5v-445q0 -81 67 -81q30 0 47.5 16.5t17.5 43.5v149h-67v138h234v-468zM337 878 h-115v114h115v-114z" unicode="ġ" horiz-adv-x="559"/>
<glyph glyph-name="Gcommaaccent" d="M513 0h-69l-11 61q-45 -78 -167 -78q-97 0 -158 45t-61 135v511q0 80 62.5 125.5t169.5 45.5q108 0 171 -45.5t63 -125.5v-144h-167v116q0 27 -18 44t-49 17q-30 0 -47.5 -16.5t-17.5 -43.5v-445q0 -81 67 -81q30 0 47.5 16.5t17.5 43.5v149h-67v138h234v-468zM363 -230 l-167 -120l73 120h-73v172h167v-172z" unicode="Ģ" horiz-adv-x="559"/>
<glyph glyph-name="gcommaaccent" d="M513 0h-69l-11 61q-45 -78 -167 -78q-97 0 -158 45t-61 135v511q0 80 62.5 125.5t169.5 45.5q108 0 171 -45.5t63 -125.5v-144h-167v116q0 27 -18 44t-49 17q-30 0 -47.5 -16.5t-17.5 -43.5v-445q0 -81 67 -81q30 0 47.5 16.5t17.5 43.5v149h-67v138h234v-468zM363 -230 l-167 -120l73 120h-73v172h167v-172z" unicode="ģ" horiz-adv-x="559"/>
<glyph glyph-name="Hcircumflex" d="M417 877h-99l-29 57l-31 -57h-104l84 124h103zM519 0h-167v358h-132v-358h-167v828h167v-332h132v332h167v-828z" unicode="Ĥ" horiz-adv-x="572"/>
<glyph glyph-name="hcircumflex" d="M417 877h-99l-29 57l-31 -57h-104l84 124h103zM519 0h-167v358h-132v-358h-167v828h167v-332h132v332h167v-828z" unicode="ĥ" horiz-adv-x="572"/>
<glyph glyph-name="Hbar" d="M357 496v102h-132v-102h132zM524 0h-167v358h-132v-358h-167v598h-50v118h50v112h167v-112h132v112h167v-112h50v-118h-50v-598z" unicode="Ħ" horiz-adv-x="582"/>
<glyph glyph-name="hbar" d="M357 496v102h-132v-102h132zM524 0h-167v358h-132v-358h-167v598h-50v118h50v112h167v-112h132v112h167v-112h50v-118h-50v-598z" unicode="ħ" horiz-adv-x="582"/>
<glyph glyph-name="Itilde" d="M226 984l66 -48q-38 -76 -98 -76q-26 0 -55.5 20t-41.5 20q-32 0 -51 -42l-65 43q24 41 48.5 61t56.5 20q25 0 51.5 -17.5t42.5 -17.5q34 0 46 37zM220 0h-167v828h167v-828z" unicode="Ĩ" horiz-adv-x="273"/>
<glyph glyph-name="itilde" d="M226 984l66 -48q-38 -76 -98 -76q-26 0 -55.5 20t-41.5 20q-32 0 -51 -42l-65 43q24 41 48.5 61t56.5 20q25 0 51.5 -17.5t42.5 -17.5q34 0 46 37zM220 0h-167v828h167v-828z" unicode="ĩ" horiz-adv-x="273"/>
<glyph glyph-name="Imacron" d="M320 885h-366v118h366v-118zM220 0h-167v828h167v-828z" unicode="Ī" horiz-adv-x="273"/>
<glyph glyph-name="imacron" d="M320 885h-366v118h366v-118zM220 0h-167v828h167v-828z" unicode="ī" horiz-adv-x="273"/>
<glyph glyph-name="Ibreve" d="M213 1017h87q0 -140 -163 -140q-82 0 -122.5 36.5t-40.5 103.5h87q0 -28 19.5 -45t56.5 -17q76 0 76 62zM220 0h-167v828h167v-828z" unicode="Ĭ" horiz-adv-x="273"/>
<glyph glyph-name="ibreve" d="M213 1017h87q0 -140 -163 -140q-82 0 -122.5 36.5t-40.5 103.5h87q0 -28 19.5 -45t56.5 -17q76 0 76 62zM220 0h-167v828h167v-828z" unicode="ĭ" horiz-adv-x="273"/>
<glyph glyph-name="Iogonek" d="M211 -82l18 -44q-45 -20 -76 -20q-41 0 -64.5 19t-23.5 50q0 37 43 77h-55v828h167v-828h-47q-44 -41 -44 -65q0 -28 32 -28q21 0 50 11z" unicode="Į" horiz-adv-x="273"/>
<glyph glyph-name="iogonek" d="M211 -82l18 -44q-45 -20 -76 -20q-41 0 -64.5 19t-23.5 50q0 37 43 77h-55v828h167v-828h-47q-44 -41 -44 -65q0 -28 32 -28q21 0 50 11z" unicode="į" horiz-adv-x="273"/>
<glyph glyph-name="Idotaccent" d="M220 878h-167v114h167v-114zM220 0h-167v828h167v-828z" unicode="İ" horiz-adv-x="273"/>
<glyph glyph-name="dotlessi" d="M220 0h-167v828h167v-828z" unicode="ı" horiz-adv-x="273"/>
<glyph glyph-name="IJ" d="M554 181v647h167v-685q0 -160 -211 -160q-212 0 -212 160v215h167v-176q0 -31 8.5 -46t36.5 -15t36 14.5t8 45.5zM220 0h-167v828h167v-828z" unicode="Ĳ" horiz-adv-x="772"/>
<glyph glyph-name="ij" d="M554 181v647h167v-685q0 -160 -211 -160q-212 0 -212 160v215h167v-176q0 -31 8.5 -46t36.5 -15t36 14.5t8 45.5zM220 0h-167v828h167v-828z" unicode="ĳ" horiz-adv-x="772"/>
<glyph glyph-name="Jcircumflex" d="M497 877h-99l-29 57l-31 -57h-104l84 124h103zM281 181v647h167v-685q0 -160 -211 -160q-212 0 -212 160v215h167v-176q0 -31 8.5 -46t36.5 -15t36 14.5t8 45.5z" unicode="Ĵ" horiz-adv-x="499"/>
<glyph glyph-name="jcircumflex" d="M497 877h-99l-29 57l-31 -57h-104l84 124h103zM281 181v647h167v-685q0 -160 -211 -160q-212 0 -212 160v215h167v-176q0 -31 8.5 -46t36.5 -15t36 14.5t8 45.5z" unicode="ĵ" horiz-adv-x="499"/>
<glyph glyph-name="Kcommaaccent" d="M356 -230l-167 -120l73 120h-73v172h167v-172zM548 0h-167l-161 307v-307h-167v828h167v-305l131 305h167l-184 -414z" unicode="Ķ" horiz-adv-x="534"/>
<glyph glyph-name="kcommaaccent" d="M367 -230l-167 -120l73 120h-73v172h167v-172zM520 0h-166v297q0 26 -18.5 43.5t-48.5 17.5h-67v-358h-167v828h167v-334h68q30 0 48 17t18 43v274h166v-260q0 -102 -102 -140q102 -38 102 -139v-289z" unicode="ķ" horiz-adv-x="565"/>
<glyph glyph-name="kgreenlandic" d="M520 0h-166v297q0 26 -18.5 43.5t-48.5 17.5h-67v-358h-167v828h167v-334h68q30 0 48 17t18 43v274h166v-260q0 -102 -102 -140q102 -38 102 -139v-289z" unicode="ĸ" horiz-adv-x="565"/>
<glyph glyph-name="Lacute" d="M178 877h-87l34 169h135zM400 0h-347v828h167v-690h180v-138z" unicode="Ĺ" horiz-adv-x="409"/>
<glyph glyph-name="lacute" d="M181 877h-87l34 169h135zM400 0h-347v828h167v-690h180v-138z" unicode="ĺ" horiz-adv-x="409"/>
<glyph glyph-name="Lcommaaccent" d="M304 -230l-167 -120l73 120h-73v172h167v-172zM400 0h-347v828h167v-690h180v-138z" unicode="Ļ" horiz-adv-x="409"/>
<glyph glyph-name="lcommaaccent" d="M304 -230l-167 -120l73 120h-73v172h167v-172zM400 0h-347v828h167v-690h180v-138z" unicode="ļ" horiz-adv-x="409"/>
<glyph glyph-name="Lcaron" d="M461 656l-167 -120l73 120h-73v172h167v-172zM400 0h-347v828h167v-690h180v-138z" unicode="Ľ" horiz-adv-x="481"/>
<glyph glyph-name="lcaron" d="M461 656l-167 -120l73 120h-73v172h167v-172zM400 0h-347v828h167v-690h180v-138z" unicode="ľ" horiz-adv-x="481"/>
<glyph glyph-name="Ldot" d="M445 328h-167v173h167v-173zM400 0h-347v828h167v-690h180v-138z" unicode="Ŀ" horiz-adv-x="470"/>
<glyph glyph-name="ldot" d="M445 328h-167v173h167v-173zM400 0h-347v828h167v-690h180v-138z" unicode="ŀ" horiz-adv-x="470"/>
<glyph glyph-name="Lslash" d="M416 0h-347v284l-60 -19v138l60 19v406h167v-354l123 39v-138l-123 -39v-198h180v-138z" unicode="Ł" horiz-adv-x="426"/>
<glyph glyph-name="lslash" d="M416 0h-347v284l-60 -19v138l60 19v406h167v-354l123 39v-138l-123 -39v-198h180v-138z" unicode="ł" horiz-adv-x="426"/>
<glyph glyph-name="Nacute" d="M347 877h-87l34 169h135zM530 0h-247l-80 649v-649h-150v828h251l76 -615v615h150v-828z" unicode="Ń" horiz-adv-x="583"/>
<glyph glyph-name="nacute" d="M53 828h157l10 -49q56 62 139 62q67 0 113.5 -46.5t46.5 -132.5v-662h-167v646q0 27 -18 44t-48 17q-29 0 -46.5 -15t-19.5 -40v-652h-167v828zM319 877h-87l34 169h135z" unicode="ń" horiz-adv-x="570"/>
<glyph glyph-name="Ncommaaccent" d="M375 -230l-167 -120l73 120h-73v172h167v-172zM530 0h-247l-80 649v-649h-150v828h251l76 -615v615h150v-828z" unicode="Ņ" horiz-adv-x="583"/>
<glyph glyph-name="ncommaaccent" d="M53 828h157l10 -49q56 62 139 62q67 0 113.5 -46.5t46.5 -132.5v-662h-167v646q0 27 -18 44t-48 17q-29 0 -46.5 -15t-19.5 -40v-652h-167v828zM367 -230l-167 -120l73 120h-73v172h167v-172z" unicode="ņ" horiz-adv-x="570"/>
<glyph glyph-name="Ncaron" d="M363 877h-103l-84 124h104l31 -57l29 57h99zM530 0h-247l-80 649v-649h-150v828h251l76 -615v615h150v-828z" unicode="Ň" horiz-adv-x="583"/>
<glyph glyph-name="ncaron" d="M53 828h157l10 -49q56 62 139 62q67 0 113.5 -46.5t46.5 -132.5v-662h-167v646q0 27 -18 44t-48 17q-29 0 -46.5 -15t-19.5 -40v-652h-167v828zM339 877h-103l-84 124h104l31 -57l29 57h99z" unicode="ň" horiz-adv-x="570"/>
<glyph glyph-name="Omacron" d="M463 885h-366v118h366v-118zM346 181v465q0 27 -18 44t-49 17q-30 0 -47.5 -16.5t-17.5 -43.5v-465q0 -27 18 -44t48 -17q31 0 48.5 16.5t17.5 43.5zM47 143v531q0 80 62.5 125.5t169.5 45.5q108 0 171 -45.5t63 -125.5v-531q0 -79 -61.5 -119.5t-171.5 -40.5 q-109 0 -171 40.5t-62 119.5z" unicode="Ō"/>
<glyph glyph-name="omacron" d="M463 885h-366v118h366v-118zM346 181v465q0 27 -18 44t-49 17q-30 0 -47.5 -16.5t-17.5 -43.5v-465q0 -27 18 -44t48 -17q31 0 48.5 16.5t17.5 43.5zM47 143v531q0 80 62.5 125.5t169.5 45.5q108 0 171 -45.5t63 -125.5v-531q0 -79 -61.5 -119.5t-171.5 -40.5 q-109 0 -171 40.5t-62 119.5z" unicode="ō"/>
<glyph glyph-name="Obreve" d="M356 1017h87q0 -140 -163 -140q-82 0 -122.5 36.5t-40.5 103.5h87q0 -28 19.5 -45t56.5 -17q76 0 76 62zM346 181v465q0 27 -18 44t-49 17q-30 0 -47.5 -16.5t-17.5 -43.5v-465q0 -27 18 -44t48 -17q31 0 48.5 16.5t17.5 43.5zM47 143v531q0 80 62.5 125.5t169.5 45.5 q108 0 171 -45.5t63 -125.5v-531q0 -79 -61.5 -119.5t-171.5 -40.5q-109 0 -171 40.5t-62 119.5z" unicode="Ŏ"/>
<glyph glyph-name="obreve" d="M356 1017h87q0 -140 -163 -140q-82 0 -122.5 36.5t-40.5 103.5h87q0 -28 19.5 -45t56.5 -17q76 0 76 62zM346 181v465q0 27 -18 44t-49 17q-30 0 -47.5 -16.5t-17.5 -43.5v-465q0 -27 18 -44t48 -17q31 0 48.5 16.5t17.5 43.5zM47 143v531q0 80 62.5 125.5t169.5 45.5 q108 0 171 -45.5t63 -125.5v-531q0 -79 -61.5 -119.5t-171.5 -40.5q-109 0 -171 40.5t-62 119.5z" unicode="ŏ"/>
<glyph glyph-name="Ohungarumlaut" d="M391 877h-87l34 169h135zM221 877h-87l34 169h135zM346 181v465q0 27 -18 44t-49 17q-30 0 -47.5 -16.5t-17.5 -43.5v-465q0 -27 18 -44t48 -17q31 0 48.5 16.5t17.5 43.5zM47 143v531q0 80 62.5 125.5t169.5 45.5q108 0 171 -45.5t63 -125.5v-531q0 -79 -61.5 -119.5 t-171.5 -40.5q-109 0 -171 40.5t-62 119.5z" unicode="Ő"/>
<glyph glyph-name="ohungarumlaut" d="M391 877h-87l34 169h135zM221 877h-87l34 169h135zM346 181v465q0 27 -18 44t-49 17q-30 0 -47.5 -16.5t-17.5 -43.5v-465q0 -27 18 -44t48 -17q31 0 48.5 16.5t17.5 43.5zM47 143v531q0 80 62.5 125.5t169.5 45.5q108 0 171 -45.5t63 -125.5v-531q0 -79 -61.5 -119.5 t-171.5 -40.5q-109 0 -171 40.5t-62 119.5z" unicode="ő"/>
<glyph glyph-name="OE" d="M346 191v445q0 27 -18 44t-49 17q-30 0 -47.5 -16.5t-17.5 -43.5v-445q0 -27 18 -44t48 -17q31 0 48.5 16.5t17.5 43.5zM716 0h-354q-44 -7 -82 -7q-109 0 -171 40.5t-62 119.5v511q0 80 62.5 125.5t169.5 45.5q36 0 76 -7h361v-138h-203v-194h197v-138h-197v-220h203 v-138z" unicode="Œ" horiz-adv-x="756"/>
<glyph glyph-name="oe" d="M645 496v150q0 27 -18 44t-49 17q-30 0 -47.5 -16.5t-17.5 -43.5v-151h132zM346 176v470q0 27 -18 44t-49 17q-30 0 -47.5 -16.5t-17.5 -43.5v-465q0 -27 18 -44t48 -17q29 0 46.5 15t19.5 40zM812 301v-158q0 -79 -61.5 -119.5t-171.5 -40.5q-89 0 -150 28 q-59 -28 -149 -28q-109 0 -171 40.5t-62 119.5v531q0 80 62.5 125.5t169.5 45.5q89 0 150 -33q60 33 149 33q108 0 171 -45.5t63 -125.5v-316h-299v-181q2 -25 19.5 -40.5t46.5 -15.5q31 0 48.5 16.5t17.5 43.5v120h167z" unicode="œ" horiz-adv-x="856"/>
<glyph glyph-name="Racute" d="M352 568v50q0 36 -12.5 54t-42.5 18h-77v-194h77q30 0 42.5 18t12.5 54zM528 0h-165q-11 26 -11 151v134q0 36 -12.5 54.5t-42.5 18.5h-77v-358h-167v828h325q40 0 67.5 -12t41.5 -27.5t21.5 -43.5t9 -48t1.5 -53v-24q0 -26 -1 -42.5t-5 -41.5t-13 -40.5t-23.5 -32.5 t-39.5 -26.5t-58 -12.5q39 -3 67 -16t42 -29t21 -43t8.5 -45.5t1.5 -49.5v-124q0 -93 9 -117zM307 877h-87l34 169h135z" unicode="Ŕ" horiz-adv-x="559"/>
<glyph glyph-name="racute" d="M352 568v50q0 36 -12.5 54t-42.5 18h-77v-194h77q30 0 42.5 18t12.5 54zM528 0h-165q-11 26 -11 151v134q0 36 -12.5 54.5t-42.5 18.5h-77v-358h-167v828h325q40 0 67.5 -12t41.5 -27.5t21.5 -43.5t9 -48t1.5 -53v-24q0 -26 -1 -42.5t-5 -41.5t-13 -40.5t-23.5 -32.5 t-39.5 -26.5t-58 -12.5q39 -3 67 -16t42 -29t21 -43t8.5 -45.5t1.5 -49.5v-124q0 -93 9 -117zM307 877h-87l34 169h135z" unicode="ŕ" horiz-adv-x="559"/>
<glyph glyph-name="Rcommaaccent" d="M352 568v50q0 36 -12.5 54t-42.5 18h-77v-194h77q30 0 42.5 18t12.5 54zM528 0h-165q-11 26 -11 151v134q0 36 -12.5 54.5t-42.5 18.5h-77v-358h-167v828h325q40 0 67.5 -12t41.5 -27.5t21.5 -43.5t9 -48t1.5 -53v-24q0 -26 -1 -42.5t-5 -41.5t-13 -40.5t-23.5 -32.5 t-39.5 -26.5t-58 -12.5q39 -3 67 -16t42 -29t21 -43t8.5 -45.5t1.5 -49.5v-124q0 -93 9 -117zM367 -230l-167 -120l73 120h-73v172h167v-172z" unicode="Ŗ" horiz-adv-x="559"/>
<glyph glyph-name="rcommaaccent" d="M352 568v50q0 36 -12.5 54t-42.5 18h-77v-194h77q30 0 42.5 18t12.5 54zM528 0h-165q-11 26 -11 151v134q0 36 -12.5 54.5t-42.5 18.5h-77v-358h-167v828h325q40 0 67.5 -12t41.5 -27.5t21.5 -43.5t9 -48t1.5 -53v-24q0 -26 -1 -42.5t-5 -41.5t-13 -40.5t-23.5 -32.5 t-39.5 -26.5t-58 -12.5q39 -3 67 -16t42 -29t21 -43t8.5 -45.5t1.5 -49.5v-124q0 -93 9 -117zM367 -230l-167 -120l73 120h-73v172h167v-172z" unicode="ŗ" horiz-adv-x="559"/>
<glyph glyph-name="Rcaron" d="M352 568v50q0 36 -12.5 54t-42.5 18h-77v-194h77q30 0 42.5 18t12.5 54zM528 0h-165q-11 26 -11 151v134q0 36 -12.5 54.5t-42.5 18.5h-77v-358h-167v828h325q40 0 67.5 -12t41.5 -27.5t21.5 -43.5t9 -48t1.5 -53v-24q0 -26 -1 -42.5t-5 -41.5t-13 -40.5t-23.5 -32.5 t-39.5 -26.5t-58 -12.5q39 -3 67 -16t42 -29t21 -43t8.5 -45.5t1.5 -49.5v-124q0 -93 9 -117zM328 877h-103l-84 124h104l31 -57l29 57h99z" unicode="Ř" horiz-adv-x="559"/>
<glyph glyph-name="rcaron" d="M352 568v50q0 36 -12.5 54t-42.5 18h-77v-194h77q30 0 42.5 18t12.5 54zM528 0h-165q-11 26 -11 151v134q0 36 -12.5 54.5t-42.5 18.5h-77v-358h-167v828h325q40 0 67.5 -12t41.5 -27.5t21.5 -43.5t9 -48t1.5 -53v-24q0 -26 -1 -42.5t-5 -41.5t-13 -40.5t-23.5 -32.5 t-39.5 -26.5t-58 -12.5q39 -3 67 -16t42 -29t21 -43t8.5 -45.5t1.5 -49.5v-124q0 -93 9 -117zM328 877h-103l-84 124h104l31 -57l29 57h99z" unicode="ř" horiz-adv-x="559"/>
<glyph glyph-name="Sacute" d="M307 877h-87l34 169h135zM503 274v-131q0 -79 -62 -119.5t-172 -40.5q-109 0 -170.5 40.5t-61.5 119.5v158h167v-120q0 -27 17.5 -43.5t47.5 -16.5q31 0 49 17t18 44v68q0 37 -31 63.5t-75 45.5t-87.5 41.5t-74.5 64.5t-31 101v108q0 80 62.5 125.5t169.5 45.5 q108 0 171 -45.5t63 -125.5v-121h-167v93q0 27 -18 44t-49 17q-30 0 -47.5 -16.5t-17.5 -43.5v-49q0 -34 22 -57.5t55.5 -35.5t72 -29.5t72 -38t55.5 -62.5t22 -101z" unicode="Ś" horiz-adv-x="540"/>
<glyph glyph-name="sacute" d="M307 877h-87l34 169h135zM503 274v-131q0 -79 -62 -119.5t-172 -40.5q-109 0 -170.5 40.5t-61.5 119.5v158h167v-120q0 -27 17.5 -43.5t47.5 -16.5q31 0 49 17t18 44v68q0 37 -31 63.5t-75 45.5t-87.5 41.5t-74.5 64.5t-31 101v108q0 80 62.5 125.5t169.5 45.5 q108 0 171 -45.5t63 -125.5v-121h-167v93q0 27 -18 44t-49 17q-30 0 -47.5 -16.5t-17.5 -43.5v-49q0 -34 22 -57.5t55.5 -35.5t72 -29.5t72 -38t55.5 -62.5t22 -101z" unicode="ś" horiz-adv-x="540"/>
<glyph glyph-name="Scircumflex" d="M401 877h-99l-29 57l-31 -57h-104l84 124h103zM503 274v-131q0 -79 -62 -119.5t-172 -40.5q-109 0 -170.5 40.5t-61.5 119.5v158h167v-120q0 -27 17.5 -43.5t47.5 -16.5q31 0 49 17t18 44v68q0 37 -31 63.5t-75 45.5t-87.5 41.5t-74.5 64.5t-31 101v108q0 80 62.5 125.5 t169.5 45.5q108 0 171 -45.5t63 -125.5v-121h-167v93q0 27 -18 44t-49 17q-30 0 -47.5 -16.5t-17.5 -43.5v-49q0 -34 22 -57.5t55.5 -35.5t72 -29.5t72 -38t55.5 -62.5t22 -101z" unicode="Ŝ" horiz-adv-x="540"/>
<glyph glyph-name="scircumflex" d="M401 877h-99l-29 57l-31 -57h-104l84 124h103zM503 274v-131q0 -79 -62 -119.5t-172 -40.5q-109 0 -170.5 40.5t-61.5 119.5v158h167v-120q0 -27 17.5 -43.5t47.5 -16.5q31 0 49 17t18 44v68q0 37 -31 63.5t-75 45.5t-87.5 41.5t-74.5 64.5t-31 101v108q0 80 62.5 125.5 t169.5 45.5q108 0 171 -45.5t63 -125.5v-121h-167v93q0 27 -18 44t-49 17q-30 0 -47.5 -16.5t-17.5 -43.5v-49q0 -34 22 -57.5t55.5 -35.5t72 -29.5t72 -38t55.5 -62.5t22 -101z" unicode="ŝ" horiz-adv-x="540"/>
<glyph glyph-name="Scedilla" d="M256 -84h-11v68q-98 4 -153 44.5t-55 114.5v158h167v-120q0 -27 17.5 -43.5t47.5 -16.5q31 0 49 17t18 44v68q0 37 -31 63.5t-75 45.5t-87.5 41.5t-74.5 64.5t-31 101v108q0 80 62.5 125.5t169.5 45.5q108 0 171 -45.5t63 -125.5v-121h-167v93q0 27 -18 44t-49 17 q-30 0 -47.5 -16.5t-17.5 -43.5v-49q0 -34 22 -57.5t55.5 -35.5t72 -29.5t72 -38t55.5 -62.5t22 -101v-131q0 -73 -54 -113.5t-152 -45.5v-34q29 -1 46 -17t17 -41q0 -33 -27 -57.5t-66 -24.5q-30 0 -54 18t-33 51h65q9 -18 24 -18q25 0 25 26q0 29 -38 29z" unicode="Ş" horiz-adv-x="540"/>
<glyph glyph-name="scedilla" d="M256 -84h-11v68q-98 4 -153 44.5t-55 114.5v158h167v-120q0 -27 17.5 -43.5t47.5 -16.5q31 0 49 17t18 44v68q0 37 -31 63.5t-75 45.5t-87.5 41.5t-74.5 64.5t-31 101v108q0 80 62.5 125.5t169.5 45.5q108 0 171 -45.5t63 -125.5v-121h-167v93q0 27 -18 44t-49 17 q-30 0 -47.5 -16.5t-17.5 -43.5v-49q0 -34 22 -57.5t55.5 -35.5t72 -29.5t72 -38t55.5 -62.5t22 -101v-131q0 -73 -54 -113.5t-152 -45.5v-34q29 -1 46 -17t17 -41q0 -33 -27 -57.5t-66 -24.5q-30 0 -54 18t-33 51h65q9 -18 24 -18q25 0 25 26q0 29 -38 29z" unicode="ş" horiz-adv-x="540"/>
<glyph glyph-name="Scaron" d="M325 877h-103l-84 124h104l31 -57l29 57h99zM503 274v-131q0 -79 -62 -119.5t-172 -40.5q-109 0 -170.5 40.5t-61.5 119.5v158h167v-120q0 -27 17.5 -43.5t47.5 -16.5q31 0 49 17t18 44v68q0 37 -31 63.5t-75 45.5t-87.5 41.5t-74.5 64.5t-31 101v108q0 80 62.5 125.5 t169.5 45.5q108 0 171 -45.5t63 -125.5v-121h-167v93q0 27 -18 44t-49 17q-30 0 -47.5 -16.5t-17.5 -43.5v-49q0 -34 22 -57.5t55.5 -35.5t72 -29.5t72 -38t55.5 -62.5t22 -101z" unicode="Š" horiz-adv-x="540"/>
<glyph glyph-name="scaron" d="M325 877h-103l-84 124h104l31 -57l29 57h99zM503 274v-131q0 -79 -62 -119.5t-172 -40.5q-109 0 -170.5 40.5t-61.5 119.5v158h167v-120q0 -27 17.5 -43.5t47.5 -16.5q31 0 49 17t18 44v68q0 37 -31 63.5t-75 45.5t-87.5 41.5t-74.5 64.5t-31 101v108q0 80 62.5 125.5 t169.5 45.5q108 0 171 -45.5t63 -125.5v-121h-167v93q0 27 -18 44t-49 17q-30 0 -47.5 -16.5t-17.5 -43.5v-49q0 -34 22 -57.5t55.5 -35.5t72 -29.5t72 -38t55.5 -62.5t22 -101z" unicode="š" horiz-adv-x="540"/>
<glyph glyph-name="Tcommaaccent" d="M291 -230l-167 -120l73 120h-73v172h167v-172zM291 0h-167v690h-112v138h392v-138h-113v-690z" unicode="Ţ" horiz-adv-x="416"/>
<glyph glyph-name="tcommaaccent" d="M291 -230l-167 -120l73 120h-73v172h167v-172zM291 0h-167v690h-112v138h392v-138h-113v-690z" unicode="ţ" horiz-adv-x="416"/>
<glyph glyph-name="Tcaron" d="M263 877h-103l-84 124h104l31 -57l29 57h99zM291 0h-167v690h-112v138h392v-138h-113v-690z" unicode="Ť" horiz-adv-x="416"/>
<glyph glyph-name="tcaron" d="M263 877h-103l-84 124h104l31 -57l29 57h99zM291 0h-167v690h-112v138h392v-138h-113v-690z" unicode="ť" horiz-adv-x="416"/>
<glyph glyph-name="Tbar" d="M304 0h-167v410h-99v118h99v162h-112v138h392v-138h-113v-162h100v-118h-100v-410z" unicode="Ŧ" horiz-adv-x="442"/>
<glyph glyph-name="tbar" d="M304 0h-167v410h-99v118h99v162h-112v138h392v-138h-113v-162h100v-118h-100v-410z" unicode="ŧ" horiz-adv-x="442"/>
<glyph glyph-name="Utilde" d="M373 984l66 -48q-38 -76 -98 -76q-26 0 -55.5 20t-41.5 20q-32 0 -51 -42l-65 43q24 41 48.5 61t56.5 20q25 0 51.5 -17.5t42.5 -17.5q34 0 46 37zM350 181v647h167v-685q0 -79 -61.5 -119.5t-171.5 -40.5q-109 0 -171 40.5t-62 119.5v685h167v-646q0 -27 18 -44t48 -17 q31 0 48.5 16.5t17.5 43.5z" unicode="Ũ" horiz-adv-x="568"/>
<glyph glyph-name="utilde" d="M517 0h-157l-10 49q-56 -62 -139 -62q-67 0 -113.5 46.5t-46.5 132.5v662h167v-646q0 -27 18 -44t48 -17q29 0 46.5 15t19.5 40v652h167v-828zM376 984l66 -48q-38 -76 -98 -76q-26 0 -55.5 20t-41.5 20q-32 0 -51 -42l-65 43q24 41 48.5 61t56.5 20q25 0 51.5 -17.5 t42.5 -17.5q34 0 46 37z" unicode="ũ" horiz-adv-x="570"/>
<glyph glyph-name="Umacron" d="M467 885h-366v118h366v-118zM350 181v647h167v-685q0 -79 -61.5 -119.5t-171.5 -40.5q-109 0 -171 40.5t-62 119.5v685h167v-646q0 -27 18 -44t48 -17q31 0 48.5 16.5t17.5 43.5z" unicode="Ū" horiz-adv-x="568"/>
<glyph glyph-name="umacron" d="M517 0h-157l-10 49q-56 -62 -139 -62q-67 0 -113.5 46.5t-46.5 132.5v662h167v-646q0 -27 18 -44t48 -17q29 0 46.5 15t19.5 40v652h167v-828zM469 885h-366v118h366v-118z" unicode="ū" horiz-adv-x="570"/>
<glyph glyph-name="Ubreve" d="M360 1017h87q0 -140 -163 -140q-82 0 -122.5 36.5t-40.5 103.5h87q0 -28 19.5 -45t56.5 -17q76 0 76 62zM350 181v647h167v-685q0 -79 -61.5 -119.5t-171.5 -40.5q-109 0 -171 40.5t-62 119.5v685h167v-646q0 -27 18 -44t48 -17q31 0 48.5 16.5t17.5 43.5z" unicode="Ŭ" horiz-adv-x="568"/>
<glyph glyph-name="ubreve" d="M517 0h-157l-10 49q-56 -62 -139 -62q-67 0 -113.5 46.5t-46.5 132.5v662h167v-646q0 -27 18 -44t48 -17q29 0 46.5 15t19.5 40v652h167v-828zM362 1017h87q0 -140 -163 -140q-82 0 -122.5 36.5t-40.5 103.5h87q0 -28 19.5 -45t56.5 -17q76 0 76 62z" unicode="ŭ" horiz-adv-x="570"/>
<glyph glyph-name="Uring" d="M328 940q0 18 -12 29.5t-33 11.5q-20 0 -31.5 -11t-11.5 -29q0 -20 12 -32t32 -12q21 0 32.5 11.5t11.5 31.5zM380 944v-16q0 -41 -21.5 -60t-74.5 -19q-52 0 -74 19t-22 60v16q0 42 22 63.5t73 21.5q97 0 97 -85zM350 181v647h167v-685q0 -79 -61.5 -119.5t-171.5 -40.5 q-109 0 -171 40.5t-62 119.5v685h167v-646q0 -27 18 -44t48 -17q31 0 48.5 16.5t17.5 43.5z" unicode="Ů" horiz-adv-x="568"/>
<glyph glyph-name="uring" d="M517 0h-157l-10 49q-56 -62 -139 -62q-67 0 -113.5 46.5t-46.5 132.5v662h167v-646q0 -27 18 -44t48 -17q29 0 46.5 15t19.5 40v652h167v-828zM330 940q0 18 -12 29.5t-33 11.5q-20 0 -31.5 -11t-11.5 -29q0 -20 12 -32t32 -12q21 0 32.5 11.5t11.5 31.5zM382 944v-16 q0 -41 -21.5 -60t-74.5 -19q-52 0 -74 19t-22 60v16q0 42 22 63.5t73 21.5q97 0 97 -85z" unicode="ů" horiz-adv-x="570"/>
<glyph glyph-name="Uhungarumlaut" d="M408 877h-87l34 169h135zM238 877h-87l34 169h135zM350 181v647h167v-685q0 -79 -61.5 -119.5t-171.5 -40.5q-109 0 -171 40.5t-62 119.5v685h167v-646q0 -27 18 -44t48 -17q31 0 48.5 16.5t17.5 43.5z" unicode="Ű" horiz-adv-x="568"/>
<glyph glyph-name="uhungarumlaut" d="M517 0h-157l-10 49q-56 -62 -139 -62q-67 0 -113.5 46.5t-46.5 132.5v662h167v-646q0 -27 18 -44t48 -17q29 0 46.5 15t19.5 40v652h167v-828zM411 877h-87l34 169h135zM241 877h-87l34 169h135z" unicode="ű" horiz-adv-x="570"/>
<glyph glyph-name="Uogonek" d="M364 -92l18 -44q-45 -20 -76 -20q-41 0 -64.5 19t-23.5 50q0 36 37 71q-96 5 -150 45.5t-54 113.5v685h167v-646q0 -27 18 -44t48 -17q31 0 48.5 16.5t17.5 43.5v647h167v-685q0 -72 -52 -112.5t-146 -46.5q-37 -37 -37 -59q0 -28 32 -28q21 0 50 11z" unicode="Ų" horiz-adv-x="568"/>
<glyph glyph-name="uogonek" d="M462 -82l18 -44q-45 -20 -76 -20q-41 0 -64.5 19.5t-23.5 50.5q0 37 44 76l-10 49q-56 -62 -139 -62q-67 0 -113.5 46.5t-46.5 132.5v662h167v-646q0 -27 18 -44t48 -17q29 0 46.5 15t19.5 40v652h167v-828q-67 0 -102 -22.5t-35 -45.5q0 -10 9 -17.5t25 -7.5q19 0 48 11 z" unicode="ų" horiz-adv-x="570"/>
<glyph glyph-name="Wcircumflex" d="M528 877h-99l-29 57l-31 -57h-104l84 124h103zM693 0h-247l-50 616l-48 -616h-247l-75 828h178l42 -691l53 691h196l53 -691l41 691h179z" unicode="Ŵ" horiz-adv-x="794"/>
<glyph glyph-name="wcircumflex" d="M528 877h-99l-29 57l-31 -57h-104l84 124h103zM693 0h-247l-50 616l-48 -616h-247l-75 828h178l42 -691l53 691h196l53 -691l41 691h179z" unicode="ŵ" horiz-adv-x="794"/>
<glyph glyph-name="Ycircumflex" d="M366 877h-99l-29 57l-31 -57h-104l84 124h103zM318 0h-166v258l-158 570h159l81 -360l82 360h160l-158 -577v-251z" unicode="Ŷ" horiz-adv-x="471"/>
<glyph glyph-name="ycircumflex" d="M344 181v188q-50 -42 -139 -42q-67 0 -113.5 46.5t-46.5 132.5v205q0 93 -9 117h165q11 -26 11 -151v-140q0 -27 18 -44t48 -17q29 0 46.5 15t19.5 40v297h167v-685q0 -79 -61.5 -119.5t-171.5 -40.5q-109 0 -171 40.5t-62 119.5v157h167v-118q0 -27 18 -44t48 -17 q31 0 48.5 16.5t17.5 43.5zM409 877h-99l-29 57l-31 -57h-104l84 124h103z" unicode="ŷ" horiz-adv-x="562"/>
<glyph glyph-name="Ydieresis" d="M386 878h-115v114h115v-114zM193 878h-113v114h113v-114zM318 0h-166v258l-158 570h159l81 -360l82 360h160l-158 -577v-251z" unicode="Ÿ" horiz-adv-x="471"/>
<glyph glyph-name="Zacute" d="M449 0h-419v138l250 552h-247v138h419v-138l-250 -552h247v-138zM284 877h-87l34 169h135z" unicode="Ź" horiz-adv-x="482"/>
<glyph glyph-name="zacute" d="M449 0h-419v138l250 552h-247v138h419v-138l-250 -552h247v-138zM284 877h-87l34 169h135z" unicode="ź" horiz-adv-x="482"/>
<glyph glyph-name="Zdotaccent" d="M449 0h-419v138l250 552h-247v138h419v-138l-250 -552h247v-138zM298 878h-115v114h115v-114z" unicode="Ż" horiz-adv-x="482"/>
<glyph glyph-name="zdotaccent" d="M449 0h-419v138l250 552h-247v138h419v-138l-250 -552h247v-138zM298 878h-115v114h115v-114z" unicode="ż" horiz-adv-x="482"/>
<glyph glyph-name="Zcaron" d="M449 0h-419v138l250 552h-247v138h419v-138l-250 -552h247v-138zM296 877h-103l-84 124h104l31 -57l29 57h99z" unicode="Ž" horiz-adv-x="482"/>
<glyph glyph-name="zcaron" d="M449 0h-419v138l250 552h-247v138h419v-138l-250 -552h247v-138zM296 877h-103l-84 124h104l31 -57l29 57h99z" unicode="ž" horiz-adv-x="482"/>
<glyph glyph-name="florin" d="M219 690h-167v138h167v-138zM219 0h-167v632h167v-632z" unicode="ƒ" horiz-adv-x="271"/>
<glyph glyph-name="AEacute" d="M337 306v408l-100 -408h100zM707 0h-370v168h-136l-39 -168h-168l209 828h504v-138h-203v-194h197v-138h-197v-220h203v-138zM488 877h-87l34 169h135z" unicode="Ǽ" horiz-adv-x="747"/>
<glyph glyph-name="aeacute" d="M639 496v150q0 27 -18 44t-49 17q-29 0 -46 -15t-19 -40v-156h132zM340 176v205q-7 -1 -28.5 -4t-28.5 -4.5t-23 -5.5t-22 -8.5t-15 -11.5t-12 -17t-3 -23v-125q0 -27 18 -44t48 -17q29 0 46.5 15t19.5 40zM806 301v-158q0 -79 -61.5 -119.5t-171.5 -40.5q-165 0 -215 87 q-11 -25 -31 -42.5t-43 -25.5t-43 -11.5t-40 -3.5q-67 0 -113.5 46.5t-46.5 132.5v194q0 39 13 66t31.5 41.5t52 24t60 12t71 7t71.5 8.5v128q0 27 -17.5 43.5t-48.5 16.5q-30 0 -48 -17t-18 -44v-93h-167v121q0 80 63 125.5t170 45.5q89 0 149 -33q61 33 149 33 q108 0 171 -45.5t63 -125.5v-316h-299v-181q2 -25 19.5 -40.5t46.5 -15.5q31 0 48.5 16.5t17.5 43.5v120h167zM467 877h-87l34 169h135z" unicode="ǽ" horiz-adv-x="850"/>
<glyph glyph-name="Oslashacute" d="M214 244l118 441q-17 22 -53 22q-30 0 -47.5 -16.5t-17.5 -43.5v-403zM346 181v455l-128 -477q13 -38 62 -38q31 0 48.5 16.5t17.5 43.5zM162 -50h-27l14 53q-102 40 -102 140v531q0 80 62.5 125.5t169.5 45.5q49 0 93 -11l12 44h27l-14 -52q55 -20 85.5 -59t30.5 -93 v-531q0 -79 -61.5 -119.5t-171.5 -40.5q-61 0 -106 13zM325 877h-87l34 169h135z" unicode="Ǿ"/>
<glyph glyph-name="oslashacute" d="M214 244l118 441q-17 22 -53 22q-30 0 -47.5 -16.5t-17.5 -43.5v-403zM346 181v455l-128 -477q13 -38 62 -38q31 0 48.5 16.5t17.5 43.5zM162 -50h-27l14 53q-102 40 -102 140v531q0 80 62.5 125.5t169.5 45.5q49 0 93 -11l12 44h27l-14 -52q55 -20 85.5 -59t30.5 -93 v-531q0 -79 -61.5 -119.5t-171.5 -40.5q-61 0 -106 13zM325 877h-87l34 169h135z" unicode="ǿ"/>
<glyph glyph-name="Scommaaccent" d="M353 -230l-167 -120l73 120h-73v172h167v-172zM503 274v-131q0 -79 -62 -119.5t-172 -40.5q-109 0 -170.5 40.5t-61.5 119.5v158h167v-120q0 -27 17.5 -43.5t47.5 -16.5q31 0 49 17t18 44v68q0 37 -31 63.5t-75 45.5t-87.5 41.5t-74.5 64.5t-31 101v108q0 80 62.5 125.5 t169.5 45.5q108 0 171 -45.5t63 -125.5v-121h-167v93q0 27 -18 44t-49 17q-30 0 -47.5 -16.5t-17.5 -43.5v-49q0 -34 22 -57.5t55.5 -35.5t72 -29.5t72 -38t55.5 -62.5t22 -101z" unicode="Ș" horiz-adv-x="540"/>
<glyph glyph-name="scommaaccent" d="M353 -230l-167 -120l73 120h-73v172h167v-172zM503 274v-131q0 -79 -62 -119.5t-172 -40.5q-109 0 -170.5 40.5t-61.5 119.5v158h167v-120q0 -27 17.5 -43.5t47.5 -16.5q31 0 49 17t18 44v68q0 37 -31 63.5t-75 45.5t-87.5 41.5t-74.5 64.5t-31 101v108q0 80 62.5 125.5 t169.5 45.5q108 0 171 -45.5t63 -125.5v-121h-167v93q0 27 -18 44t-49 17q-30 0 -47.5 -16.5t-17.5 -43.5v-49q0 -34 22 -57.5t55.5 -35.5t72 -29.5t72 -38t55.5 -62.5t22 -101z" unicode="ș" horiz-adv-x="540"/>
<glyph glyph-name="dotlessj" d="M281 181v647h167v-685q0 -160 -211 -160q-212 0 -212 160v215h167v-176q0 -31 8.5 -46t36.5 -15t36 14.5t8 45.5z" unicode="ȷ" horiz-adv-x="499"/>
<glyph glyph-name="circumflex" d="M283 877h-99l-29 57l-31 -57h-104l84 124h103z" unicode="ˆ" horiz-adv-x="303"/>
<glyph glyph-name="caron" d="M207 877h-103l-84 124h104l31 -57l29 57h99z" unicode="ˇ" horiz-adv-x="303"/>
<glyph glyph-name="uni02C9" d="M436 885h-366v118h366v-118z" unicode="ˉ" horiz-adv-x="506"/>
<glyph glyph-name="breve" d="M291 1017h87q0 -140 -163 -140q-82 0 -122.5 36.5t-40.5 103.5h87q0 -28 19.5 -45t56.5 -17q76 0 76 62z" unicode="˘" horiz-adv-x="426"/>
<glyph glyph-name="dotaccent" d="M145 878h-115v114h115v-114z" unicode="˙" horiz-adv-x="175"/>
<glyph glyph-name="ring" d="M257 940q0 18 -12 29.5t-33 11.5q-20 0 -31.5 -11t-11.5 -29q0 -20 12 -32t32 -12q21 0 32.5 11.5t11.5 31.5zM309 944v-16q0 -41 -21.5 -60t-74.5 -19q-52 0 -74 19t-22 60v16q0 42 22 63.5t73 21.5q97 0 97 -85z" unicode="˚" horiz-adv-x="426"/>
<glyph glyph-name="ogonek" d="M314 -82l18 -44q-45 -20 -76 -20q-41 0 -64.5 19t-23.5 50q0 38 47 80h64q-47 -45 -47 -68q0 -28 32 -28q21 0 50 11z" unicode="˛" horiz-adv-x="300"/>
<glyph glyph-name="tilde" d="M248 984l66 -48q-38 -76 -98 -76q-26 0 -55.5 20t-41.5 20q-32 0 -51 -42l-65 43q24 41 48.5 61t56.5 20q25 0 51.5 -17.5t42.5 -17.5q34 0 46 37z" unicode="˜" horiz-adv-x="317"/>
<glyph glyph-name="hungarumlaut" d="M277 877h-87l34 169h135zM107 877h-87l34 169h135z" unicode="˝" horiz-adv-x="379"/>
<glyph glyph-name="tonos" d="M107 877h-87l34 169h135z" unicode="΄" horiz-adv-x="209"/>
<glyph glyph-name="dieresistonos" d="M178 877h-87l29 169h135zM371 898h-115v114h115v-114zM78 898h-113v114h113v-114z" unicode="΅" horiz-adv-x="336"/>
<glyph glyph-name="Alphatonos" d="M408 306l-50 408l-50 -408h100zM612 0h-166l-21 168h-134l-20 -168h-167l109 828h290zM88 659h-87l34 169h135z" unicode="Ά" horiz-adv-x="623"/>
<glyph glyph-name="Epsilontonos" d="M84 659h-87l34 169h135zM566 0h-370v828h370v-138h-203v-194h197v-138h-197v-220h203v-138z" unicode="Έ" horiz-adv-x="606"/>
<glyph glyph-name="Etatonos" d="M84 659h-87l34 169h135zM664 0h-167v358h-132v-358h-167v828h167v-332h132v332h167v-828z" unicode="Ή" horiz-adv-x="717"/>
<glyph glyph-name="Iotatonos" d="M84 659h-87l34 169h135zM365 0h-167v828h167v-828z" unicode="Ί" horiz-adv-x="418"/>
<glyph glyph-name="Omicrontonos" d="M474 181v465q0 27 -18 44t-49 17q-30 0 -47.5 -16.5t-17.5 -43.5v-465q0 -27 18 -44t48 -17q31 0 48.5 16.5t17.5 43.5zM175 143v531q0 80 62.5 125.5t169.5 45.5q108 0 171 -45.5t63 -125.5v-531q0 -79 -61.5 -119.5t-171.5 -40.5q-109 0 -171 40.5t-62 119.5zM85 659 h-87l34 169h135z" unicode="Ό" horiz-adv-x="688"/>
<glyph glyph-name="Upsilontonos" d="M515 0h-166v258l-158 570h159l81 -360l82 360h160l-158 -577v-251zM88 659h-87l34 169h135z" unicode="Ύ" horiz-adv-x="668"/>
<glyph glyph-name="Omegatonos" d="M84 659h-87l34 169h135zM392 0h-194v138h194v-138zM620 0h-194v138h194v-138zM426 168v139q22 4 34.5 20.5t12.5 38.5v280q0 27 -18 44t-49 17q-30 0 -47.5 -16.5t-17.5 -43.5v-280q0 -24 13.5 -40t37.5 -20v-139q-103 3 -160.5 43.5t-57.5 116.5v346q0 80 62.5 125.5 t169.5 45.5q108 0 171 -45.5t63 -125.5v-346q0 -75 -56.5 -115.5t-157.5 -44.5z" unicode="Ώ" horiz-adv-x="681"/>
<glyph glyph-name="iotadieresistonos" d="M146 877h-87l29 169h135zM339 898h-115v114h115v-114zM46 898h-113v114h113v-114zM220 0h-167v828h167v-828z" unicode="ΐ" horiz-adv-x="273"/>
<glyph glyph-name="Alpha" d="M315 306l-50 408l-50 -408h100zM519 0h-166l-21 168h-134l-20 -168h-167l109 828h290z" unicode="Α" horiz-adv-x="530"/>
<glyph glyph-name="Beta" d="M347 568v50q0 36 -12.5 54t-42.5 18h-72v-194h72q30 0 42.5 18t12.5 54zM352 210v75q0 36 -12.5 54.5t-42.5 18.5h-77v-220h77q30 0 42.5 18t12.5 54zM378 0h-325v828h320q40 0 67.5 -12t41.5 -27.5t21.5 -43.5t9 -48t1.5 -53v-24q0 -32 -1 -51.5t-8.5 -48.5t-21 -46 t-40 -31.5t-64.5 -18.5q39 -3 67 -16t42 -29t21 -43t8.5 -45.5t1.5 -49.5v-57q0 -33 -1.5 -53t-9 -48t-21.5 -43.5t-41.5 -27.5t-67.5 -12z" unicode="Β" horiz-adv-x="557"/>
<glyph glyph-name="Gamma" d="M220 0h-167v828h335v-138h-168v-690z" unicode="Γ" horiz-adv-x="397"/>
<glyph glyph-name="uni0394" d="M336 138l-70 573l-71 -573h141zM520 0h-508l108 828h290z" unicode="Δ" horiz-adv-x="531"/>
<glyph glyph-name="Epsilon" d="M423 0h-370v828h370v-138h-203v-194h197v-138h-197v-220h203v-138z" unicode="Ε" horiz-adv-x="463"/>
<glyph glyph-name="Zeta" d="M449 0h-419v138l250 552h-247v138h419v-138l-250 -552h247v-138z" unicode="Ζ" horiz-adv-x="482"/>
<glyph glyph-name="Eta" d="M519 0h-167v358h-132v-358h-167v828h167v-332h132v332h167v-828z" unicode="Η" horiz-adv-x="572"/>
<glyph glyph-name="Theta" d="M346 496v150q0 27 -18 44t-49 17q-30 0 -47.5 -16.5t-17.5 -43.5v-151h132zM346 181v177h-132v-176q0 -27 18 -44t48 -17q31 0 48.5 16.5t17.5 43.5zM47 143v531q0 80 62.5 125.5t169.5 45.5q108 0 171 -45.5t63 -125.5v-531q0 -79 -61.5 -119.5t-171.5 -40.5 q-109 0 -171 40.5t-62 119.5z" unicode="Θ"/>
<glyph glyph-name="Iota" d="M220 0h-167v828h167v-828z" unicode="Ι" horiz-adv-x="273"/>
<glyph glyph-name="Kappa" d="M548 0h-167l-161 307v-307h-167v828h167v-305l131 305h167l-184 -414z" unicode="Κ" horiz-adv-x="534"/>
<glyph glyph-name="Lambda" d="M519 0h-166l-87 705l-88 -705h-167l109 828h290z" unicode="Λ" horiz-adv-x="530"/>
<glyph glyph-name="Mu" d="M717 0h-149v649l-76 -649h-213l-76 649v-649h-150v828h262l70 -614l71 614h261v-828z" unicode="Μ" horiz-adv-x="770"/>
<glyph glyph-name="Nu" d="M530 0h-247l-80 649v-649h-150v828h251l76 -615v615h150v-828z" unicode="Ν" horiz-adv-x="583"/>
<glyph glyph-name="Xi" d="M395 342h-306v138h306v-138zM453 690h-422v138h422v-138zM453 0h-422v138h422v-138z" unicode="Ξ" horiz-adv-x="484"/>
<glyph glyph-name="Omicron" d="M346 181v465q0 27 -18 44t-49 17q-30 0 -47.5 -16.5t-17.5 -43.5v-465q0 -27 18 -44t48 -17q31 0 48.5 16.5t17.5 43.5zM47 143v531q0 80 62.5 125.5t169.5 45.5q108 0 171 -45.5t63 -125.5v-531q0 -79 -61.5 -119.5t-171.5 -40.5q-109 0 -171 40.5t-62 119.5z" unicode="Ο"/>
<glyph glyph-name="Pi" d="M519 0h-167v690h-132v-690h-167v828h466v-828z" unicode="Π" horiz-adv-x="572"/>
<glyph glyph-name="Rho" d="M352 519v99q0 36 -12.5 54t-42.5 18h-77v-244h77q30 0 42.5 18.5t12.5 54.5zM220 0h-167v828h325q40 0 67.5 -12t41.5 -27.5t21.5 -43.5t9 -48t1.5 -53v-152q0 -33 -1.5 -53t-9 -48t-21.5 -43.5t-41.5 -27.5t-67.5 -12h-158v-308z" unicode="Ρ" horiz-adv-x="550"/>
<glyph glyph-name="Sigma" d="M452 0h-422v138l175 277l-175 275v138h417v-138h-245l178 -278l-180 -274h252v-138z" unicode="Σ" horiz-adv-x="479"/>
<glyph glyph-name="Tau" d="M291 0h-167v690h-112v138h392v-138h-113v-690z" unicode="Τ" horiz-adv-x="416"/>
<glyph glyph-name="Upsilon" d="M318 0h-166v258l-158 570h159l81 -360l82 360h160l-158 -577v-251z" unicode="Υ" horiz-adv-x="471"/>
<glyph glyph-name="Phi" d="M311 237v346h-57q-30 0 -42.5 -18t-12.5 -54v-202q0 -36 12.5 -54t42.5 -18h57zM590 309v202q0 36 -12.5 54t-42.5 18h-57v-346h57q30 0 42.5 18t12.5 54zM478 -3h-167v101q-16 -2 -85 -2q-89 0 -141.5 43.5t-52.5 115.5v300q0 73 53 121t141 48q53 0 85 -2v109h167v-109 q30 2 85 2q88 0 141 -48t53 -121v-300q0 -72 -52.5 -115.5t-141.5 -43.5q-70 0 -85 2v-101z" unicode="Φ" horiz-adv-x="789"/>
<glyph glyph-name="Chi" d="M499 0h-167l-81 203l-80 -203h-167l164 414l-164 414h167l80 -203l81 203h167l-164 -414z" unicode="Χ" horiz-adv-x="503"/>
<glyph glyph-name="Psi" d="M485 -3h-167v241q-16 -2 -85 -2q-89 0 -141.5 43.5t-52.5 115.5v424h167v-370q0 -36 12.5 -54t42.5 -18h57v454h167v-454h57q30 0 42.5 18t12.5 54v370h167v-424q0 -72 -52.5 -115.5t-141.5 -43.5q-70 0 -85 2v-241z" unicode="Ψ" horiz-adv-x="803"/>
<glyph glyph-name="uni03A9" d="M259 0h-194v138h194v-138zM487 0h-194v138h194v-138zM293 168v139q22 4 34.5 20.5t12.5 38.5v280q0 27 -18 44t-49 17q-30 0 -47.5 -16.5t-17.5 -43.5v-280q0 -24 13.5 -40t37.5 -20v-139q-103 3 -160.5 43.5t-57.5 116.5v346q0 80 62.5 125.5t169.5 45.5 q108 0 171 -45.5t63 -125.5v-346q0 -75 -56.5 -115.5t-157.5 -44.5z" unicode="Ω" horiz-adv-x="548"/>
<glyph glyph-name="Iotadieresis" d="M290 878h-115v114h115v-114zM97 878h-113v114h113v-114zM220 0h-167v828h167v-828z" unicode="Ϊ" horiz-adv-x="273"/>
<glyph glyph-name="Upsilondieresis" d="M386 878h-115v114h115v-114zM193 878h-113v114h113v-114zM318 0h-166v258l-158 570h159l81 -360l82 360h160l-158 -577v-251z" unicode="Ϋ" horiz-adv-x="471"/>
<glyph glyph-name="alphatonos" d="M305 877h-87l34 169h135zM315 306l-50 408l-50 -408h100zM519 0h-166l-21 168h-134l-20 -168h-167l109 828h290z" unicode="ά" horiz-adv-x="530"/>
<glyph glyph-name="epsilontonos" d="M276 877h-87l34 169h135zM423 0h-370v828h370v-138h-203v-194h197v-138h-197v-220h203v-138z" unicode="έ" horiz-adv-x="463"/>
<glyph glyph-name="etatonos" d="M323 877h-87l34 169h135zM519 0h-167v358h-132v-358h-167v828h167v-332h132v332h167v-828z" unicode="ή" horiz-adv-x="572"/>
<glyph glyph-name="iotatonos" d="M178 877h-87l34 169h135zM220 0h-167v828h167v-828z" unicode="ί" horiz-adv-x="273"/>
<glyph glyph-name="upsilondieresistonos" d="M318 0h-166v258l-158 570h159l81 -360l82 360h160l-158 -577v-251zM247 877h-87l29 169h135zM440 898h-115v114h115v-114zM147 898h-113v114h113v-114z" unicode="ΰ" horiz-adv-x="471"/>
<glyph glyph-name="alpha" d="M315 306l-50 408l-50 -408h100zM519 0h-166l-21 168h-134l-20 -168h-167l109 828h290z" unicode="α" horiz-adv-x="530"/>
<glyph glyph-name="beta" d="M347 568v50q0 36 -12.5 54t-42.5 18h-72v-194h72q30 0 42.5 18t12.5 54zM352 210v75q0 36 -12.5 54.5t-42.5 18.5h-77v-220h77q30 0 42.5 18t12.5 54zM378 0h-325v828h320q40 0 67.5 -12t41.5 -27.5t21.5 -43.5t9 -48t1.5 -53v-24q0 -32 -1 -51.5t-8.5 -48.5t-21 -46 t-40 -31.5t-64.5 -18.5q39 -3 67 -16t42 -29t21 -43t8.5 -45.5t1.5 -49.5v-57q0 -33 -1.5 -53t-9 -48t-21.5 -43.5t-41.5 -27.5t-67.5 -12z" unicode="β" horiz-adv-x="557"/>
<glyph glyph-name="gamma" d="M220 0h-167v828h335v-138h-168v-690z" unicode="γ" horiz-adv-x="397"/>
<glyph glyph-name="delta" d="M336 138l-70 573l-71 -573h141zM520 0h-508l108 828h290z" unicode="δ" horiz-adv-x="531"/>
<glyph glyph-name="epsilon" d="M423 0h-370v828h370v-138h-203v-194h197v-138h-197v-220h203v-138z" unicode="ε" horiz-adv-x="463"/>
<glyph glyph-name="zeta" d="M449 0h-419v138l250 552h-247v138h419v-138l-250 -552h247v-138z" unicode="ζ" horiz-adv-x="482"/>
<glyph glyph-name="eta" d="M519 0h-167v358h-132v-358h-167v828h167v-332h132v332h167v-828z" unicode="η" horiz-adv-x="572"/>
<glyph glyph-name="theta" d="M346 496v150q0 27 -18 44t-49 17q-30 0 -47.5 -16.5t-17.5 -43.5v-151h132zM346 181v177h-132v-176q0 -27 18 -44t48 -17q31 0 48.5 16.5t17.5 43.5zM47 143v531q0 80 62.5 125.5t169.5 45.5q108 0 171 -45.5t63 -125.5v-531q0 -79 -61.5 -119.5t-171.5 -40.5 q-109 0 -171 40.5t-62 119.5z" unicode="θ"/>
<glyph glyph-name="iota" d="M220 0h-167v828h167v-828z" unicode="ι" horiz-adv-x="273"/>
<glyph glyph-name="kappa" d="M548 0h-167l-161 307v-307h-167v828h167v-305l131 305h167l-184 -414z" unicode="κ" horiz-adv-x="534"/>
<glyph glyph-name="lambda" d="M519 0h-166l-87 705l-88 -705h-167l109 828h290z" unicode="λ" horiz-adv-x="530"/>
<glyph glyph-name="uni03BC" d="M717 0h-149v649l-76 -649h-213l-76 649v-649h-150v828h262l70 -614l71 614h261v-828z" unicode="μ" horiz-adv-x="770"/>
<glyph glyph-name="nu" d="M530 0h-247l-80 649v-649h-150v828h251l76 -615v615h150v-828z" unicode="ν" horiz-adv-x="583"/>
<glyph glyph-name="xi" d="M395 342h-306v138h306v-138zM453 690h-422v138h422v-138zM453 0h-422v138h422v-138z" unicode="ξ" horiz-adv-x="484"/>
<glyph glyph-name="omicron" d="M346 181v465q0 27 -18 44t-49 17q-30 0 -47.5 -16.5t-17.5 -43.5v-465q0 -27 18 -44t48 -17q31 0 48.5 16.5t17.5 43.5zM47 143v531q0 80 62.5 125.5t169.5 45.5q108 0 171 -45.5t63 -125.5v-531q0 -79 -61.5 -119.5t-171.5 -40.5q-109 0 -171 40.5t-62 119.5z" unicode="ο"/>
<glyph glyph-name="pi" d="M519 0h-167v690h-132v-690h-167v828h466v-828z" unicode="π" horiz-adv-x="572"/>
<glyph glyph-name="rho" d="M352 519v99q0 36 -12.5 54t-42.5 18h-77v-244h77q30 0 42.5 18.5t12.5 54.5zM220 0h-167v828h325q40 0 67.5 -12t41.5 -27.5t21.5 -43.5t9 -48t1.5 -53v-152q0 -33 -1.5 -53t-9 -48t-21.5 -43.5t-41.5 -27.5t-67.5 -12h-158v-308z" unicode="ρ" horiz-adv-x="550"/>
<glyph glyph-name="sigma1" d="M452 0h-422v138l175 277l-175 275v138h417v-138h-245l178 -278l-180 -274h252v-138z" unicode="ς" horiz-adv-x="479"/>
<glyph glyph-name="sigma" d="M452 0h-422v138l175 277l-175 275v138h417v-138h-245l178 -278l-180 -274h252v-138z" unicode="σ" horiz-adv-x="479"/>
<glyph glyph-name="tau" d="M291 0h-167v690h-112v138h392v-138h-113v-690z" unicode="τ" horiz-adv-x="416"/>
<glyph glyph-name="upsilon" d="M318 0h-166v258l-158 570h159l81 -360l82 360h160l-158 -577v-251z" unicode="υ" horiz-adv-x="471"/>
<glyph glyph-name="phi" d="M311 237v346h-57q-30 0 -42.5 -18t-12.5 -54v-202q0 -36 12.5 -54t42.5 -18h57zM590 309v202q0 36 -12.5 54t-42.5 18h-57v-346h57q30 0 42.5 18t12.5 54zM478 -3h-167v101q-16 -2 -85 -2q-89 0 -141.5 43.5t-52.5 115.5v300q0 73 53 121t141 48q53 0 85 -2v109h167v-109 q30 2 85 2q88 0 141 -48t53 -121v-300q0 -72 -52.5 -115.5t-141.5 -43.5q-70 0 -85 2v-101z" unicode="φ" horiz-adv-x="789"/>
<glyph glyph-name="chi" d="M499 0h-167l-81 203l-80 -203h-167l164 414l-164 414h167l80 -203l81 203h167l-164 -414z" unicode="χ" horiz-adv-x="503"/>
<glyph glyph-name="psi" d="M485 -3h-167v241q-16 -2 -85 -2q-89 0 -141.5 43.5t-52.5 115.5v424h167v-370q0 -36 12.5 -54t42.5 -18h57v454h167v-454h57q30 0 42.5 18t12.5 54v370h167v-424q0 -72 -52.5 -115.5t-141.5 -43.5q-70 0 -85 2v-241z" unicode="ψ" horiz-adv-x="803"/>
<glyph glyph-name="omega" d="M259 0h-194v138h194v-138zM487 0h-194v138h194v-138zM293 168v139q22 4 34.5 20.5t12.5 38.5v280q0 27 -18 44t-49 17q-30 0 -47.5 -16.5t-17.5 -43.5v-280q0 -24 13.5 -40t37.5 -20v-139q-103 3 -160.5 43.5t-57.5 116.5v346q0 80 62.5 125.5t169.5 45.5 q108 0 171 -45.5t63 -125.5v-346q0 -75 -56.5 -115.5t-157.5 -44.5z" unicode="ω" horiz-adv-x="548"/>
<glyph glyph-name="iotadieresis" d="M290 878h-115v114h115v-114zM97 878h-113v114h113v-114zM220 0h-167v828h167v-828z" unicode="ϊ" horiz-adv-x="273"/>
<glyph glyph-name="upsilondieresis" d="M386 878h-115v114h115v-114zM193 878h-113v114h113v-114zM318 0h-166v258l-158 570h159l81 -360l82 360h160l-158 -577v-251z" unicode="ϋ" horiz-adv-x="471"/>
<glyph glyph-name="omicrontonos" d="M346 181v465q0 27 -18 44t-49 17q-30 0 -47.5 -16.5t-17.5 -43.5v-465q0 -27 18 -44t48 -17q31 0 48.5 16.5t17.5 43.5zM47 143v531q0 80 62.5 125.5t169.5 45.5q108 0 171 -45.5t63 -125.5v-531q0 -79 -61.5 -119.5t-171.5 -40.5q-109 0 -171 40.5t-62 119.5zM325 877 h-87l34 169h135z" unicode="ό"/>
<glyph glyph-name="upsilontonos" d="M318 0h-166v258l-158 570h159l81 -360l82 360h160l-158 -577v-251zM275 877h-87l34 169h135z" unicode="ύ" horiz-adv-x="471"/>
<glyph glyph-name="omegatonos" d="M259 0h-194v138h194v-138zM487 0h-194v138h194v-138zM293 168v139q22 4 34.5 20.5t12.5 38.5v280q0 27 -18 44t-49 17q-30 0 -47.5 -16.5t-17.5 -43.5v-280q0 -24 13.5 -40t37.5 -20v-139q-103 3 -160.5 43.5t-57.5 116.5v346q0 80 62.5 125.5t169.5 45.5 q108 0 171 -45.5t63 -125.5v-346q0 -75 -56.5 -115.5t-157.5 -44.5zM296 877h-87l34 169h135z" unicode="ώ" horiz-adv-x="548"/>
<glyph glyph-name="uni0401" d="M388 878h-115v114h115v-114zM195 878h-113v114h113v-114zM423 0h-370v828h370v-138h-203v-194h197v-138h-197v-220h203v-138z" unicode="Ё" horiz-adv-x="463"/>
<glyph glyph-name="uni0402" d="M323 -121v108q14 -8 34 -8q30 0 48 17t18 44v297q0 27 -18 44t-48 17q-66 0 -66 -64v-334h-167v690h-112v138h392v-138h-113v-217q61 58 139 58q67 0 113.5 -46.5t46.5 -132.5v-328q0 -86 -46.5 -132.5t-113.5 -46.5q-60 0 -107 34z" unicode="Ђ" horiz-adv-x="623"/>
<glyph glyph-name="uni0403" d="M256 877h-87l34 169h135zM220 0h-167v828h335v-138h-168v-690z" unicode="Ѓ" horiz-adv-x="397"/>
<glyph glyph-name="uni0404" d="M513 267v-124q0 -79 -61.5 -119.5t-171.5 -40.5q-109 0 -171 40.5t-62 119.5v531q0 80 62.5 125.5t169.5 45.5q108 0 171 -45.5t63 -125.5v-98h-167v70q0 27 -18 44t-49 17q-30 0 -47.5 -16.5t-17.5 -43.5v-152h153v-136h-153v-177q0 -27 18 -44t48 -17q31 0 48.5 16.5 t17.5 43.5v86h167z" unicode="Є" horiz-adv-x="547"/>
<glyph glyph-name="uni0405" d="M503 274v-131q0 -79 -62 -119.5t-172 -40.5q-109 0 -170.5 40.5t-61.5 119.5v158h167v-120q0 -27 17.5 -43.5t47.5 -16.5q31 0 49 17t18 44v68q0 37 -31 63.5t-75 45.5t-87.5 41.5t-74.5 64.5t-31 101v108q0 80 62.5 125.5t169.5 45.5q108 0 171 -45.5t63 -125.5v-121 h-167v93q0 27 -18 44t-49 17q-30 0 -47.5 -16.5t-17.5 -43.5v-49q0 -34 22 -57.5t55.5 -35.5t72 -29.5t72 -38t55.5 -62.5t22 -101z" unicode="Ѕ" horiz-adv-x="540"/>
<glyph glyph-name="uni0406" d="M220 0h-167v828h167v-828z" unicode="І" horiz-adv-x="273"/>
<glyph glyph-name="uni0407" d="M290 878h-115v114h115v-114zM97 878h-113v114h113v-114zM220 0h-167v828h167v-828z" unicode="Ї" horiz-adv-x="273"/>
<glyph glyph-name="uni0408" d="M281 181v647h167v-685q0 -160 -211 -160q-212 0 -212 160v215h167v-176q0 -31 8.5 -46t36.5 -15t36 14.5t8 45.5z" unicode="Ј" horiz-adv-x="499"/>
<glyph glyph-name="uni0409" d="M657 210v99q0 36 -12.5 54.5t-42.5 18.5h-77v-244h77q30 0 42.5 18t12.5 54zM683 0h-325v690h-132v-542q0 -153 -195 -159v139q18 4 23 17.5t5 40.5v642h466v-308h158q40 0 67.5 -12t41.5 -27.5t21.5 -43.5t9 -48t1.5 -53v-152q0 -33 -1.5 -53t-9 -48t-21.5 -43.5 t-41.5 -27.5t-67.5 -12z" unicode="Љ" horiz-adv-x="854"/>
<glyph glyph-name="uni040A" d="M651 210v75q0 36 -12.5 54.5t-42.5 18.5h-77v-220h77q30 0 42.5 18t12.5 54zM677 0h-325v358h-132v-358h-167v828h167v-332h132v332h167v-332h158q40 0 67.5 -12t41.5 -27.5t21.5 -43.5t9 -48t1.5 -53v-128q0 -33 -1.5 -53t-9 -48t-21.5 -43.5t-41.5 -27.5t-67.5 -12z " unicode="Њ" horiz-adv-x="846"/>
<glyph glyph-name="uni040B" d="M590 0h-167v337q0 27 -18 44t-48 17q-66 0 -66 -64v-334h-167v690h-112v138h392v-138h-113v-217q61 58 139 58q67 0 113.5 -46.5t46.5 -132.5v-352z" unicode="Ћ" horiz-adv-x="623"/>
<glyph glyph-name="uni040C" d="M548 0h-167l-161 307v-307h-167v828h167v-305l131 305h167l-184 -414zM322 877h-87l34 169h135z" unicode="Ќ" horiz-adv-x="534"/>
<glyph glyph-name="uni040E" d="M248 0h-158l66 239l-162 589h160l81 -329l83 329h158zM313 1009h87q0 -140 -163 -140q-82 0 -122.5 36.5t-40.5 103.5h87q0 -28 19.5 -45t56.5 -17q76 0 76 62z" unicode="Ў" horiz-adv-x="468"/>
<glyph glyph-name="uni040F" d="M519 0h-167l-10 -139h-107l-10 139h-172v828h167v-690h132v690h167v-828z" unicode="Џ" horiz-adv-x="572"/>
<glyph glyph-name="uni0410" d="M315 306l-50 408l-50 -408h100zM519 0h-166l-21 168h-134l-20 -168h-167l109 828h290z" unicode="А" horiz-adv-x="530"/>
<glyph glyph-name="uni0411" d="M352 210v99q0 36 -12.5 54.5t-42.5 18.5h-77v-244h77q30 0 42.5 18t12.5 54zM378 0h-325v828h455v-138h-288v-170h158q40 0 67.5 -12t41.5 -27.5t21.5 -43.5t9 -48t1.5 -53v-152q0 -33 -1.5 -53t-9 -48t-21.5 -43.5t-41.5 -27.5t-67.5 -12z" unicode="Б" horiz-adv-x="557"/>
<glyph glyph-name="uni0412" d="M347 568v50q0 36 -12.5 54t-42.5 18h-72v-194h72q30 0 42.5 18t12.5 54zM352 210v75q0 36 -12.5 54.5t-42.5 18.5h-77v-220h77q30 0 42.5 18t12.5 54zM378 0h-325v828h320q40 0 67.5 -12t41.5 -27.5t21.5 -43.5t9 -48t1.5 -53v-24q0 -32 -1 -51.5t-8.5 -48.5t-21 -46 t-40 -31.5t-64.5 -18.5q39 -3 67 -16t42 -29t21 -43t8.5 -45.5t1.5 -49.5v-57q0 -33 -1.5 -53t-9 -48t-21.5 -43.5t-41.5 -27.5t-67.5 -12z" unicode="В" horiz-adv-x="557"/>
<glyph glyph-name="uni0413" d="M220 0h-167v828h335v-138h-168v-690z" unicode="Г" horiz-adv-x="397"/>
<glyph glyph-name="uni0414" d="M393 137v553h-102l-30 -452q-5 -72 -41 -101h173zM626 -139h-107l-10 139h-369l-10 -139h-107l-10 276h43q34 0 38 58l40 633h426v-691h76z" unicode="Д" horiz-adv-x="649"/>
<glyph glyph-name="uni0415" d="M423 0h-370v828h370v-138h-203v-194h197v-138h-197v-220h203v-138z" unicode="Е" horiz-adv-x="463"/>
<glyph glyph-name="uni0416" d="M156 0h-167q29 44 50.5 103t34 104.5t45 102.5t84.5 104q-48 47 -76.5 104t-38 102.5t-26.5 104.5t-43 103h167q21 -35 31.5 -82t14 -83.5t25.5 -81.5t65 -83l-5 333h167l-5 -333q43 38 65 83t25.5 81.5t14 83.5t31.5 82h167q-26 -44 -43 -103t-26.5 -104.5t-38 -102.5 t-76.5 -104q52 -47 84.5 -104t45 -102.5t34 -104.5t50.5 -103h-167q-24 35 -38.5 82.5t-22 84t-33.5 82t-72 83.5l5 -335h-167l5 335q-46 -38 -72 -83.5t-33.5 -82t-22 -84t-38.5 -82.5z" unicode="Ж" horiz-adv-x="801"/>
<glyph glyph-name="uni0417" d="M500 289v-146q0 -79 -61.5 -119.5t-171.5 -40.5q-109 0 -171 40.5t-62 119.5v118h167v-79q0 -27 18 -44t48 -17q31 0 48.5 16.5t17.5 43.5v116q0 26 -18 43.5t-49 17.5h-85v136h86q31 0 48.5 17t17.5 43v92q0 27 -18 44t-49 17q-30 0 -47.5 -16.5t-17.5 -43.5v-59h-167 v86q0 80 62.5 125.5t169.5 45.5q108 0 171 -45.5t63 -125.5v-106q0 -102 -103 -140q103 -38 103 -139z" unicode="З" horiz-adv-x="540"/>
<glyph glyph-name="uni0418" d="M530 0h-150v649l-80 -649h-247v828h150v-615l76 615h251v-828z" unicode="И" horiz-adv-x="583"/>
<glyph glyph-name="uni0419" d="M530 0h-150v649l-80 -649h-247v828h150v-615l76 615h251v-828zM372 1002h87q0 -140 -163 -140q-82 0 -122.5 36.5t-40.5 103.5h87q0 -28 19.5 -45t56.5 -17q76 0 76 62z" unicode="Й" horiz-adv-x="583"/>
<glyph glyph-name="uni041A" d="M548 0h-167l-161 307v-307h-167v828h167v-305l131 305h167l-184 -414z" unicode="К" horiz-adv-x="534"/>
<glyph glyph-name="uni041B" d="M525 0h-167v690h-132v-542q0 -153 -195 -159v139q18 4 23 17.5t5 40.5v642h466v-828z" unicode="Л" horiz-adv-x="578"/>
<glyph glyph-name="uni041C" d="M717 0h-149v649l-76 -649h-213l-76 649v-649h-150v828h262l70 -614l71 614h261v-828z" unicode="М" horiz-adv-x="770"/>
<glyph glyph-name="uni041D" d="M519 0h-167v358h-132v-358h-167v828h167v-332h132v332h167v-828z" unicode="Н" horiz-adv-x="572"/>
<glyph glyph-name="uni041E" d="M346 181v465q0 27 -18 44t-49 17q-30 0 -47.5 -16.5t-17.5 -43.5v-465q0 -27 18 -44t48 -17q31 0 48.5 16.5t17.5 43.5zM47 143v531q0 80 62.5 125.5t169.5 45.5q108 0 171 -45.5t63 -125.5v-531q0 -79 -61.5 -119.5t-171.5 -40.5q-109 0 -171 40.5t-62 119.5z" unicode="О"/>
<glyph glyph-name="uni041F" d="M519 0h-167v690h-132v-690h-167v828h466v-828z" unicode="П" horiz-adv-x="572"/>
<glyph glyph-name="uni0420" d="M352 519v99q0 36 -12.5 54t-42.5 18h-77v-244h77q30 0 42.5 18.5t12.5 54.5zM220 0h-167v828h325q40 0 67.5 -12t41.5 -27.5t21.5 -43.5t9 -48t1.5 -53v-152q0 -33 -1.5 -53t-9 -48t-21.5 -43.5t-41.5 -27.5t-67.5 -12h-158v-308z" unicode="Р" horiz-adv-x="550"/>
<glyph glyph-name="uni0421" d="M346 181v178h167v-216q0 -79 -61.5 -119.5t-171.5 -40.5q-109 0 -171 40.5t-62 119.5v531q0 80 62.5 125.5t169.5 45.5q108 0 171 -45.5t63 -125.5v-178h-167v150q0 27 -18 44t-49 17q-30 0 -47.5 -16.5t-17.5 -43.5v-465q0 -27 18 -44t48 -17q31 0 48.5 16.5t17.5 43.5z " unicode="С" horiz-adv-x="554"/>
<glyph glyph-name="uni0422" d="M291 0h-167v690h-112v138h392v-138h-113v-690z" unicode="Т" horiz-adv-x="416"/>
<glyph glyph-name="uni0423" d="M248 0h-158l66 239l-162 589h160l81 -329l83 329h158z" unicode="У" horiz-adv-x="468"/>
<glyph glyph-name="uni0424" d="M311 237v346h-57q-30 0 -42.5 -18t-12.5 -54v-202q0 -36 12.5 -54t42.5 -18h57zM590 309v202q0 36 -12.5 54t-42.5 18h-57v-346h57q30 0 42.5 18t12.5 54zM478 -3h-167v101q-16 -2 -85 -2q-89 0 -141.5 43.5t-52.5 115.5v300q0 73 53 121t141 48q53 0 85 -2v109h167v-109 q30 2 85 2q88 0 141 -48t53 -121v-300q0 -72 -52.5 -115.5t-141.5 -43.5q-70 0 -85 2v-101z" unicode="Ф" horiz-adv-x="789"/>
<glyph glyph-name="uni0425" d="M499 0h-167l-81 203l-80 -203h-167l164 414l-164 414h167l80 -203l81 203h167l-164 -414z" unicode="Х" horiz-adv-x="503"/>
<glyph glyph-name="uni0426" d="M584 -139h-107l-10 139h-415v828h167v-690h132v690h167v-690h76z" unicode="Ц" horiz-adv-x="608"/>
<glyph glyph-name="uni0427" d="M499 0h-167v310q-24 -4 -105 -4q-90 0 -142 39.5t-52 110.5v372h167v-309q0 -36 12.5 -54t42.5 -18q42 0 77 4v377h167v-828z" unicode="Ч" horiz-adv-x="552"/>
<glyph glyph-name="uni0428" d="M778 0h-725v828h167v-690h112v690h167v-690h112v690h167v-828z" unicode="Ш" horiz-adv-x="831"/>
<glyph glyph-name="uni0429" d="M843 -139h-107l-10 139h-674v828h167v-690h112v690h167v-690h112v690h167v-690h76z" unicode="Щ" horiz-adv-x="867"/>
<glyph glyph-name="uni042A" d="M477 210v99q0 36 -12.5 54.5t-42.5 18.5h-77v-244h77q30 0 42.5 18t12.5 54zM503 0h-325v690h-168v138h335v-308h158q40 0 67.5 -12t41.5 -27.5t21.5 -43.5t9 -48t1.5 -53v-152q0 -33 -1.5 -53t-9 -48t-21.5 -43.5t-41.5 -27.5t-67.5 -12z" unicode="Ъ" horiz-adv-x="674"/>
<glyph glyph-name="uni042B" d="M352 210v99q0 36 -12.5 54.5t-42.5 18.5h-77v-244h77q30 0 42.5 18t12.5 54zM785 0h-167v828h167v-828zM378 0h-325v828h167v-308h158q40 0 67.5 -12t41.5 -27.5t21.5 -43.5t9 -48t1.5 -53v-152q0 -33 -1.5 -53t-9 -48t-21.5 -43.5t-41.5 -27.5t-67.5 -12z" unicode="Ы" horiz-adv-x="838"/>
<glyph glyph-name="uni042C" d="M352 210v99q0 36 -12.5 54.5t-42.5 18.5h-77v-244h77q30 0 42.5 18t12.5 54zM378 0h-325v828h167v-308h158q40 0 67.5 -12t41.5 -27.5t21.5 -43.5t9 -48t1.5 -53v-152q0 -33 -1.5 -53t-9 -48t-21.5 -43.5t-41.5 -27.5t-67.5 -12z" unicode="Ь" horiz-adv-x="550"/>
<glyph glyph-name="uni042D" d="M333 182v177h-153v136h153v152q0 27 -17.5 43.5t-47.5 16.5q-31 0 -49 -17t-18 -44v-70h-167v98q0 80 63 125.5t171 45.5q107 0 169.5 -45.5t62.5 -125.5v-531q0 -79 -62 -119.5t-171 -40.5q-110 0 -171.5 40.5t-61.5 119.5v124h167v-86q0 -27 17.5 -43.5t48.5 -16.5 q30 0 48 17t18 44z" unicode="Э" horiz-adv-x="547"/>
<glyph glyph-name="uni042E" d="M634 181v465q0 27 -18 44t-49 17q-30 0 -47.5 -16.5t-17.5 -43.5v-465q0 -27 18 -44t48 -17q31 0 48.5 16.5t17.5 43.5zM220 0h-167v828h167v-332h115v178q0 80 62.5 125.5t169.5 45.5q108 0 171 -45.5t63 -125.5v-531q0 -79 -61.5 -119.5t-171.5 -40.5q-109 0 -171 40.5 t-62 119.5v215h-115v-358z" unicode="Ю" horiz-adv-x="848"/>
<glyph glyph-name="uni042F" d="M342 496v194h-77q-30 0 -42.5 -18t-12.5 -54v-50q0 -36 12.5 -54t42.5 -18h77zM509 0h-167v358h-77q-30 0 -42.5 -18.5t-12.5 -54.5v-134q0 -125 -11 -151h-165q9 24 9 117v124q0 31 1.5 49.5t8.5 45.5t21 43t42 29t67 16q-33 3 -58 12.5t-39.5 26.5t-23.5 32.5t-13 40.5 t-5 41.5t-1 42.5v24q0 33 1.5 53t9 48t21.5 43.5t41.5 27.5t67.5 12h325v-828z" unicode="Я" horiz-adv-x="562"/>
<glyph glyph-name="uni0430" d="M340 173v208q-7 -1 -28.5 -4t-28.5 -4.5t-23 -5.5t-22 -8.5t-15 -11.5t-12 -17t-3 -23v-125q0 -27 18 -44t48 -17q29 0 46.5 14t19.5 38zM516 0h-165q-5 11 -9 47q-27 -28 -66 -44t-75 -16q-67 0 -113.5 46.5t-46.5 132.5v194q0 39 13 66t31.5 41.5t52 24t60 12t71 7 t71.5 8.5v128q0 27 -17.5 43.5t-48.5 16.5q-30 0 -48 -17t-18 -44v-93h-167v121q0 80 63 125.5t170 45.5q108 0 170.5 -45.5t62.5 -125.5v-589q0 -61 9 -85z" unicode="а" horiz-adv-x="556"/>
<glyph glyph-name="uni0431" d="M352 210v99q0 36 -12.5 54.5t-42.5 18.5h-77v-244h77q30 0 42.5 18t12.5 54zM378 0h-325v828h455v-138h-288v-170h158q40 0 67.5 -12t41.5 -27.5t21.5 -43.5t9 -48t1.5 -53v-152q0 -33 -1.5 -53t-9 -48t-21.5 -43.5t-41.5 -27.5t-67.5 -12z" unicode="б" horiz-adv-x="557"/>
<glyph glyph-name="uni0432" d="M347 568v50q0 36 -12.5 54t-42.5 18h-72v-194h72q30 0 42.5 18t12.5 54zM352 210v75q0 36 -12.5 54.5t-42.5 18.5h-77v-220h77q30 0 42.5 18t12.5 54zM378 0h-325v828h320q40 0 67.5 -12t41.5 -27.5t21.5 -43.5t9 -48t1.5 -53v-24q0 -32 -1 -51.5t-8.5 -48.5t-21 -46 t-40 -31.5t-64.5 -18.5q39 -3 67 -16t42 -29t21 -43t8.5 -45.5t1.5 -49.5v-57q0 -33 -1.5 -53t-9 -48t-21.5 -43.5t-41.5 -27.5t-67.5 -12z" unicode="в" horiz-adv-x="557"/>
<glyph glyph-name="uni0433" d="M220 0h-167v828h335v-138h-168v-690z" unicode="г" horiz-adv-x="397"/>
<glyph glyph-name="uni0434" d="M393 137v553h-102l-30 -452q-5 -72 -41 -101h173zM626 -139h-107l-10 139h-369l-10 -139h-107l-10 276h43q34 0 38 58l40 633h426v-691h76z" unicode="д" horiz-adv-x="649"/>
<glyph glyph-name="uni0435" d="M346 496v150q0 27 -18 44t-49 17q-30 0 -47.5 -16.5t-17.5 -43.5v-151h132zM513 301v-158q0 -79 -61.5 -119.5t-171.5 -40.5q-109 0 -171 40.5t-62 119.5v531q0 80 62.5 125.5t169.5 45.5q108 0 171 -45.5t63 -125.5v-316h-299v-176q0 -27 18 -44t48 -17q31 0 48.5 16.5 t17.5 43.5v120h167z" unicode="е" horiz-adv-x="557"/>
<glyph glyph-name="uni0436" d="M156 0h-167q29 44 50.5 103t34 104.5t45 102.5t84.5 104q-48 47 -76.5 104t-38 102.5t-26.5 104.5t-43 103h167q21 -35 31.5 -82t14 -83.5t25.5 -81.5t65 -83l-5 333h167l-5 -333q43 38 65 83t25.5 81.5t14 83.5t31.5 82h167q-26 -44 -43 -103t-26.5 -104.5t-38 -102.5 t-76.5 -104q52 -47 84.5 -104t45 -102.5t34 -104.5t50.5 -103h-167q-24 35 -38.5 82.5t-22 84t-33.5 82t-72 83.5l5 -335h-167l5 335q-46 -38 -72 -83.5t-33.5 -82t-22 -84t-38.5 -82.5z" unicode="ж" horiz-adv-x="801"/>
<glyph glyph-name="uni0437" d="M500 289v-146q0 -79 -61.5 -119.5t-171.5 -40.5q-109 0 -171 40.5t-62 119.5v118h167v-79q0 -27 18 -44t48 -17q31 0 48.5 16.5t17.5 43.5v116q0 26 -18 43.5t-49 17.5h-85v136h86q31 0 48.5 17t17.5 43v92q0 27 -18 44t-49 17q-30 0 -47.5 -16.5t-17.5 -43.5v-59h-167 v86q0 80 62.5 125.5t169.5 45.5q108 0 171 -45.5t63 -125.5v-106q0 -102 -103 -140q103 -38 103 -139z" unicode="з" horiz-adv-x="540"/>
<glyph glyph-name="uni0438" d="M530 0h-150v649l-80 -649h-247v828h150v-615l76 615h251v-828z" unicode="и" horiz-adv-x="583"/>
<glyph glyph-name="uni0439" d="M530 0h-150v649l-80 -649h-247v828h150v-615l76 615h251v-828zM372 1002h87q0 -140 -163 -140q-82 0 -122.5 36.5t-40.5 103.5h87q0 -28 19.5 -45t56.5 -17q76 0 76 62z" unicode="й" horiz-adv-x="583"/>
<glyph glyph-name="uni043A" d="M548 0h-167l-161 307v-307h-167v828h167v-305l131 305h167l-184 -414z" unicode="к" horiz-adv-x="534"/>
<glyph glyph-name="uni043B" d="M525 0h-167v690h-132v-542q0 -153 -195 -159v139q18 4 23 17.5t5 40.5v642h466v-828z" unicode="л" horiz-adv-x="578"/>
<glyph glyph-name="uni043C" d="M717 0h-149v649l-76 -649h-213l-76 649v-649h-150v828h262l70 -614l71 614h261v-828z" unicode="м" horiz-adv-x="770"/>
<glyph glyph-name="uni043D" d="M519 0h-167v358h-132v-358h-167v828h167v-332h132v332h167v-828z" unicode="н" horiz-adv-x="572"/>
<glyph glyph-name="uni043E" d="M346 181v465q0 27 -18 44t-49 17q-30 0 -47.5 -16.5t-17.5 -43.5v-465q0 -27 18 -44t48 -17q31 0 48.5 16.5t17.5 43.5zM47 143v531q0 80 62.5 125.5t169.5 45.5q108 0 171 -45.5t63 -125.5v-531q0 -79 -61.5 -119.5t-171.5 -40.5q-109 0 -171 40.5t-62 119.5z" unicode="о"/>
<glyph glyph-name="uni043F" d="M519 0h-167v690h-132v-690h-167v828h466v-828z" unicode="п" horiz-adv-x="572"/>
<glyph glyph-name="uni0440" d="M352 519v99q0 36 -12.5 54t-42.5 18h-77v-244h77q30 0 42.5 18.5t12.5 54.5zM220 0h-167v828h325q40 0 67.5 -12t41.5 -27.5t21.5 -43.5t9 -48t1.5 -53v-152q0 -33 -1.5 -53t-9 -48t-21.5 -43.5t-41.5 -27.5t-67.5 -12h-158v-308z" unicode="р" horiz-adv-x="550"/>
<glyph glyph-name="uni0441" d="M346 181v178h167v-216q0 -79 -61.5 -119.5t-171.5 -40.5q-109 0 -171 40.5t-62 119.5v531q0 80 62.5 125.5t169.5 45.5q108 0 171 -45.5t63 -125.5v-178h-167v150q0 27 -18 44t-49 17q-30 0 -47.5 -16.5t-17.5 -43.5v-465q0 -27 18 -44t48 -17q31 0 48.5 16.5t17.5 43.5z " unicode="с" horiz-adv-x="554"/>
<glyph glyph-name="uni0442" d="M291 0h-167v690h-112v138h392v-138h-113v-690z" unicode="т" horiz-adv-x="416"/>
<glyph glyph-name="uni0443" d="M248 0h-158l66 239l-162 589h160l81 -329l83 329h158z" unicode="у" horiz-adv-x="468"/>
<glyph glyph-name="uni0444" d="M311 237v346h-57q-30 0 -42.5 -18t-12.5 -54v-202q0 -36 12.5 -54t42.5 -18h57zM590 309v202q0 36 -12.5 54t-42.5 18h-57v-346h57q30 0 42.5 18t12.5 54zM478 -3h-167v101q-16 -2 -85 -2q-89 0 -141.5 43.5t-52.5 115.5v300q0 73 53 121t141 48q53 0 85 -2v109h167v-109 q30 2 85 2q88 0 141 -48t53 -121v-300q0 -72 -52.5 -115.5t-141.5 -43.5q-70 0 -85 2v-101z" unicode="ф" horiz-adv-x="789"/>
<glyph glyph-name="uni0445" d="M499 0h-167l-81 203l-80 -203h-167l164 414l-164 414h167l80 -203l81 203h167l-164 -414z" unicode="х" horiz-adv-x="503"/>
<glyph glyph-name="uni0446" d="M584 -139h-107l-10 139h-415v828h167v-690h132v690h167v-690h76z" unicode="ц" horiz-adv-x="608"/>
<glyph glyph-name="uni0447" d="M499 0h-167v310q-24 -4 -105 -4q-90 0 -142 39.5t-52 110.5v372h167v-309q0 -36 12.5 -54t42.5 -18q42 0 77 4v377h167v-828z" unicode="ч" horiz-adv-x="552"/>
<glyph glyph-name="uni0448" d="M778 0h-725v828h167v-690h112v690h167v-690h112v690h167v-828z" unicode="ш" horiz-adv-x="831"/>
<glyph glyph-name="uni0449" d="M843 -139h-107l-10 139h-674v828h167v-690h112v690h167v-690h112v690h167v-690h76z" unicode="щ" horiz-adv-x="867"/>
<glyph glyph-name="uni044A" d="M477 210v99q0 36 -12.5 54.5t-42.5 18.5h-77v-244h77q30 0 42.5 18t12.5 54zM503 0h-325v690h-168v138h335v-308h158q40 0 67.5 -12t41.5 -27.5t21.5 -43.5t9 -48t1.5 -53v-152q0 -33 -1.5 -53t-9 -48t-21.5 -43.5t-41.5 -27.5t-67.5 -12z" unicode="ъ" horiz-adv-x="674"/>
<glyph glyph-name="uni044B" d="M352 210v99q0 36 -12.5 54.5t-42.5 18.5h-77v-244h77q30 0 42.5 18t12.5 54zM785 0h-167v828h167v-828zM378 0h-325v828h167v-308h158q40 0 67.5 -12t41.5 -27.5t21.5 -43.5t9 -48t1.5 -53v-152q0 -33 -1.5 -53t-9 -48t-21.5 -43.5t-41.5 -27.5t-67.5 -12z" unicode="ы" horiz-adv-x="838"/>
<glyph glyph-name="uni044C" d="M352 210v99q0 36 -12.5 54.5t-42.5 18.5h-77v-244h77q30 0 42.5 18t12.5 54zM378 0h-325v828h167v-308h158q40 0 67.5 -12t41.5 -27.5t21.5 -43.5t9 -48t1.5 -53v-152q0 -33 -1.5 -53t-9 -48t-21.5 -43.5t-41.5 -27.5t-67.5 -12z" unicode="ь" horiz-adv-x="550"/>
<glyph glyph-name="uni044D" d="M333 182v177h-153v136h153v152q0 27 -17.5 43.5t-47.5 16.5q-31 0 -49 -17t-18 -44v-70h-167v98q0 80 63 125.5t171 45.5q107 0 169.5 -45.5t62.5 -125.5v-531q0 -79 -62 -119.5t-171 -40.5q-110 0 -171.5 40.5t-61.5 119.5v124h167v-86q0 -27 17.5 -43.5t48.5 -16.5 q30 0 48 17t18 44z" unicode="э" horiz-adv-x="547"/>
<glyph glyph-name="uni044E" d="M634 181v465q0 27 -18 44t-49 17q-30 0 -47.5 -16.5t-17.5 -43.5v-465q0 -27 18 -44t48 -17q31 0 48.5 16.5t17.5 43.5zM220 0h-167v828h167v-332h115v178q0 80 62.5 125.5t169.5 45.5q108 0 171 -45.5t63 -125.5v-531q0 -79 -61.5 -119.5t-171.5 -40.5q-109 0 -171 40.5 t-62 119.5v215h-115v-358z" unicode="ю" horiz-adv-x="848"/>
<glyph glyph-name="uni044F" d="M342 496v194h-77q-30 0 -42.5 -18t-12.5 -54v-50q0 -36 12.5 -54t42.5 -18h77zM509 0h-167v358h-77q-30 0 -42.5 -18.5t-12.5 -54.5v-134q0 -125 -11 -151h-165q9 24 9 117v124q0 31 1.5 49.5t8.5 45.5t21 43t42 29t67 16q-33 3 -58 12.5t-39.5 26.5t-23.5 32.5t-13 40.5 t-5 41.5t-1 42.5v24q0 33 1.5 53t9 48t21.5 43.5t41.5 27.5t67.5 12h325v-828z" unicode="я" horiz-adv-x="562"/>
<glyph glyph-name="uni0451" d="M433 878h-115v114h115v-114zM240 878h-113v114h113v-114zM346 496v150q0 27 -18 44t-49 17q-30 0 -47.5 -16.5t-17.5 -43.5v-151h132zM513 301v-158q0 -79 -61.5 -119.5t-171.5 -40.5q-109 0 -171 40.5t-62 119.5v531q0 80 62.5 125.5t169.5 45.5q108 0 171 -45.5 t63 -125.5v-316h-299v-176q0 -27 18 -44t48 -17q31 0 48.5 16.5t17.5 43.5v120h167z" unicode="ё" horiz-adv-x="557"/>
<glyph glyph-name="uni0452" d="M323 -121v108q14 -8 34 -8q30 0 48 17t18 44v297q0 27 -18 44t-48 17q-66 0 -66 -64v-334h-167v690h-112v138h392v-138h-113v-217q61 58 139 58q67 0 113.5 -46.5t46.5 -132.5v-328q0 -86 -46.5 -132.5t-113.5 -46.5q-60 0 -107 34z" unicode="ђ" horiz-adv-x="623"/>
<glyph glyph-name="uni0453" d="M256 877h-87l34 169h135zM220 0h-167v828h335v-138h-168v-690z" unicode="ѓ" horiz-adv-x="397"/>
<glyph glyph-name="uni0454" d="M513 267v-124q0 -79 -61.5 -119.5t-171.5 -40.5q-109 0 -171 40.5t-62 119.5v531q0 80 62.5 125.5t169.5 45.5q108 0 171 -45.5t63 -125.5v-98h-167v70q0 27 -18 44t-49 17q-30 0 -47.5 -16.5t-17.5 -43.5v-152h153v-136h-153v-177q0 -27 18 -44t48 -17q31 0 48.5 16.5 t17.5 43.5v86h167z" unicode="є" horiz-adv-x="547"/>
<glyph glyph-name="uni0455" d="M503 274v-131q0 -79 -62 -119.5t-172 -40.5q-109 0 -170.5 40.5t-61.5 119.5v158h167v-120q0 -27 17.5 -43.5t47.5 -16.5q31 0 49 17t18 44v68q0 37 -31 63.5t-75 45.5t-87.5 41.5t-74.5 64.5t-31 101v108q0 80 62.5 125.5t169.5 45.5q108 0 171 -45.5t63 -125.5v-121 h-167v93q0 27 -18 44t-49 17q-30 0 -47.5 -16.5t-17.5 -43.5v-49q0 -34 22 -57.5t55.5 -35.5t72 -29.5t72 -38t55.5 -62.5t22 -101z" unicode="ѕ" horiz-adv-x="540"/>
<glyph glyph-name="uni0456" d="M220 0h-167v828h167v-828z" unicode="і" horiz-adv-x="273"/>
<glyph glyph-name="uni0457" d="M290 878h-115v114h115v-114zM97 878h-113v114h113v-114zM220 0h-167v828h167v-828z" unicode="ї" horiz-adv-x="273"/>
<glyph glyph-name="uni0458" d="M281 181v647h167v-685q0 -160 -211 -160q-212 0 -212 160v215h167v-176q0 -31 8.5 -46t36.5 -15t36 14.5t8 45.5z" unicode="ј" horiz-adv-x="499"/>
<glyph glyph-name="uni0459" d="M657 210v99q0 36 -12.5 54.5t-42.5 18.5h-77v-244h77q30 0 42.5 18t12.5 54zM683 0h-325v690h-132v-542q0 -153 -195 -159v139q18 4 23 17.5t5 40.5v642h466v-308h158q40 0 67.5 -12t41.5 -27.5t21.5 -43.5t9 -48t1.5 -53v-152q0 -33 -1.5 -53t-9 -48t-21.5 -43.5 t-41.5 -27.5t-67.5 -12z" unicode="љ" horiz-adv-x="854"/>
<glyph glyph-name="uni045A" d="M651 210v75q0 36 -12.5 54.5t-42.5 18.5h-77v-220h77q30 0 42.5 18t12.5 54zM677 0h-325v358h-132v-358h-167v828h167v-332h132v332h167v-332h158q40 0 67.5 -12t41.5 -27.5t21.5 -43.5t9 -48t1.5 -53v-128q0 -33 -1.5 -53t-9 -48t-21.5 -43.5t-41.5 -27.5t-67.5 -12z " unicode="њ" horiz-adv-x="846"/>
<glyph glyph-name="uni045B" d="M590 0h-167v337q0 27 -18 44t-48 17q-66 0 -66 -64v-334h-167v690h-112v138h392v-138h-113v-217q61 58 139 58q67 0 113.5 -46.5t46.5 -132.5v-352z" unicode="ћ" horiz-adv-x="623"/>
<glyph glyph-name="uni045C" d="M548 0h-167l-161 307v-307h-167v828h167v-305l131 305h167l-184 -414zM322 877h-87l34 169h135z" unicode="ќ" horiz-adv-x="534"/>
<glyph glyph-name="uni045E" d="M248 0h-158l66 239l-162 589h160l81 -329l83 329h158zM313 1009h87q0 -140 -163 -140q-82 0 -122.5 36.5t-40.5 103.5h87q0 -28 19.5 -45t56.5 -17q76 0 76 62z" unicode="ў" horiz-adv-x="468"/>
<glyph glyph-name="uni045F" d="M519 0h-167l-10 -139h-107l-10 139h-172v828h167v-690h132v690h167v-828z" unicode="џ" horiz-adv-x="572"/>
<glyph glyph-name="uni0490" d="M219 0h-167v828h255l-15 139h125v-277h-198v-690z" unicode="Ґ" horiz-adv-x="426"/>
<glyph glyph-name="uni0491" d="M219 0h-167v828h255l-15 139h125v-277h-198v-690z" unicode="ґ" horiz-adv-x="426"/>
<glyph glyph-name="uni1E02" d="M347 568v50q0 36 -12.5 54t-42.5 18h-72v-194h72q30 0 42.5 18t12.5 54zM352 210v75q0 36 -12.5 54.5t-42.5 18.5h-77v-220h77q30 0 42.5 18t12.5 54zM378 0h-325v828h320q40 0 67.5 -12t41.5 -27.5t21.5 -43.5t9 -48t1.5 -53v-24q0 -32 -1 -51.5t-8.5 -48.5t-21 -46 t-40 -31.5t-64.5 -18.5q39 -3 67 -16t42 -29t21 -43t8.5 -45.5t1.5 -49.5v-57q0 -33 -1.5 -53t-9 -48t-21.5 -43.5t-41.5 -27.5t-67.5 -12zM326 878h-115v114h115v-114z" unicode="Ḃ" horiz-adv-x="557"/>
<glyph glyph-name="uni1E03" d="M347 568v50q0 36 -12.5 54t-42.5 18h-72v-194h72q30 0 42.5 18t12.5 54zM352 210v75q0 36 -12.5 54.5t-42.5 18.5h-77v-220h77q30 0 42.5 18t12.5 54zM378 0h-325v828h320q40 0 67.5 -12t41.5 -27.5t21.5 -43.5t9 -48t1.5 -53v-24q0 -32 -1 -51.5t-8.5 -48.5t-21 -46 t-40 -31.5t-64.5 -18.5q39 -3 67 -16t42 -29t21 -43t8.5 -45.5t1.5 -49.5v-57q0 -33 -1.5 -53t-9 -48t-21.5 -43.5t-41.5 -27.5t-67.5 -12zM326 878h-115v114h115v-114z" unicode="ḃ" horiz-adv-x="557"/>
<glyph glyph-name="uni1E0A" d="M331 878h-115v114h115v-114zM352 210v408q0 36 -12.5 54t-42.5 18h-77v-552h77q30 0 42.5 18t12.5 54zM378 0h-325v828h325q40 0 67.5 -12t41.5 -27.5t21.5 -43.5t9 -48t1.5 -53v-460q0 -33 -1.5 -53t-9 -48t-21.5 -43.5t-41.5 -27.5t-67.5 -12z" unicode="Ḋ" horiz-adv-x="567"/>
<glyph glyph-name="uni1E0B" d="M331 878h-115v114h115v-114zM352 210v408q0 36 -12.5 54t-42.5 18h-77v-552h77q30 0 42.5 18t12.5 54zM378 0h-325v828h325q40 0 67.5 -12t41.5 -27.5t21.5 -43.5t9 -48t1.5 -53v-460q0 -33 -1.5 -53t-9 -48t-21.5 -43.5t-41.5 -27.5t-67.5 -12z" unicode="ḋ" horiz-adv-x="567"/>
<glyph glyph-name="uni1E1E" d="M278 878h-115v114h115v-114zM220 0h-167v828h335v-138h-168v-194h162v-138h-162v-358z" unicode="Ḟ" horiz-adv-x="419"/>
<glyph glyph-name="uni1E1F" d="M278 878h-115v114h115v-114zM220 0h-167v828h335v-138h-168v-194h162v-138h-162v-358z" unicode="ḟ" horiz-adv-x="419"/>
<glyph glyph-name="uni1E22" d="M343 878h-115v114h115v-114zM519 0h-167v358h-132v-358h-167v828h167v-332h132v332h167v-828z" unicode="Ḣ" horiz-adv-x="572"/>
<glyph glyph-name="uni1E23" d="M343 878h-115v114h115v-114zM519 0h-167v358h-132v-358h-167v828h167v-332h132v332h167v-828z" unicode="ḣ" horiz-adv-x="572"/>
<glyph glyph-name="uni1E40" d="M442 878h-115v114h115v-114zM717 0h-149v649l-76 -649h-213l-76 649v-649h-150v828h262l70 -614l71 614h261v-828z" unicode="Ṁ" horiz-adv-x="770"/>
<glyph glyph-name="uni1E41" d="M761 0h-167v649q0 58 -53 58q-24 0 -37.5 -13.5t-13.5 -36.5v-657h-166v649q0 26 -13.5 42t-39.5 16q-25 0 -38 -15t-13 -40v-652h-167v828h157l10 -49q56 62 124 62q83 0 123 -72q58 72 148 72q65 0 105.5 -46t40.5 -133v-662zM462 878h-115v114h115v-114z" unicode="ṁ" horiz-adv-x="812"/>
<glyph glyph-name="uni1E56" d="M323 878h-115v114h115v-114zM352 519v99q0 36 -12.5 54t-42.5 18h-77v-244h77q30 0 42.5 18.5t12.5 54.5zM220 0h-167v828h325q40 0 67.5 -12t41.5 -27.5t21.5 -43.5t9 -48t1.5 -53v-152q0 -33 -1.5 -53t-9 -48t-21.5 -43.5t-41.5 -27.5t-67.5 -12h-158v-308z" unicode="Ṗ" horiz-adv-x="550"/>
<glyph glyph-name="uni1E57" d="M323 878h-115v114h115v-114zM352 519v99q0 36 -12.5 54t-42.5 18h-77v-244h77q30 0 42.5 18.5t12.5 54.5zM220 0h-167v828h325q40 0 67.5 -12t41.5 -27.5t21.5 -43.5t9 -48t1.5 -53v-152q0 -33 -1.5 -53t-9 -48t-21.5 -43.5t-41.5 -27.5t-67.5 -12h-158v-308z" unicode="ṗ" horiz-adv-x="550"/>
<glyph glyph-name="uni1E60" d="M327 878h-115v114h115v-114zM503 274v-131q0 -79 -62 -119.5t-172 -40.5q-109 0 -170.5 40.5t-61.5 119.5v158h167v-120q0 -27 17.5 -43.5t47.5 -16.5q31 0 49 17t18 44v68q0 37 -31 63.5t-75 45.5t-87.5 41.5t-74.5 64.5t-31 101v108q0 80 62.5 125.5t169.5 45.5 q108 0 171 -45.5t63 -125.5v-121h-167v93q0 27 -18 44t-49 17q-30 0 -47.5 -16.5t-17.5 -43.5v-49q0 -34 22 -57.5t55.5 -35.5t72 -29.5t72 -38t55.5 -62.5t22 -101z" unicode="Ṡ" horiz-adv-x="540"/>
<glyph glyph-name="uni1E61" d="M327 878h-115v114h115v-114zM503 274v-131q0 -79 -62 -119.5t-172 -40.5q-109 0 -170.5 40.5t-61.5 119.5v158h167v-120q0 -27 17.5 -43.5t47.5 -16.5q31 0 49 17t18 44v68q0 37 -31 63.5t-75 45.5t-87.5 41.5t-74.5 64.5t-31 101v108q0 80 62.5 125.5t169.5 45.5 q108 0 171 -45.5t63 -125.5v-121h-167v93q0 27 -18 44t-49 17q-30 0 -47.5 -16.5t-17.5 -43.5v-49q0 -34 22 -57.5t55.5 -35.5t72 -29.5t72 -38t55.5 -62.5t22 -101z" unicode="ṡ" horiz-adv-x="540"/>
<glyph glyph-name="uni1E6A" d="M265 878h-115v114h115v-114zM291 0h-167v690h-112v138h392v-138h-113v-690z" unicode="Ṫ" horiz-adv-x="416"/>
<glyph glyph-name="uni1E6B" d="M265 878h-115v114h115v-114zM291 0h-167v690h-112v138h392v-138h-113v-690z" unicode="ṫ" horiz-adv-x="416"/>
<glyph glyph-name="Wgrave" d="M447 877h-87l-82 169h135zM693 0h-247l-50 616l-48 -616h-247l-75 828h178l42 -691l53 691h196l53 -691l41 691h179z" unicode="Ẁ" horiz-adv-x="794"/>
<glyph glyph-name="wgrave" d="M447 877h-87l-82 169h135zM693 0h-247l-50 616l-48 -616h-247l-75 828h178l42 -691l53 691h196l53 -691l41 691h179z" unicode="ẁ" horiz-adv-x="794"/>
<glyph glyph-name="Wacute" d="M448 877h-87l34 169h135zM693 0h-247l-50 616l-48 -616h-247l-75 828h178l42 -691l53 691h196l53 -691l41 691h179z" unicode="Ẃ" horiz-adv-x="794"/>
<glyph glyph-name="wacute" d="M448 877h-87l34 169h135zM693 0h-247l-50 616l-48 -616h-247l-75 828h178l42 -691l53 691h196l53 -691l41 691h179z" unicode="ẃ" horiz-adv-x="794"/>
<glyph glyph-name="Wdieresis" d="M550 878h-115v114h115v-114zM357 878h-113v114h113v-114zM693 0h-247l-50 616l-48 -616h-247l-75 828h178l42 -691l53 691h196l53 -691l41 691h179z" unicode="Ẅ" horiz-adv-x="794"/>
<glyph glyph-name="wdieresis" d="M550 878h-115v114h115v-114zM357 878h-113v114h113v-114zM693 0h-247l-50 616l-48 -616h-247l-75 828h178l42 -691l53 691h196l53 -691l41 691h179z" unicode="ẅ" horiz-adv-x="794"/>
<glyph glyph-name="Ygrave" d="M280 877h-87l-82 169h135zM318 0h-166v258l-158 570h159l81 -360l82 360h160l-158 -577v-251z" unicode="Ỳ" horiz-adv-x="471"/>
<glyph glyph-name="ygrave" d="M344 181v188q-50 -42 -139 -42q-67 0 -113.5 46.5t-46.5 132.5v205q0 93 -9 117h165q11 -26 11 -151v-140q0 -27 18 -44t48 -17q29 0 46.5 15t19.5 40v297h167v-685q0 -79 -61.5 -119.5t-171.5 -40.5q-109 0 -171 40.5t-62 119.5v157h167v-118q0 -27 18 -44t48 -17 q31 0 48.5 16.5t17.5 43.5zM320 877h-87l-82 169h135z" unicode="ỳ" horiz-adv-x="562"/>
<glyph glyph-name="endash" d="M513 345h-466v138h466v-138z" unicode="–"/>
<glyph glyph-name="emdash" d="M755 345h-708v138h708v-138z" unicode="—" horiz-adv-x="802"/>
<glyph glyph-name="uni2015" d="M1007 345h-960v138h960v-138z" unicode="―" horiz-adv-x="1054"/>
<glyph glyph-name="quoteleft" d="M202 556h-167v172l167 120l-73 -120h73v-172z" unicode="‘" horiz-adv-x="241"/>
<glyph glyph-name="quoteright" d="M208 656l-167 -120l73 120h-73v172h167v-172z" unicode="’" horiz-adv-x="235"/>
<glyph glyph-name="quotesinglbase" d="M204 0l-167 -120l73 120h-73v172h167v-172z" unicode="‚" horiz-adv-x="241"/>
<glyph glyph-name="quoteleftreversed" d="M194 536l-167 120v172h167v-172h-73z" unicode="‛" horiz-adv-x="235"/>
<glyph glyph-name="quotedblleft" d="M202 556h-167v172l167 120l-73 -120h73v-172zM419 556h-167v172l167 120l-73 -120h73v-172z" unicode="“" horiz-adv-x="458"/>
<glyph glyph-name="quotedblright" d="M425 656l-167 -120l73 120h-73v172h167v-172zM208 656l-167 -120l73 120h-73v172h167v-172z" unicode="”" horiz-adv-x="452"/>
<glyph glyph-name="quotedblbase" d="M421 0l-167 -120l73 120h-73v172h167v-172zM204 0l-167 -120l73 120h-73v172h167v-172z" unicode="„" horiz-adv-x="458"/>
<glyph glyph-name="dagger" d="M336 0h-167v512h-150v138h150v178h167v-178h149v-138h-149v-512z" unicode="†" horiz-adv-x="504"/>
<glyph glyph-name="daggerdbl" d="M352 0h-167v174h-150v138h150v200h-150v138h150v178h167v-178h149v-138h-149v-200h149v-138h-149v-174z" unicode="‡" horiz-adv-x="536"/>
<glyph glyph-name="bullet" d="M159 304q-45 0 -77.5 32t-32.5 77q0 46 32 78.5t78 32.5t78 -33t32 -74q0 -48 -32.5 -80.5t-77.5 -32.5z" unicode="•" horiz-adv-x="318"/>
<glyph glyph-name="ellipsis" d="M686 0h-167v172h167v-172zM445 0h-167v172h167v-172zM204 0h-167v172h167v-172z" unicode="…" horiz-adv-x="723"/>
<glyph glyph-name="perthousand" d="M1345 188v135q0 31 -9 46t-38 15q-28 0 -36.5 -14.5t-8.5 -45.5v-135q0 -31 9 -46t37 -15q29 0 37.5 14.5t8.5 45.5zM1492 351v-201q0 -83 -44 -121.5t-149 -38.5q-104 0 -148.5 39t-44.5 121v201q0 84 44.5 127.5t147.5 43.5t148.5 -43.5t45.5 -127.5zM265 504v135 q0 31 -9 46t-38 15q-28 0 -36.5 -14.5t-8.5 -45.5v-135q0 -31 9 -46t37 -15q29 0 37.5 14.5t8.5 45.5zM412 667v-201q0 -83 -44 -121.5t-149 -38.5q-104 0 -148.5 39t-44.5 121v201q0 84 44.5 127.5t147.5 43.5t148.5 -43.5t45.5 -127.5zM894 188v135q0 31 -9 46t-38 15 q-28 0 -36.5 -14.5t-8.5 -45.5v-135q0 -31 9 -46t37 -15q29 0 37.5 14.5t8.5 45.5zM1041 351v-201q0 -83 -44 -121.5t-149 -38.5q-104 0 -148.5 39t-44.5 121v201q0 84 44.5 127.5t147.5 43.5t148.5 -43.5t45.5 -127.5zM409 0h-117l366 828h117z" unicode="‰" horiz-adv-x="1518"/>
<glyph glyph-name="guilsinglleft" d="M324 162h-170l-137 252l137 238h170l-137 -238z" unicode="‹" horiz-adv-x="363"/>
<glyph glyph-name="guilsinglright" d="M209 162h-170l137 252l-137 238h170l137 -238z" unicode="›" horiz-adv-x="363"/>
<glyph glyph-name="fraction" d="M106 0h-117l366 828h117z" unicode="⁄" horiz-adv-x="461"/>
<glyph glyph-name="Euro" d="M539 266v-123q0 -79 -61.5 -119.5t-171.5 -40.5q-109 0 -171 40.5t-62 119.5v171h-41v77h41v59h-41v78h41v146q0 80 62.5 125.5t169.5 45.5q108 0 171 -45.5t63 -125.5v-98h-167v70q0 27 -18 44t-49 17q-30 0 -47.5 -16.5t-17.5 -43.5v-119h291v-78h-291v-59h291v-77 h-291v-132q0 -27 18 -44t48 -17q31 0 48.5 16.5t17.5 43.5v85h167z" unicode="€" horiz-adv-x="579"/>
<glyph glyph-name="uni2116" d="M994 50h-331v138h331v-138zM874 442v135q0 31 -9 46t-38 15q-28 0 -36.5 -14.5t-8.5 -45.5v-135q0 -31 9 -46t37 -15q29 0 37.5 14.5t8.5 45.5zM1041 605v-201q0 -160 -213 -160t-213 160v201q0 82 53.5 126.5t158.5 44.5q106 0 160 -44.5t54 -126.5zM526 0h-247l-80 649 v-649h-150v828h251l76 -615v615h150v-828z" unicode="№" horiz-adv-x="1074"/>
<glyph glyph-name="trademark" d="M211 391h-113v364h-78v90h269v-90h-78v-364zM579 845h134v-454h-101v298l-70 -298h-47l-70 298v-298h-101v454h135l60 -172z" unicode="™" horiz-adv-x="763"/>
<glyph glyph-name="ohm" d="M260 0h-194v138h194v-138zM488 0h-194v138h194v-138zM294 168v139q22 4 34.5 20.5t12.5 38.5v280q0 27 -18 44t-49 17q-30 0 -47.5 -16.5t-17.5 -43.5v-280q0 -24 13.5 -40t37.5 -20v-139q-103 3 -160.5 43.5t-57.5 116.5v346q0 80 62.5 125.5t169.5 45.5 q108 0 171 -45.5t63 -125.5v-346q0 -75 -56.5 -115.5t-157.5 -44.5z" unicode="Ω" horiz-adv-x="550"/>
<glyph glyph-name="estimated" d="M344 496v150q0 27 -18 44t-49 17q-30 0 -47.5 -16.5t-17.5 -43.5v-151h132zM511 301v-158q0 -79 -61.5 -119.5t-171.5 -40.5q-109 0 -171 40.5t-62 119.5v531q0 80 62.5 125.5t169.5 45.5q108 0 171 -45.5t63 -125.5v-316h-299v-176q0 -27 18 -44t48 -17q31 0 48.5 16.5 t17.5 43.5v120h167z" unicode="℮" horiz-adv-x="555"/>
<glyph glyph-name="increment" d="M346 138l-70 573l-71 -573h141zM530 0h-508l108 828h290z" unicode="∆" horiz-adv-x="551"/>
<glyph glyph-name="product" d="M516 -155h-167v845h-132v-845h-167v983h466v-983z" unicode="∏" horiz-adv-x="566"/>
<glyph glyph-name="summation" d="M453 0h-422v138l175 277l-175 275v138h417v-138h-245l178 -278l-178 -274h250v-138z" unicode="∑" horiz-adv-x="482"/>
<glyph glyph-name="minus" d="M513 345h-466v138h466v-138z" unicode="−"/>
<glyph glyph-name="radical" d="M378 0h-270l-105 382h167l73 -245l114 691h178z" unicode="√" horiz-adv-x="538"/>
<glyph glyph-name="commaaccent" d="M197 -230l-167 -120l73 120h-73v172h167v-172z" unicode="" horiz-adv-x="227"/>
<glyph glyph-name="apple" d="M985 0h-206l60 304l201 99l103 -197zM414 0h-206l-158 206l103 197l201 -99zM718 0h-243l-121 607l242 238l243 -238z" unicode="" horiz-adv-x="1193"/>
<glyph glyph-name="fi" d="M639 0h-167v828h167v-828zM220 0h-167v828h335v-138h-168v-194h162v-138h-162v-358z" unicode="ﬁ" horiz-adv-x="692"/>
<glyph glyph-name="fl" d="M819 0h-347v828h167v-690h180v-138zM220 0h-167v828h335v-138h-168v-194h162v-138h-162v-358z" unicode="ﬂ" horiz-adv-x="828"/>
</font>
</defs>
</svg>
